<?xml version="1.0" encoding="UTF-8"?>
<svg version="1.1" xmlns="http://www.w3.org/2000/svg" width="2400" height="3599">
<path d="M0 0 C2.16937371 -0.00165227 4.33874713 -0.00373974 6.50812006 -0.0062201 C12.46177843 -0.01176263 18.41542235 -0.01111878 24.36908246 -0.00944251 C30.18036536 -0.00878508 35.99164385 -0.01282804 41.80292522 -0.01670653 C53.82804643 -0.02455944 65.85316468 -0.02766754 77.87828827 -0.02815247 C90.05972691 -0.02865552 102.24116224 -0.03130919 114.42259979 -0.03656006 C115.19291834 -0.03689019 115.9632369 -0.03722033 116.75689844 -0.03756046 C119.89449294 -0.03891052 123.03208743 -0.0402732 126.16968192 -0.04165257 C163.28335219 -0.05793962 200.39702182 -0.06433951 237.51069506 -0.06910044 C256.00055334 -0.07148561 274.49041126 -0.0751895 292.98026926 -0.07913754 C352.32487338 -0.09180165 411.66947748 -0.10258479 471.01408293 -0.10597799 C473.84945 -0.10614023 476.68481707 -0.10630579 479.52018415 -0.10647238 C485.20632266 -0.10680617 490.89246118 -0.10713665 496.57859969 -0.10746694 C503.23533488 -0.10785383 509.89207006 -0.10824344 516.54880525 -0.108638 C518.45399918 -0.10875042 520.35919311 -0.10886184 522.26438704 -0.10897225 C583.42213753 -0.1125199 644.57987625 -0.12759119 705.73762224 -0.15091 C749.69310535 -0.16766298 793.64858623 -0.18313148 837.60407257 -0.18764496 C838.50899592 -0.18773844 839.41391928 -0.18783193 840.34626455 -0.18792825 C860.21664577 -0.18994779 880.08702696 -0.19110343 899.95740828 -0.19145683 C907.06850903 -0.191593 914.17960977 -0.19180198 921.29071051 -0.19205009 C923.05966237 -0.19211165 924.82861422 -0.19216997 926.59756608 -0.19222504 C954.72851792 -0.19314302 982.85945743 -0.20308912 1010.99040522 -0.21768252 C1039.34691007 -0.23233399 1067.70339985 -0.23731848 1096.05990781 -0.22926298 C1099.98921322 -0.2281478 1103.91851865 -0.22713708 1107.8478241 -0.22618866 C1109.00306691 -0.22590371 1109.00306691 -0.22590371 1110.18164795 -0.225613 C1122.31525328 -0.22289261 1134.44883051 -0.23017845 1146.58242973 -0.24176203 C1158.55001984 -0.25297471 1170.51757071 -0.25326297 1182.48516151 -0.24239184 C1188.87173418 -0.23702771 1195.25821041 -0.23619874 1201.64477488 -0.24890056 C1228.40976123 -0.29883308 1254.83466123 0.11342847 1281.44922256 3.13142776 C1282.42918944 3.24098221 1283.40915632 3.35053666 1284.41881916 3.46341094 C1289.29821243 4.01705761 1294.15441793 4.65333529 1299.01172256 5.38142776 C1300.05689041 5.53483124 1300.05689041 5.53483124 1301.12317276 5.69133377 C1317.70590457 8.13722905 1334.1134381 11.38737977 1350.44922256 15.13142776 C1351.10088394 15.2807576 1351.75254532 15.43008743 1352.42395401 15.58394241 C1445.68371933 37.1144351 1534.66013053 83.05061697 1611.17578506 151.07674026 C1613.30467565 153.00078915 1615.46341399 154.88288589 1617.63672256 156.75642776 C1620.79474965 159.50308859 1623.74031381 162.4005887 1626.67187881 165.38533401 C1628.5151583 167.19620419 1630.42745056 168.8846413 1632.38672256 170.56892776 C1638.67088115 176.00387573 1644.32268303 181.90259606 1649.73437881 188.19783401 C1651.40926556 190.08637374 1653.14869843 191.86298424 1654.94922256 193.63142776 C1658.66117961 197.29411104 1662.06534911 201.16595106 1665.44922256 205.13142776 C1666.27422256 206.09049026 1667.09922256 207.04955276 1667.94922256 208.03767776 C1674.67940502 215.89482538 1681.1406991 223.93295824 1687.44922256 232.13142776 C1687.99530167 232.83557816 1688.54138077 233.53972855 1689.10400772 234.26521683 C1741.11493065 301.50134117 1777.62036448 379.5838349 1809.44922256 532.13142776 C1809.53279007 532.82123734 1809.61635757 533.51104691 1809.70245743 534.2217598 C1814.93400309 577.85112014 1814.65377189 623.51557333 1809.44922256 667.13142776 C1809.32193771 668.22638565 1809.32193771 668.22638565 1809.19208145 669.3434639 C1806.53163498 692.19229487 1802.61301504 714.71652212 1797.44922256 737.13142776 C1797.29989273 737.77966507 1797.1505629 738.42790237 1796.99670792 739.09578323 C1787.35558068 780.63889445 1772.92857484 820.71717856 1754.44922256 859.13142776 C1753.91571182 860.24227737 1753.38220108 861.35312698 1752.83252335 862.4976387 C1732.61085699 904.34160632 1707.52481471 943.60732131 1677.87305069 979.40340042 C1676.5885838 980.96229217 1675.3224332 982.53623216 1674.05859756 984.11189651 C1669.54179537 989.74165177 1664.80795559 995.1043132 1659.87280655 1000.36653519 C1657.34202837 1003.06565781 1654.87980558 1005.79563082 1652.48437881 1008.61580276 C1647.27281578 1014.60095718 1641.58840797 1020.1409428 1635.9704628 1025.74055862 C1634.01626633 1027.68939646 1632.06747109 1029.64352048 1630.11914444 1031.59822464 C1624.06581128 1037.65513399 1618.00962934 1043.61880495 1611.44922256 1049.13142776 C1610.28052813 1050.15254908 1609.11385997 1051.17599412 1607.94922256 1052.20174026 C1588.33092088 1069.35801742 1567.86472057 1084.96263584 1546.19922256 1099.44392776 C1545.26732101 1100.0683728 1545.26732101 1100.0683728 1544.31659317 1100.70543289 C1535.19370971 1106.80670613 1525.90110317 1112.55510303 1516.44922256 1118.13142776 C1515.58023331 1118.65019485 1514.71124405 1119.16896194 1513.81592178 1119.70344925 C1440.3641584 1163.42993416 1357.19235207 1188.8109015 1272.42724991 1197.70418167 C1265.42699854 1198.44535348 1258.43882905 1199.29685593 1251.44922256 1200.13142776 C1252.30225967 1200.20135941 1253.15529678 1200.27129105 1254.0341835 1200.34334183 C1326.90335038 1206.40764766 1397.51806039 1222.84885932 1463.94922256 1253.96150589 C1465.68357642 1254.77312929 1467.42076912 1255.57870316 1469.16016006 1256.37947464 C1483.13459902 1262.81507153 1496.5944084 1269.90645669 1509.88916397 1277.64705276 C1512.1220763 1278.94174158 1514.3653138 1280.21390585 1516.61719131 1281.47517776 C1542.21273974 1295.95737431 1566.93228598 1313.24281272 1589.44922256 1332.13142776 C1591.3025368 1333.63248085 1593.15671988 1335.13246176 1595.01172256 1336.63142776 C1599.50413325 1340.30470944 1603.83888937 1344.11921603 1608.12891006 1348.02595901 C1610.1507644 1349.86060462 1612.19600779 1351.65911563 1614.26172256 1353.44392776 C1623.59533426 1361.610838 1632.54116008 1370.12639362 1641.32422256 1378.88142776 C1642.12062149 1379.67323441 1642.91702042 1380.46504105 1643.73755264 1381.28084183 C1647.94496758 1385.49928364 1651.99035323 1389.79750272 1655.87646866 1394.31355667 C1658.12956236 1396.91780002 1660.4770702 1399.42408702 1662.82422256 1401.94392776 C1667.93922462 1407.48802604 1672.73646978 1413.24048678 1677.44922256 1419.13142776 C1678.35998276 1420.2504859 1679.27147733 1421.36894664 1680.18359756 1422.48689651 C1703.09442933 1450.68040706 1723.29010859 1481.11152864 1740.44922256 1513.13142776 C1741.13468155 1514.40179886 1741.13468155 1514.40179886 1741.83398819 1515.69783401 C1778.10581249 1583.13692277 1800.40848186 1656.16602996 1809.44922256 1732.13142776 C1809.53279007 1732.82123734 1809.61635757 1733.51104691 1809.70245743 1734.2217598 C1814.93028994 1777.82015366 1814.72896752 1823.5496719 1809.44922256 1867.13142776 C1809.364366 1867.84444046 1809.27950943 1868.55745316 1809.19208145 1869.2920723 C1801.09598074 1936.88802809 1782.01244879 2001.80416795 1752.44922256 2063.13142776 C1752.00723526 2064.05391312 1751.56524796 2064.97639847 1751.1098671 2065.92683792 C1731.06057928 2107.59898123 1705.0263845 2146.6293231 1675.44922256 2182.13142776 C1674.97388077 2182.70586624 1674.49853897 2183.28030472 1674.00879288 2183.87215042 C1668.07231115 2191.04037941 1661.9245422 2197.97152251 1655.56641006 2204.76814651 C1653.07133745 2207.43772878 1650.64033014 2210.15981485 1648.21094131 2212.88924026 C1643.43633076 2218.20451407 1638.44958849 2223.27930377 1633.38672256 2228.31892776 C1632.11731827 2229.59413284 1632.11731827 2229.59413284 1630.82226944 2230.89509964 C1626.41293734 2235.29763246 1621.93795446 2239.55343636 1617.21167374 2243.61409378 C1614.80146985 2245.68909269 1612.47266032 2247.84850082 1610.13672256 2250.00642776 C1605.70425782 2254.04422099 1601.1718008 2257.90450211 1596.50391006 2261.66658401 C1594.26610677 2263.47227951 1592.04440357 2265.29122089 1589.83203506 2267.12752151 C1560.44711725 2291.43356465 1527.93959316 2311.99257897 1494.44922256 2330.13142776 C1493.67095108 2330.55746292 1492.8926796 2330.98349808 1492.09082413 2331.42244339 C1418.65855919 2371.5087991 1334.77560215 2393.88721997 1251.44922256 2399.13142776 C1250.24193497 2399.21602249 1250.24193497 2399.21602249 1249.01025772 2399.3023262 C1174.0875454 2404.48633373 1097.8060661 2394.12407786 1026.44922256 2371.13142776 C1025.34175674 2370.77467972 1024.23429092 2370.41793167 1023.09326553 2370.05037308 C965.11830741 2351.14342716 907.33631874 2322.91411897 859.06738663 2285.37312698 C856.73788007 2283.58557865 854.34386767 2281.89278366 851.94922256 2280.19392776 C845.17571566 2275.29741675 838.75901877 2269.95863862 832.30615616 2264.65193558 C830.69173748 2263.33000558 829.06561791 2262.02239057 827.43750381 2260.71736526 C821.81972771 2256.20674212 816.46674648 2251.48116624 811.21411514 2246.55501175 C808.50443816 2244.01433748 805.76324405 2241.54198241 802.93359756 2239.13533401 C797.11056024 2234.06493417 791.71497324 2228.54606679 786.2673378 2223.07991409 C784.39092781 2221.19814502 782.50923287 2219.32178038 780.62695694 2217.44588089 C774.68786286 2211.51042584 768.86056376 2205.55882055 763.44922256 2199.13142776 C762.42800805 2197.96281476 761.40456872 2196.79614222 760.37891006 2195.63142776 C734.29048627 2165.79916498 711.13171738 2133.55140631 691.44922256 2099.13142776 C691.02528214 2098.39102249 690.60134171 2097.65061722 690.1645546 2096.88777542 C687.62333097 2092.42578024 685.13819135 2087.93593795 682.69238663 2083.42097855 C681.86405705 2081.89543361 681.03006719 2080.3729484 680.1904335 2078.85359573 C666.16851467 2053.44622108 655.00455493 2026.50009515 645.44922256 1999.13142776 C645.07636124 1998.08632034 644.70349991 1997.04121292 644.31933975 1995.96443558 C628.10082283 1950.39812612 618.2496552 1902.51560296 613.92038345 1854.37106705 C613.78741017 1852.89604517 613.78741017 1852.89604517 613.65175056 1851.39122486 C613.5514992 1850.2726253 613.5514992 1850.2726253 613.44922256 1849.13142776 C613.44882238 1850.15469617 613.4484222 1851.17796457 613.44800989 1852.23224111 C613.43428319 1887.27326256 613.41989307 1922.31428373 613.40503311 1957.35530472 C613.40473377 1958.06130919 613.40443443 1958.76731365 613.40412602 1959.4947122 C613.3720148 2035.18719401 613.33553138 2110.87967222 613.29024124 2186.57214737 C613.28923562 2188.25467968 613.28822999 2189.937212 613.28722437 2191.61974431 C613.26609996 2226.94141863 613.24436242 2262.26309255 613.22191719 2297.58476605 C613.21064181 2315.32966957 613.19948416 2333.07457316 613.18843788 2350.81947683 C613.18677097 2353.49612364 613.1851007 2356.17277046 613.18343029 2358.84941727 C613.15775706 2400.03533818 613.13459921 2441.22125861 613.11877823 2482.4071846 C613.11843837 2483.29180677 613.1180985 2484.17642893 613.11774834 2485.08785783 C613.11228458 2499.34935444 613.10703313 2513.61085113 613.1018099 2527.87234783 C613.08675058 2568.98138386 613.07010494 2610.09041652 613.0430994 2651.19944668 C613.04254407 2652.04595433 613.04198875 2652.89246198 613.04141659 2653.76462137 C613.02919363 2672.35362469 613.01616433 2690.94262735 613.00237299 2709.53162956 C612.99683686 2717.01276836 612.99141666 2724.49390724 612.9860363 2731.97504616 C612.98544467 2732.79379184 612.98485304 2733.61253752 612.98424348 2734.45609368 C612.96528173 2760.77653002 612.95573233 2787.0969593 612.95118662 2813.41740176 C612.94655885 2839.96097033 612.93256332 2866.50451649 612.90579623 2893.04807247 C612.90208793 2896.72769769 612.89848551 2900.40732301 612.89494705 2904.08694839 C612.89424967 2904.80817231 612.89355228 2905.52939622 612.89283376 2906.2724754 C612.88212551 2917.62906712 612.88134732 2928.98563624 612.88485456 2940.34223155 C612.8881063 2951.54766799 612.88027073 2962.75305602 612.86189846 2973.95848152 C612.85240093 2979.93703544 612.84738107 2985.91549106 612.85582694 2991.89404885 C612.8976439 3024.52964469 611.8536912 3056.70648984 606.76172256 3089.00642776 C606.63672379 3089.81808395 606.51172501 3090.62974014 606.38293839 3091.46599197 C598.64144681 3141.47542742 584.97251796 3190.82406901 564.44922256 3237.13142776 C564.01641983 3238.1098262 563.5836171 3239.08822464 563.13769913 3240.09627151 C552.55774537 3263.86832246 540.93780143 3286.87311792 527.44922256 3309.13142776 C526.8311171 3310.15333206 526.21301163 3311.17523636 525.57617569 3312.22810745 C517.91276904 3324.83832614 509.91946965 3337.07902271 501.09814835 3348.90877151 C499.35229469 3351.26208092 497.63141084 3353.63224467 495.91406631 3356.00642776 C489.86840537 3364.33934733 483.7005445 3372.45908005 476.94922256 3380.23299026 C474.61125965 3382.94356601 472.36858394 3385.70839567 470.13672256 3388.50642776 C465.29533442 3394.46037907 460.04608348 3400.0041208 454.78125381 3405.58064651 C452.17652192 3408.34222873 449.64051515 3411.15259039 447.13672256 3414.00642776 C442.8787038 3418.76868559 438.39465044 3423.29500573 433.88672256 3427.81892776 C433.17797989 3428.53226273 432.46923721 3429.24559769 431.73901749 3429.98054886 C427.71726603 3433.99064576 423.597075 3437.82199139 419.29565811 3441.53010941 C416.68399699 3443.79506846 414.16635739 3446.15015253 411.63672256 3448.50642776 C407.04497576 3452.74329193 402.33968142 3456.78548659 397.46875381 3460.70174026 C395.24255097 3462.49307037 393.0343414 3464.29881079 390.83594131 3466.12361526 C381.76300647 3473.62772649 372.43386842 3480.66300446 362.81738663 3487.45466995 C360.39227211 3489.17175104 357.97905966 3490.90469941 355.56641006 3492.63924026 C344.93742041 3500.23495447 334.06363391 3507.19307152 322.776371 3513.76716995 C320.62599166 3515.02779938 318.49216033 3516.31147289 316.36328506 3517.60799026 C303.4175326 3525.44965408 289.95710756 3532.31724602 276.44922256 3539.13142776 C275.08821426 3539.82002884 275.08821426 3539.82002884 273.69971085 3540.52254105 C202.51671632 3576.25841178 118.81057997 3598.13380763 31.33984756 3599.33455276 C29.93186284 3599.34157534 28.52387843 3599.34866215 27.11589432 3599.35580826 C22.6436657 3599.37519851 18.17148898 3599.38024211 13.69922256 3599.38142776 C12.93722172 3599.38186962 12.17522087 3599.38231148 11.39012909 3599.38276672 C-11.39646642 3599.38969662 -33.92196847 3599.07489594 -56.55077744 3596.13142776 C-57.96602417 3595.95712835 -59.38139319 3595.78381954 -60.79687119 3595.61140823 C-146.83316075 3585.02931825 -230.15555641 3556.04443343 -351.55077744 3477.13142776 C-352.19289169 3476.64093948 -352.83500595 3476.1504512 -353.49657822 3475.64509964 C-364.8191321 3466.95590402 -375.71848289 3457.78818268 -386.27733994 3448.18611526 C-388.40623052 3446.26206638 -390.56496886 3444.37996964 -392.73827744 3442.50642776 C-395.89630452 3439.75976694 -398.84186869 3436.86226683 -401.77343369 3433.87752151 C-403.61671317 3432.06665134 -405.52900543 3430.37821423 -407.48827744 3428.69392776 C-413.77243602 3423.2589798 -419.4242379 3417.36025947 -424.83593369 3411.06502151 C-426.51082043 3409.17648179 -428.2502533 3407.39987129 -430.05077744 3405.63142776 C-433.76273448 3401.96874449 -437.16690398 3398.09690447 -440.55077744 3394.13142776 C-441.37577744 3393.17236526 -442.20077744 3392.21330276 -443.05077744 3391.22517776 C-449.78095989 3383.36803015 -456.24225397 3375.32989729 -462.55077744 3367.13142776 C-463.09685654 3366.42727737 -463.64293564 3365.72312698 -464.20556259 3364.9976387 C-480.13098918 3344.41034854 -494.59138101 3322.7039884 -507.55077744 3300.13142776 C-507.97230087 3299.39730667 -508.39382431 3298.66318558 -508.82812119 3297.90681839 C-511.80717211 3292.68651887 -514.69506519 3287.42002226 -517.55077744 3282.13142776 C-518.00920029 3281.28838089 -518.46762314 3280.44533401 -518.93993759 3279.57674026 C-532.62557004 3254.30810722 -543.86206816 3228.16915914 -553.55077744 3201.13142776 C-553.94216904 3200.04249222 -554.33356064 3198.95355667 -554.73681259 3197.83162308 C-569.77367475 3155.53364099 -579.25133672 3111.66031488 -584.55077744 3067.13142776 C-584.63434494 3066.44161819 -584.71791245 3065.75180862 -584.8040123 3065.04109573 C-590.03555796 3021.41173539 -589.75532676 2975.7472822 -584.55077744 2932.13142776 C-584.42349258 2931.03646988 -584.42349258 2931.03646988 -584.29363632 2929.91939163 C-581.63318985 2907.07056066 -577.71456991 2884.54633341 -572.55077744 2862.13142776 C-572.32678268 2861.15907181 -572.32678268 2861.15907181 -572.09826279 2860.1670723 C-562.45713555 2818.62396108 -548.03012971 2778.54567697 -529.55077744 2740.13142776 C-529.01726669 2739.02057816 -528.48375595 2737.90972855 -527.93407822 2736.76521683 C-507.71333336 2694.92315605 -482.62845447 2655.65910277 -452.97900009 2619.86384964 C-450.93815253 2617.38831899 -448.93650608 2614.88144562 -446.92577744 2612.38142776 C-442.90343493 2607.46440982 -438.65238672 2602.79756986 -434.32421494 2598.15095901 C-432.27315309 2595.94266976 -430.29365583 2593.68315436 -428.3264122 2591.39998245 C-424.81773262 2587.38451206 -421.14292959 2583.57837731 -417.36718369 2579.81502151 C-416.70798431 2579.15486542 -416.04878494 2578.49470932 -415.36960983 2577.81454849 C-413.98680909 2576.43107271 -412.60276668 2575.04883693 -411.21752548 2573.66780472 C-409.11847401 2571.57411107 -407.02481804 2569.47512902 -404.93163681 2567.37556839 C-403.57713958 2566.02173206 -402.22233212 2564.66820601 -400.86718369 2563.31502151 C-400.25234619 2562.69815979 -399.6375087 2562.08129807 -399.00403976 2561.44574356 C-394.68061785 2557.1451323 -390.17624772 2553.10374028 -385.55077744 2549.13142776 C-384.4566609 2548.18132886 -383.36284518 2547.23088326 -382.26952744 2546.27986526 C-362.83070051 2529.49137909 -342.65537893 2514.09241541 -321.30077744 2499.81892776 C-320.67950974 2499.40263107 -320.05824203 2498.98633438 -319.41814804 2498.55742264 C-310.29520461 2492.45610929 -301.00172041 2486.70940123 -291.55077744 2481.13142776 C-290.69242294 2480.61797806 -289.83406845 2480.10452835 -288.94970322 2479.57551956 C-222.6683305 2440.0112769 -147.33999001 2414.82362846 -26.55077744 2399.13142776 C-27.37239365 2399.06673294 -28.19400986 2399.00203812 -29.04052353 2398.93538284 C-103.22127158 2392.96463727 -174.33903281 2375.23668219 -363.8408165 2267.53718948 C-366.17566654 2265.6177054 -368.55016683 2263.75009343 -370.92577744 2261.88142776 C-375.16491536 2258.50292019 -379.19007196 2254.92333833 -383.19530869 2251.27205276 C-385.22819577 2249.42458656 -387.28459159 2247.61435453 -389.36327744 2245.81892776 C-398.69688913 2237.65201753 -407.64271495 2229.13646191 -416.42577744 2220.38142776 C-417.62037582 2219.1937178 -417.62037582 2219.1937178 -418.83910751 2217.9820137 C-423.04652245 2213.76357189 -427.0919081 2209.46535281 -430.97802353 2204.94929886 C-433.23111723 2202.34505551 -435.57862507 2199.83876851 -437.92577744 2197.31892776 C-443.04077949 2191.77482949 -447.83802465 2186.02236875 -452.55077744 2180.13142776 C-453.46153763 2179.01236963 -454.3730322 2177.89390889 -455.28515244 2176.77595901 C-514.91451815 2103.39751652 -556.32926231 2015.65051353 -583.80077744 1873.25642776 C-583.95183945 1872.03657181 -584.10290146 1870.81671585 -584.25854111 1869.55989456 C-586.93372164 1846.48815987 -587.92988581 1823.47446375 -587.86327744 1800.25642776 C-587.861351 1798.91416307 -587.85951078 1797.57189826 -587.85775375 1796.22963333 C-587.81694836 1774.74151326 -587.13613435 1753.47230598 -584.55077744 1732.13142776 C-584.46592087 1731.41841507 -584.3810643 1730.70540237 -584.29363632 1729.97078323 C-576.19753561 1662.37482744 -557.11400366 1597.45868758 -527.55077744 1536.13142776 C-526.88779648 1534.74769974 -526.88779648 1534.74769974 -526.21142197 1533.33601761 C-516.34666373 1512.83226591 -504.97786611 1493.18224585 -492.55077744 1474.13142776 C-492.11136826 1473.45644241 -491.67195908 1472.78145706 -491.21923447 1472.08601761 C-478.74505049 1452.98979427 -465.19773884 1434.6207191 -450.55077744 1417.13142776 C-449.92139267 1416.37466751 -449.92139267 1416.37466751 -449.27929306 1415.60261917 C-443.01382442 1408.07262347 -436.55711149 1400.7609446 -429.89062119 1393.58455276 C-428.60899452 1392.194567 -427.34505039 1390.78833941 -426.08202744 1389.38142776 C-420.1942927 1382.83950028 -414.07690151 1376.55231375 -407.86327744 1370.31892776 C-406.66928329 1369.1180452 -406.66928329 1369.1180452 -405.45116806 1367.89290237 C-401.20521362 1363.65797753 -396.8811087 1359.58198777 -392.33520126 1355.67073441 C-389.91924815 1353.58664843 -387.5817851 1351.42134776 -385.23827744 1349.25642776 C-380.80581269 1345.21863454 -376.27335567 1341.35835342 -371.60546494 1337.59627151 C-369.36766164 1335.79057602 -367.14595844 1333.97163464 -364.93358994 1332.13533401 C-297.79314829 1276.59941315 -215.95188306 1236.60411155 -26.55077744 1200.13142776 C-28.22188583 1199.95136185 -28.22188583 1199.95136185 -29.926754 1199.76765823 C-121.3995236 1189.83806462 -206.18363571 1166.53342815 -366.81835556 1065.55965042 C-369.29388621 1063.51880286 -371.80075958 1061.51715641 -374.30077744 1059.50642776 C-379.21779538 1055.48408526 -383.88463534 1051.23303705 -388.53124619 1046.90486526 C-390.73953544 1044.85380342 -392.99905084 1042.87430616 -395.28222275 1040.90706253 C-399.29769314 1037.39838295 -403.10382789 1033.72357992 -406.86718369 1029.94783401 C-407.52733978 1029.28863464 -408.18749588 1028.62943527 -408.86765671 1027.95026016 C-410.25113249 1026.56745942 -411.63336827 1025.18341701 -413.01440048 1023.79817581 C-415.10809413 1021.69912434 -417.20707618 1019.60546837 -419.30663681 1017.51228714 C-420.66047314 1016.15778991 -422.01399919 1014.80298245 -423.36718369 1013.44783401 C-423.98404541 1012.83299652 -424.60090714 1012.21815903 -425.23646164 1011.58469009 C-429.5370729 1007.26126818 -433.57846492 1002.75689805 -437.55077744 998.13142776 C-438.50087634 997.03731123 -439.45132194 995.94349551 -440.40233994 994.85017776 C-492.26090434 934.8048796 -532.34046828 865.40114559 -557.55077744 790.13142776 C-557.93185654 788.9962471 -558.31293564 787.86106644 -558.70556259 786.69148636 C-570.90053859 749.92989489 -578.86155465 712.13739374 -583.80077744 673.75642776 C-583.95200058 672.59586868 -584.10322372 671.4353096 -584.25902939 670.23958206 C-587.08018842 646.95187803 -587.93074946 623.63463269 -587.86327744 600.19392776 C-587.86135057 598.85418586 -587.85951039 597.51444383 -587.85775375 596.17470169 C-587.81692092 574.70507343 -587.13390793 553.45392794 -584.55077744 532.13142776 C-584.46592087 531.41841507 -584.3810643 530.70540237 -584.29363632 529.97078323 C-580.32194202 496.81031724 -573.78358429 464.227283 -564.55077744 432.13142776 C-564.24059677 431.04136429 -563.93041611 429.95130081 -563.61083603 428.82820511 C-555.54166007 400.7205044 -544.87038372 373.63285964 -532.55077744 347.13142776 C-532.06109482 346.0684346 -531.5714122 345.00544144 -531.06689072 343.91023636 C-524.37702555 329.43427689 -517.06263071 315.44639052 -509.02782822 301.67244339 C-507.71442231 299.41295105 -506.42281505 297.14309175 -505.14062119 294.86580276 C-493.50121125 274.37585136 -479.8477764 254.84030342 -465.55077744 236.13142776 C-465.06560654 235.49463089 -464.58043564 234.85783401 -464.08056259 234.20174026 C-457.22161616 225.2361681 -449.9648531 216.64066912 -442.55077744 208.13142776 C-441.8920665 207.37088089 -441.23335556 206.61033401 -440.55468369 205.82674026 C-438.89638603 203.91950648 -437.2269338 202.02297806 -435.55077744 200.13142776 C-434.93718369 199.43662308 -434.32358994 198.74181839 -433.69140244 198.02595901 C-431.33048033 195.37657838 -428.94731808 192.74854353 -426.55077744 190.13142776 C-425.99245224 189.5212178 -425.43412704 188.91100784 -424.8588829 188.28230667 C-415.45760923 178.04923819 -405.70718596 168.3174328 -395.4814415 158.9092598 C-393.71346216 157.28123431 -391.95470714 155.64398628 -390.19921494 154.00252151 C-384.8130059 148.98495036 -379.30300461 144.17107619 -373.56640244 139.55720901 C-371.35435528 137.77782911 -369.15870904 135.98512224 -366.97265244 134.17439651 C-307.39214235 84.96623256 -237.99129979 48.90109552 -164.45537949 25.73372269 C-162.73499948 25.18968456 -161.01746239 24.63667627 -159.30028915 24.08259964 C-119.74423511 11.36412346 -77.84894622 4.6494658 -36.55077744 1.13142776 C-35.50259837 1.04213405 -34.45441931 0.95284034 -33.37447725 0.86084075 C-22.24689908 0.01727722 -11.15502432 -0.01042067 0 0 Z M612.44922256 1200.13142776 C612.44922256 1386.58142776 612.44922256 1573.03142776 612.44922256 1765.13142776 C612.77922256 1765.13142776 613.10922256 1765.13142776 613.44922256 1765.13142776 C613.51391739 1764.25446243 613.57861221 1763.3774971 613.64526749 1762.47395706 C619.32857862 1687.1761825 636.54565551 1615.13602682 668.36963272 1546.46248245 C669.08966511 1544.90778566 669.80548705 1543.35113197 670.51709366 1541.79256058 C690.49298972 1498.04452691 717.37306991 1456.86342671 748.02539444 1419.85945511 C749.30986133 1418.30056336 750.57601193 1416.72662337 751.83984756 1415.15095901 C756.35664976 1409.52120376 761.09048954 1404.15854233 766.02563858 1398.89632034 C768.57621267 1396.17608501 771.05870968 1393.4236884 773.47656631 1390.58455276 C778.40578963 1384.92364787 783.7591409 1379.67241824 789.07349014 1374.37678909 C790.88283189 1372.57280691 792.68676576 1370.76354112 794.49023819 1368.95369339 C800.30917435 1363.13145147 806.16960098 1357.46067224 812.44922256 1352.13142776 C813.99403517 1350.71819226 815.53617581 1349.30202368 817.07422256 1347.88142776 C822.19452437 1343.25663904 827.57935372 1339.03294835 833.02734756 1334.80720901 C835.94887608 1332.53714593 838.79932073 1330.19370973 841.63672256 1327.81892776 C856.15603671 1315.90673134 871.68635625 1305.3141807 887.44922256 1295.13142776 C888.27583389 1294.59695023 889.10244522 1294.06247269 889.95410538 1293.51179886 C967.28674589 1243.84597225 1055.35996593 1214.27791736 1172.44922256 1201.13142776 C1172.44922256 1200.80142776 1172.44922256 1200.47142776 1172.44922256 1200.13142776 C987.64922256 1200.13142776 802.84922256 1200.13142776 612.44922256 1200.13142776 Z " fill="#A258FF" transform="translate(587.5507774353027,-0.13142776489257813)"/>
<path d="M0 0 C2.16937371 -0.00165227 4.33874713 -0.00373974 6.50812006 -0.0062201 C12.46177843 -0.01176263 18.41542235 -0.01111878 24.36908246 -0.00944251 C30.18036536 -0.00878508 35.99164385 -0.01282804 41.80292522 -0.01670653 C53.82804643 -0.02455944 65.85316468 -0.02766754 77.87828827 -0.02815247 C90.05972691 -0.02865552 102.24116224 -0.03130919 114.42259979 -0.03656006 C115.19291834 -0.03689019 115.9632369 -0.03722033 116.75689844 -0.03756046 C119.89449294 -0.03891052 123.03208743 -0.0402732 126.16968192 -0.04165257 C163.28335219 -0.05793962 200.39702182 -0.06433951 237.51069506 -0.06910044 C256.00055334 -0.07148561 274.49041126 -0.0751895 292.98026926 -0.07913754 C352.32487338 -0.09180165 411.66947748 -0.10258479 471.01408293 -0.10597799 C473.84945 -0.10614023 476.68481707 -0.10630579 479.52018415 -0.10647238 C485.20632266 -0.10680617 490.89246118 -0.10713665 496.57859969 -0.10746694 C503.23533488 -0.10785383 509.89207006 -0.10824344 516.54880525 -0.108638 C518.45399918 -0.10875042 520.35919311 -0.10886184 522.26438704 -0.10897225 C583.42213753 -0.1125199 644.57987625 -0.12759119 705.73762224 -0.15091 C749.69310535 -0.16766298 793.64858623 -0.18313148 837.60407257 -0.18764496 C838.50899592 -0.18773844 839.41391928 -0.18783193 840.34626455 -0.18792825 C860.21664577 -0.18994779 880.08702696 -0.19110343 899.95740828 -0.19145683 C907.06850903 -0.191593 914.17960977 -0.19180198 921.29071051 -0.19205009 C923.05966237 -0.19211165 924.82861422 -0.19216997 926.59756608 -0.19222504 C954.72851792 -0.19314302 982.85945743 -0.20308912 1010.99040522 -0.21768252 C1039.34691007 -0.23233399 1067.70339985 -0.23731848 1096.05990781 -0.22926298 C1099.98921322 -0.2281478 1103.91851865 -0.22713708 1107.8478241 -0.22618866 C1109.00306691 -0.22590371 1109.00306691 -0.22590371 1110.18164795 -0.225613 C1122.31525328 -0.22289261 1134.44883051 -0.23017845 1146.58242973 -0.24176203 C1158.55001984 -0.25297471 1170.51757071 -0.25326297 1182.48516151 -0.24239184 C1188.87173418 -0.23702771 1195.25821041 -0.23619874 1201.64477488 -0.24890056 C1228.40976123 -0.29883308 1254.83466123 0.11342847 1281.44922256 3.13142776 C1282.42918944 3.24098221 1283.40915632 3.35053666 1284.41881916 3.46341094 C1289.29821243 4.01705761 1294.15441793 4.65333529 1299.01172256 5.38142776 C1300.05689041 5.53483124 1300.05689041 5.53483124 1301.12317276 5.69133377 C1317.70590457 8.13722905 1334.1134381 11.38737977 1350.44922256 15.13142776 C1351.10088394 15.2807576 1351.75254532 15.43008743 1352.42395401 15.58394241 C1445.68371933 37.1144351 1534.66013053 83.05061697 1611.17578506 151.07674026 C1613.30467565 153.00078915 1615.46341399 154.88288589 1617.63672256 156.75642776 C1620.79474965 159.50308859 1623.74031381 162.4005887 1626.67187881 165.38533401 C1628.5151583 167.19620419 1630.42745056 168.8846413 1632.38672256 170.56892776 C1638.67088115 176.00387573 1644.32268303 181.90259606 1649.73437881 188.19783401 C1651.40926556 190.08637374 1653.14869843 191.86298424 1654.94922256 193.63142776 C1658.66117961 197.29411104 1662.06534911 201.16595106 1665.44922256 205.13142776 C1666.27422256 206.09049026 1667.09922256 207.04955276 1667.94922256 208.03767776 C1674.67940502 215.89482538 1681.1406991 223.93295824 1687.44922256 232.13142776 C1687.99530167 232.83557816 1688.54138077 233.53972855 1689.10400772 234.26521683 C1741.11493065 301.50134117 1777.62036448 379.5838349 1809.44922256 532.13142776 C1809.53279007 532.82123734 1809.61635757 533.51104691 1809.70245743 534.2217598 C1814.93400309 577.85112014 1814.65377189 623.51557333 1809.44922256 667.13142776 C1809.32193771 668.22638565 1809.32193771 668.22638565 1809.19208145 669.3434639 C1806.53163498 692.19229487 1802.61301504 714.71652212 1797.44922256 737.13142776 C1797.29989273 737.77966507 1797.1505629 738.42790237 1796.99670792 739.09578323 C1787.35558068 780.63889445 1772.92857484 820.71717856 1754.44922256 859.13142776 C1753.91571182 860.24227737 1753.38220108 861.35312698 1752.83252335 862.4976387 C1732.61085699 904.34160632 1707.52481471 943.60732131 1677.87305069 979.40340042 C1676.5885838 980.96229217 1675.3224332 982.53623216 1674.05859756 984.11189651 C1669.54179537 989.74165177 1664.80795559 995.1043132 1659.87280655 1000.36653519 C1657.34202837 1003.06565781 1654.87980558 1005.79563082 1652.48437881 1008.61580276 C1647.27281578 1014.60095718 1641.58840797 1020.1409428 1635.9704628 1025.74055862 C1634.01626633 1027.68939646 1632.06747109 1029.64352048 1630.11914444 1031.59822464 C1624.06581128 1037.65513399 1618.00962934 1043.61880495 1611.44922256 1049.13142776 C1610.28052813 1050.15254908 1609.11385997 1051.17599412 1607.94922256 1052.20174026 C1588.33092088 1069.35801742 1567.86472057 1084.96263584 1546.19922256 1099.44392776 C1545.26732101 1100.0683728 1545.26732101 1100.0683728 1544.31659317 1100.70543289 C1535.19370971 1106.80670613 1525.90110317 1112.55510303 1516.44922256 1118.13142776 C1515.58023331 1118.65019485 1514.71124405 1119.16896194 1513.81592178 1119.70344925 C1444.30227872 1161.08553628 1365.12450191 1186.88280107 1284.88672256 1196.44392776 C1283.65486221 1196.59128372 1282.42300186 1196.73863968 1281.15381241 1196.89046097 C1277.78095602 1197.26320898 1274.40706683 1197.59148026 1271.027601 1197.89755562 C1269.29408666 1198.05479426 1267.56093543 1198.21608367 1265.82815576 1198.38122174 C1241.34169334 1200.64396223 1216.83729008 1200.41654674 1192.2695767 1200.38836287 C1185.85295294 1200.38324269 1179.43633864 1200.38982764 1173.01971626 1200.39484954 C1161.79773414 1200.40238963 1150.57576947 1200.40194113 1139.35378647 1200.39675522 C1127.32658668 1200.39123125 1115.2993982 1200.39010915 1103.27219772 1200.39422989 C1102.50941377 1200.39448823 1101.74662982 1200.39474658 1100.9607312 1200.39501275 C1097.85346695 1200.39607943 1094.74620272 1200.39717686 1091.6389385 1200.3983133 C1062.77054226 1200.40886402 1033.90215359 1200.40962177 1005.03375626 1200.4040184 C977.21942416 1200.3986223 949.40509565 1200.3965105 921.59076309 1200.3990593 C919.84098855 1200.39921426 918.09121401 1200.39936857 916.34143947 1200.39952224 C909.30910165 1200.40014322 902.27676382 1200.40078055 895.244426 1200.40144176 C875.58843822 1200.40327541 855.93245042 1200.40441688 836.27646255 1200.40501404 C835.38151626 1200.40504133 834.48656996 1200.40506862 833.56450408 1200.40509674 C805.06502704 1200.4059148 776.56555108 1200.40366408 748.06607437 1200.39931488 C747.14227366 1200.39917438 746.21847296 1200.39903388 745.26667829 1200.39888913 C730.26654503 1200.39659947 715.26641179 1200.39416044 700.26627856 1200.39170878 C640.78103292 1200.38199677 581.29579629 1200.38244756 521.81055069 1200.39216995 C506.81782406 1200.39461251 491.82509742 1200.39703468 476.83237076 1200.39931488 C475.90910392 1200.39945578 474.98583708 1200.39959667 474.03459246 1200.39974184 C445.56372236 1200.40405683 417.092853 1200.40588226 388.62198257 1200.40501404 C387.72770075 1200.40498687 386.83341893 1200.4049597 385.91203767 1200.40493171 C366.2775661 1200.40430664 346.64309461 1200.40303914 327.00862312 1200.40119303 C319.98272592 1200.4005348 312.95682872 1200.39990863 305.93093152 1200.39929161 C304.18321199 1200.39913683 302.43549245 1200.39897937 300.68777292 1200.39881922 C272.88618428 1200.39627857 245.08459956 1200.3991232 217.28301143 1200.40451951 C188.49465804 1200.41004624 159.7063137 1200.40798589 130.9179616 1200.39745691 C127.82072354 1200.3963523 124.72348548 1200.39527888 121.62624741 1200.39422989 C120.86617782 1200.39396948 120.10610823 1200.39370906 119.32300623 1200.39344076 C107.33309325 1200.3895103 95.34319161 1200.39222711 83.35327966 1200.3977679 C71.53725491 1200.40308461 59.72125056 1200.4009874 47.90522812 1200.39173973 C41.59597099 1200.38700206 35.2867564 1200.38531377 28.97750068 1200.39255169 C-19.74781518 1200.44437877 -19.74781518 1200.44437877 -43.55077744 1198.13142776 C-44.83796539 1198.00831094 -44.83796539 1198.00831094 -46.15115714 1197.88270691 C-50.79459346 1197.43116871 -55.42215171 1196.90737463 -60.05077744 1196.31892776 C-60.72324509 1196.23494736 -61.39571274 1196.15096695 -62.0885582 1196.06444168 C-153.67625764 1184.58177698 -241.82904725 1152.39856913 -366.81835556 1065.55965042 C-369.29388621 1063.51880286 -371.80075958 1061.51715641 -374.30077744 1059.50642776 C-379.21779538 1055.48408526 -383.88463534 1051.23303705 -388.53124619 1046.90486526 C-390.73953544 1044.85380342 -392.99905084 1042.87430616 -395.28222275 1040.90706253 C-399.29769314 1037.39838295 -403.10382789 1033.72357992 -406.86718369 1029.94783401 C-407.52733978 1029.28863464 -408.18749588 1028.62943527 -408.86765671 1027.95026016 C-410.25113249 1026.56745942 -411.63336827 1025.18341701 -413.01440048 1023.79817581 C-415.10809413 1021.69912434 -417.20707618 1019.60546837 -419.30663681 1017.51228714 C-420.66047314 1016.15778991 -422.01399919 1014.80298245 -423.36718369 1013.44783401 C-423.98404541 1012.83299652 -424.60090714 1012.21815903 -425.23646164 1011.58469009 C-429.5370729 1007.26126818 -433.57846492 1002.75689805 -437.55077744 998.13142776 C-438.50087634 997.03731123 -439.45132194 995.94349551 -440.40233994 994.85017776 C-492.26090434 934.8048796 -532.34046828 865.40114559 -557.55077744 790.13142776 C-557.93185654 788.9962471 -558.31293564 787.86106644 -558.70556259 786.69148636 C-570.90053859 749.92989489 -578.86155465 712.13739374 -583.80077744 673.75642776 C-583.95200058 672.59586868 -584.10322372 671.4353096 -584.25902939 670.23958206 C-587.08018842 646.95187803 -587.93074946 623.63463269 -587.86327744 600.19392776 C-587.86135057 598.85418586 -587.85951039 597.51444383 -587.85775375 596.17470169 C-587.81692092 574.70507343 -587.13390793 553.45392794 -584.55077744 532.13142776 C-584.46592087 531.41841507 -584.3810643 530.70540237 -584.29363632 529.97078323 C-580.32194202 496.81031724 -573.78358429 464.227283 -564.55077744 432.13142776 C-564.24059677 431.04136429 -563.93041611 429.95130081 -563.61083603 428.82820511 C-555.54166007 400.7205044 -544.87038372 373.63285964 -532.55077744 347.13142776 C-532.06109482 346.0684346 -531.5714122 345.00544144 -531.06689072 343.91023636 C-524.37702555 329.43427689 -517.06263071 315.44639052 -509.02782822 301.67244339 C-507.71442231 299.41295105 -506.42281505 297.14309175 -505.14062119 294.86580276 C-493.50121125 274.37585136 -479.8477764 254.84030342 -465.55077744 236.13142776 C-465.06560654 235.49463089 -464.58043564 234.85783401 -464.08056259 234.20174026 C-457.22161616 225.2361681 -449.9648531 216.64066912 -442.55077744 208.13142776 C-441.8920665 207.37088089 -441.23335556 206.61033401 -440.55468369 205.82674026 C-438.89638603 203.91950648 -437.2269338 202.02297806 -435.55077744 200.13142776 C-434.93718369 199.43662308 -434.32358994 198.74181839 -433.69140244 198.02595901 C-431.33048033 195.37657838 -428.94731808 192.74854353 -426.55077744 190.13142776 C-425.99245224 189.5212178 -425.43412704 188.91100784 -424.8588829 188.28230667 C-415.45760923 178.04923819 -405.70718596 168.3174328 -395.4814415 158.9092598 C-393.71346216 157.28123431 -391.95470714 155.64398628 -390.19921494 154.00252151 C-384.8130059 148.98495036 -379.30300461 144.17107619 -373.56640244 139.55720901 C-371.35435528 137.77782911 -369.15870904 135.98512224 -366.97265244 134.17439651 C-307.39214235 84.96623256 -237.99129979 48.90109552 -164.45537949 25.73372269 C-162.73499948 25.18968456 -161.01746239 24.63667627 -159.30028915 24.08259964 C-119.74423511 11.36412346 -77.84894622 4.6494658 -36.55077744 1.13142776 C-35.50259837 1.04213405 -34.45441931 0.95284034 -33.37447725 0.86084075 C-22.24689908 0.01727722 -11.15502432 -0.01042067 0 0 Z " fill="#FE7161" transform="translate(587.5507774353027,-0.13142776489257813)"/>
<path d="M0 0 C2.6217449 -0.00043794 5.24348975 -0.0013158 7.86523438 -0.00259399 C13.55457248 -0.00466212 19.24390007 -0.00304109 24.93323696 0.00103939 C33.50280543 0.00716533 42.0723676 0.00740719 50.64193787 0.00657409 C65.00609574 0.00533458 79.37024902 0.00861473 93.73440552 0.01467896 C113.156684 0.02286409 132.57895465 0.02478273 152.00123596 0.02565002 C198.68902172 0.03089863 245.37680618 0.04485977 292.06459045 0.05775452 C396.36521545 0.07837952 500.66584045 0.09900452 608.12709045 0.12025452 C608.12709045 396.12025452 608.12709045 792.12025452 608.12709045 1200.12025452 C453.84177795 1200.18212952 453.84177795 1200.18212952 296.43959045 1200.24525452 C263.96979797 1200.26346252 231.50000549 1200.28167053 198.04627991 1200.3004303 C158.37745666 1200.3094635 158.37745666 1200.3094635 139.80303955 1200.31114197 C125.98639876 1200.31312661 112.16977769 1200.32173321 98.35314242 1200.33360137 C84.23831758 1200.34556069 70.12350506 1200.34991557 56.00867535 1200.34714442 C47.63502205 1200.34571851 39.26141494 1200.34959813 30.88777027 1200.36186971 C24.67686617 1200.37034712 18.4660062 1200.36813797 12.25510025 1200.36205673 C9.7656372 1200.36121777 7.27617002 1200.36367375 4.78671491 1200.37001967 C-18.34494807 1200.42545404 -41.41528993 1199.22640469 -64.37290955 1196.30775452 C-65.0453772 1196.22377411 -65.71784485 1196.1397937 -66.41069031 1196.05326843 C-157.99838975 1184.57060373 -246.15117936 1152.38739588 -371.14048767 1065.54847717 C-373.61601832 1063.50762961 -376.12289169 1061.50598316 -378.62290955 1059.49525452 C-383.53992749 1055.47291201 -388.20676745 1051.2218638 -392.8533783 1046.89369202 C-395.06166755 1044.84263017 -397.32118295 1042.86313291 -399.60435486 1040.89588928 C-403.61982525 1037.38720971 -407.42596 1033.71240667 -411.1893158 1029.93666077 C-411.84947189 1029.2774614 -412.50962799 1028.61826202 -413.18978882 1027.93908691 C-414.5732646 1026.55628617 -415.95550038 1025.17224376 -417.33653259 1023.78700256 C-419.43022624 1021.68795109 -421.52920829 1019.59429512 -423.62876892 1017.50111389 C-424.98260525 1016.14661666 -426.3361313 1014.7918092 -427.6893158 1013.43666077 C-428.30617752 1012.82182327 -428.92303925 1012.20698578 -429.55859375 1011.57351685 C-433.85920501 1007.25009493 -437.90059703 1002.74572481 -441.87290955 998.12025452 C-442.82300845 997.02613799 -443.77345405 995.93232226 -444.72447205 994.83900452 C-496.58303645 934.79370635 -536.66260039 865.38997234 -561.87290955 790.12025452 C-562.25398865 788.98507385 -562.63506775 787.84989319 -563.0276947 786.68031311 C-575.2226707 749.91872164 -583.18368676 712.12622049 -588.12290955 673.74525452 C-588.27413269 672.58469543 -588.42535583 671.42413635 -588.5811615 670.22840881 C-591.40232053 646.94070478 -592.25288157 623.62345944 -592.18540955 600.18275452 C-592.18348268 598.84301261 -592.1816425 597.50327058 -592.17988586 596.16352844 C-592.13905303 574.69390018 -591.45604004 553.44275469 -588.87290955 532.12025452 C-588.78805298 531.40724182 -588.70319641 530.69422913 -588.61576843 529.95960999 C-584.64407413 496.79914399 -578.1057164 464.21610975 -568.87290955 432.12025452 C-568.56272888 431.03019104 -568.25254822 429.94012756 -567.93296814 428.81703186 C-559.86379218 400.70933115 -549.19251584 373.62168639 -536.87290955 347.12025452 C-536.38322693 346.05726135 -535.89354431 344.99426819 -535.38902283 343.89906311 C-528.69915766 329.42310364 -521.38476282 315.43521727 -513.34996033 301.66127014 C-512.03655442 299.4017778 -510.74494716 297.1319185 -509.4627533 294.85462952 C-497.82334336 274.36467811 -484.16990851 254.82913017 -469.87290955 236.12025452 C-469.38773865 235.48345764 -468.90256775 234.84666077 -468.4026947 234.19056702 C-461.54374827 225.22499485 -454.28698521 216.62949588 -446.87290955 208.12025452 C-446.21419861 207.35970764 -445.55548767 206.59916077 -444.8768158 205.81556702 C-443.21851814 203.90833323 -441.54906591 202.01180481 -439.87290955 200.12025452 C-439.2593158 199.42544983 -438.64572205 198.73064514 -438.01353455 198.01478577 C-435.65261244 195.36540513 -433.26945019 192.73737028 -430.87290955 190.12025452 C-430.31458435 189.51004456 -429.75625916 188.89983459 -429.18101501 188.27113342 C-419.77974134 178.03806494 -410.02931807 168.30625955 -399.80357361 158.89808655 C-398.03559427 157.27006106 -396.27683925 155.63281303 -394.52134705 153.99134827 C-389.13513801 148.97377712 -383.62513672 144.15990294 -377.88853455 139.54603577 C-375.67648739 137.76665587 -373.48084115 135.97394899 -371.29478455 134.16322327 C-311.71427446 84.95505931 -242.3134319 48.88992227 -168.7775116 25.72254944 C-167.05713159 25.17851131 -165.33959451 24.62550302 -163.62242126 24.07142639 C-124.05990978 11.35087395 -82.17516737 4.65598732 -40.87290955 1.12025452 C-39.37585618 0.9861195 -39.37585618 0.9861195 -37.84855932 0.84927469 C-25.24360653 -0.14193059 -12.63637546 -0.01564553 0 0 Z " fill="#F14E1E" transform="translate(591.8729095458984,-0.1202545166015625)"/>
<path d="M0 0 C2.60178493 -0.00043674 5.20356982 -0.00131353 7.80535448 -0.00258917 C13.43429223 -0.00464825 19.06321933 -0.00304444 24.69215584 0.00104904 C33.06199627 0.00711872 41.43183008 0.00738165 49.80167231 0.00650705 C63.88546978 0.00519727 77.96926253 0.00851887 92.05305862 0.01452446 C105.98803353 0.02045129 119.92300648 0.02429238 133.85798264 0.02537727 C134.72598475 0.02544601 135.59398687 0.02551475 136.48829208 0.02558558 C140.89683899 0.02592393 145.30538589 0.02622531 149.7139328 0.02651245 C180.90038484 0.02861016 212.08683431 0.03533996 243.27328491 0.04481506 C273.56137071 0.05400657 303.84945581 0.06108671 334.13754272 0.06532288 C335.07194831 0.0654544 336.0063539 0.06558593 336.9690748 0.06572144 C346.35317339 0.06704001 355.73727199 0.06831582 365.12137059 0.0695603 C384.23608548 0.07209618 403.35080032 0.07491744 422.46551514 0.07791138 C423.78367064 0.07811731 423.78367064 0.07811731 425.12845555 0.07832741 C483.76299609 0.08752056 542.3975352 0.10338574 601.03207397 0.12025452 C601.08355354 60.16518544 601.13124347 120.21011887 601.15910339 180.25506592 C601.15972465 181.59059293 601.15972465 181.59059293 601.16035846 182.95310029 C601.16933964 202.30830313 601.17764983 221.6635062 601.18526996 241.01870962 C601.18901159 250.51211201 601.1929013 260.00551433 601.1968689 269.49891663 C601.19726117 270.44356517 601.19765345 271.38821371 601.19805762 272.36148797 C601.21081484 302.91550363 601.2333286 333.46950251 601.26096564 364.02350803 C601.28934218 395.45255545 601.3077485 426.8815936 601.31381894 458.31065361 C601.31468326 462.76176132 601.31566017 467.212869 601.3167057 471.66397667 C601.31690797 472.53991742 601.31711024 473.41585817 601.31731864 474.31834258 C601.3208476 488.3519241 601.33471767 502.38547677 601.35257008 516.41904658 C601.37034423 530.56787813 601.37695006 544.71668143 601.37257811 558.86552373 C601.37051372 566.51527216 601.37314201 574.16494345 601.3896904 581.81467628 C601.51362808 641.38075777 601.51362808 641.38075777 598.03207397 670.12025452 C597.91012645 671.15235192 597.78817893 672.18444932 597.66253603 673.2478224 C596.99262718 678.84891595 596.22299222 684.42317484 595.34457397 689.99525452 C595.15707581 691.2127388 595.15707581 691.2127388 594.96578979 692.45481873 C587.22429822 742.46425417 573.55536937 791.81289576 553.03207397 838.12025452 C552.59927124 839.09865295 552.16646851 840.07705139 551.72055054 841.08509827 C541.14059678 864.85714921 529.52065284 887.86194467 516.03207397 910.12025452 C515.41396851 911.14215881 514.79586304 912.16406311 514.1590271 913.2169342 C506.49562045 925.82715289 498.50232106 938.06784947 489.68099976 949.89759827 C487.9351461 952.25090767 486.21426225 954.62107142 484.49691772 956.99525452 C478.45125678 965.32817409 472.28339591 973.4479068 465.53207397 981.22181702 C463.19411106 983.93239277 460.95143535 986.69722242 458.71957397 989.49525452 C453.87818583 995.44920583 448.62893489 1000.99294755 443.36410522 1006.56947327 C440.75937333 1009.33105548 438.22336656 1012.14141714 435.71957397 1014.99525452 C431.46155521 1019.75751235 426.97750185 1024.28383248 422.46957397 1028.80775452 C421.7608313 1029.52108948 421.05208862 1030.23442444 420.3218689 1030.96937561 C416.30011744 1034.97947251 412.17992641 1038.81081815 407.87850952 1042.51893616 C405.2668484 1044.78389521 402.7492088 1047.13897928 400.21957397 1049.49525452 C395.62782717 1053.73211869 390.92253283 1057.77431334 386.05160522 1061.69056702 C383.82540238 1063.48189712 381.61719281 1065.28763754 379.41879272 1067.11244202 C370.34585788 1074.61655324 361.01671983 1081.65183121 351.40023804 1088.4434967 C348.97512352 1090.16057779 346.56191107 1091.89352616 344.14926147 1093.62806702 C333.52027182 1101.22378122 322.64648532 1108.18189827 311.35922241 1114.7559967 C309.20884307 1116.01662614 307.07501174 1117.30029964 304.94613647 1118.59681702 C292.00038401 1126.43848083 278.53995897 1133.30607277 265.03207397 1140.12025452 C263.67106567 1140.80885559 263.67106567 1140.80885559 262.28256226 1141.5113678 C191.09956773 1177.24723853 107.39343138 1199.12263438 19.92269897 1200.32337952 C18.51471425 1200.33040209 17.10672984 1200.3374889 15.69874573 1200.34463501 C11.22651711 1200.36402526 6.75434039 1200.36906887 2.28207397 1200.37025452 C1.52007313 1200.37069637 0.75807228 1200.37113823 -0.0270195 1200.37159348 C-22.81361501 1200.37852337 -45.33911706 1200.06372269 -67.96792603 1197.12025452 C-69.38317276 1196.9459551 -70.79854178 1196.77264629 -72.21401978 1196.60023499 C-158.25030934 1186.018145 -241.572705 1157.03326018 -362.96792603 1078.12025452 C-363.93109741 1077.38452209 -363.93109741 1077.38452209 -364.91372681 1076.63392639 C-376.23628069 1067.94473077 -387.13563148 1058.77700943 -397.69448853 1049.17494202 C-399.82337911 1047.25089313 -401.98211745 1045.36879639 -404.15542603 1043.49525452 C-407.31345311 1040.74859369 -410.25901728 1037.85109358 -413.19058228 1034.86634827 C-415.03386176 1033.05547809 -416.94615402 1031.36704098 -418.90542603 1029.68275452 C-425.18958461 1024.24780655 -430.84138649 1018.34908622 -436.25308228 1012.05384827 C-437.92796902 1010.16530855 -439.66740189 1008.38869804 -441.46792603 1006.62025452 C-445.17988307 1002.95757124 -448.58405257 999.08573122 -451.96792603 995.12025452 C-452.79292603 994.16119202 -453.61792603 993.20212952 -454.46792603 992.21400452 C-461.19810848 984.3568569 -467.65940256 976.31872404 -473.96792603 968.12025452 C-474.51400513 967.41610413 -475.06008423 966.71195374 -475.62271118 965.98646545 C-491.54813777 945.39917529 -506.0085296 923.69281516 -518.96792603 901.12025452 C-519.38944946 900.38613342 -519.8109729 899.65201233 -520.24526978 898.89564514 C-523.2243207 893.67534562 -526.11221378 888.40884901 -528.96792603 883.12025452 C-529.6555603 881.8556842 -529.6555603 881.8556842 -530.35708618 880.56556702 C-544.04271863 855.29693397 -555.27921675 829.15798589 -564.96792603 802.12025452 C-565.35931763 801.03131897 -565.75070923 799.94238342 -566.15396118 798.82044983 C-581.19082334 756.52246774 -590.66848531 712.64914163 -595.96792603 668.12025452 C-596.05149353 667.43044495 -596.13506104 666.74063538 -596.22116089 666.02992249 C-601.45270655 622.40056214 -601.17247535 576.73610896 -595.96792603 533.12025452 C-595.88306946 532.39028259 -595.79821289 531.66031067 -595.71078491 530.90821838 C-593.05033844 508.05938741 -589.1317185 485.53516016 -583.96792603 463.12025452 C-583.81859619 462.47201721 -583.66926636 461.82377991 -583.51541138 461.15589905 C-573.87428414 419.61278783 -559.4472783 379.53450372 -540.96792603 341.12025452 C-540.16765991 339.4539801 -540.16765991 339.4539801 -539.35122681 337.75404358 C-519.13048195 295.9119828 -494.04560306 256.64792952 -464.39614868 220.85267639 C-462.35530112 218.37714575 -460.35365467 215.87027237 -458.34292603 213.37025452 C-454.32058352 208.45323657 -450.06953531 203.78639661 -445.74136353 199.13978577 C-443.69030168 196.93149651 -441.71080442 194.67198111 -439.74356079 192.3888092 C-436.23488121 188.37333881 -432.56007818 184.56720406 -428.78433228 180.80384827 C-428.1251329 180.14369217 -427.46593353 179.48353607 -426.78675842 178.80337524 C-425.40395768 177.41989946 -424.01991527 176.03766368 -422.63467407 174.65663147 C-420.5356226 172.56293782 -418.44196663 170.46395577 -416.3487854 168.36439514 C-414.99428817 167.01055881 -413.63948071 165.65703276 -412.28433228 164.30384827 C-411.66949478 163.68698654 -411.05465729 163.07012482 -410.42118835 162.43457031 C-406.09776644 158.13395905 -401.59339631 154.09256703 -396.96792603 150.12025452 C-395.87380949 149.17015561 -394.77999377 148.21971001 -393.68667603 147.26869202 C-374.2478491 130.48020584 -354.07252752 115.08124216 -332.71792603 100.80775452 C-332.09665833 100.39145782 -331.47539062 99.97516113 -330.83529663 99.54624939 C-321.7123532 93.44493604 -312.418869 87.69822798 -302.96792603 82.12025452 C-302.10957153 81.60680481 -301.25121704 81.0933551 -300.36685181 80.56434631 C-233.95637988 40.9230426 -158.44745621 15.69834201 0 0 Z " fill="#0ACE83" transform="translate(598.9679260253906,2398.8797454833984)"/>
<path d="M0 0 C3.44219086 0.00461376 6.88402684 -0.00224123 10.32617188 -0.02050781 C95.64644129 -0.46883383 180.39896724 17.91896215 257.74975586 54.14575195 C259.48410971 54.95737536 261.22130241 55.76294922 262.96069336 56.5637207 C276.93513232 62.99931759 290.39494169 70.09070276 303.68969727 77.83129883 C305.92260959 79.12598764 308.16584709 80.39815192 310.41772461 81.65942383 C336.01327303 96.14162037 360.73281928 113.42705878 383.24975586 132.31567383 C385.10307009 133.81672692 386.95725318 135.31670782 388.81225586 136.81567383 C393.30466655 140.4889555 397.63942266 144.30346209 401.92944336 148.21020508 C403.9512977 150.04485068 405.99654108 151.84336169 408.06225586 153.62817383 C417.39586756 161.79508406 426.34169337 170.31063968 435.12475586 179.06567383 C436.31935425 180.25338379 436.31935425 180.25338379 437.53808594 181.46508789 C441.74550087 185.6835297 445.79088653 189.98174878 449.67700195 194.49780273 C451.93009565 197.10204609 454.2776035 199.60833308 456.62475586 202.12817383 C461.73975792 207.6722721 466.53700307 213.42473285 471.24975586 219.31567383 C472.16051605 220.43473196 473.07201062 221.55319271 473.98413086 222.67114258 C496.89496263 250.86465312 517.09064189 281.2957747 534.24975586 313.31567383 C534.93521484 314.58604492 534.93521484 314.58604492 535.63452148 315.88208008 C571.90634579 383.32116884 594.20901515 456.35027602 603.24975586 532.31567383 C603.33332336 533.0054834 603.41689087 533.69529297 603.50299072 534.40600586 C608.73082323 578.00439973 608.52950081 623.73391796 603.24975586 667.31567383 C603.16489929 668.02868652 603.08004272 668.74169922 602.99261475 669.47631836 C594.89651403 737.07227415 575.81298208 801.98841401 546.24975586 863.31567383 C545.80776855 864.23815918 545.36578125 865.16064453 544.91040039 866.11108398 C524.86111258 907.7832273 498.8269178 946.81356916 469.24975586 982.31567383 C468.53674316 983.17733154 468.53674316 983.17733154 467.80932617 984.05639648 C461.87284444 991.22462548 455.7250755 998.15576857 449.36694336 1004.95239258 C446.87187075 1007.62197485 444.44086343 1010.34406091 442.01147461 1013.07348633 C437.23686405 1018.38876013 432.25012178 1023.46354983 427.18725586 1028.50317383 C426.34098633 1029.35331055 425.4947168 1030.20344727 424.62280273 1031.0793457 C420.21347063 1035.48187853 415.73848775 1039.73768242 411.01220703 1043.79833984 C408.60200315 1045.87333875 406.27319362 1048.03274688 403.93725586 1050.19067383 C399.50479112 1054.22846705 394.97233409 1058.08874817 390.30444336 1061.85083008 C388.06664006 1063.65652558 385.84493687 1065.47546695 383.63256836 1067.31176758 C354.24765054 1091.61781071 321.74012645 1112.17682503 288.24975586 1130.31567383 C287.47148437 1130.74170898 286.69321289 1131.16774414 285.89135742 1131.60668945 C212.45909249 1171.69304516 128.57613545 1194.07146603 45.24975586 1199.31567383 C44.44489746 1199.37207031 43.64003906 1199.4284668 42.81079102 1199.48657227 C-32.11192131 1204.67057979 -108.39340061 1194.30832393 -179.75024414 1171.31567383 C-180.85770996 1170.95892578 -181.96517578 1170.60217773 -183.10620117 1170.23461914 C-241.0811593 1151.32767323 -298.86314796 1123.09836504 -347.13208008 1085.55737305 C-349.46158664 1083.76982471 -351.85559903 1082.07702972 -354.25024414 1080.37817383 C-361.02375104 1075.48166281 -367.44044793 1070.14288468 -373.89331055 1064.83618164 C-375.50772923 1063.51425165 -377.13384879 1062.20663664 -378.76196289 1060.90161133 C-384.37973899 1056.39098818 -389.73272022 1051.6654123 -394.98535156 1046.73925781 C-397.69502855 1044.19858355 -400.43622265 1041.72622848 -403.26586914 1039.31958008 C-409.08890647 1034.24918023 -414.48449347 1028.73031286 -419.93212891 1023.26416016 C-421.80853889 1021.38239109 -423.69023383 1019.50602645 -425.57250977 1017.63012695 C-431.51160384 1011.69467191 -437.33890294 1005.74306662 -442.75024414 999.31567383 C-443.77145865 998.14706082 -444.79489799 996.98038828 -445.82055664 995.81567383 C-471.90898044 965.98341104 -495.06774932 933.73565238 -514.75024414 899.31567383 C-515.17418457 898.57526855 -515.598125 897.83486328 -516.03491211 897.07202148 C-518.57613573 892.6100263 -521.06127535 888.12018401 -523.50708008 883.60522461 C-524.33540966 882.07967967 -525.16939951 880.55719446 -526.0090332 879.0378418 C-540.03095203 853.63046714 -551.19491177 826.68434121 -560.75024414 799.31567383 C-561.12310547 798.27056641 -561.4959668 797.22545898 -561.88012695 796.14868164 C-575.41877383 758.1115309 -584.22301908 718.67051997 -589.56274414 678.69067383 C-589.66229401 677.95316895 -589.76184387 677.21566406 -589.8644104 676.45581055 C-593.13245066 651.89123079 -594.13024662 627.38590135 -594.06830215 602.63445282 C-594.06265747 600.34299143 -594.05983981 598.05153746 -594.05722046 595.7600708 C-594.02074322 573.80863606 -593.59765279 552.11432323 -590.75024414 530.31567383 C-590.5758563 528.90190296 -590.40255136 527.48799818 -590.23022461 526.07397461 C-582.56512128 463.7577645 -565.22688895 403.60941778 -538.82983398 346.64672852 C-538.1098016 345.09203172 -537.39397965 343.53537804 -536.68237305 341.97680664 C-516.70647699 298.22877297 -489.8263968 257.04767277 -459.17407227 220.04370117 C-457.88960537 218.48480942 -456.62345477 216.91086944 -455.35961914 215.33520508 C-450.84281694 209.70544982 -446.10897716 204.3427884 -441.17382812 199.08056641 C-438.63315386 196.37088942 -436.16079879 193.62969532 -433.75415039 190.80004883 C-428.68375054 184.9770115 -423.16488317 179.5814245 -417.69873047 174.13378906 C-415.8169614 172.25737908 -413.94059676 170.37568414 -412.06469727 168.4934082 C-406.12764554 162.55311101 -400.16276309 156.74685742 -393.75024414 151.31567383 C-392.20543154 149.90243833 -390.66329089 148.48626974 -389.12524414 147.06567383 C-384.00494234 142.4408851 -378.62011299 138.21719441 -373.17211914 133.99145508 C-370.25059063 131.72139199 -367.40014597 129.3779558 -364.56274414 127.00317383 C-350.04343 115.09097741 -334.51311046 104.49842676 -318.75024414 94.31567383 C-317.92363281 93.78119629 -317.09702148 93.24671875 -316.24536133 92.69604492 C-243.45942949 45.95027953 -160.82232725 16.64427407 -75.31274414 4.56567383 C-74.25295349 4.41396225 -74.25295349 4.41396225 -73.17175293 4.25918579 C-68.039683 3.53230003 -62.90079286 2.89671791 -57.75024414 2.31567383 C-56.52321274 2.17423447 -56.52321274 2.17423447 -55.27139282 2.02993774 C-36.87799756 -0.00992028 -18.48064398 -0.0267647 0 0 Z " fill="#19BCFE" transform="translate(1793.750244140625,1199.684326171875)"/>
</svg>
