<?xml version="1.0" encoding="UTF-8"?>
<svg version="1.1" xmlns="http://www.w3.org/2000/svg" width="2400" height="2400">
<path d="M0 0 C792 0 1584 0 2400 0 C2400 792 2400 1584 2400 2400 C1608 2400 816 2400 0 2400 C0 1608 0 816 0 0 Z " fill="#F6DE1D" transform="translate(0,0)"/>
<path d="M0 0 C1.5595491 -0.00101212 1.5595491 -0.00101212 3.15060425 -0.00204468 C63.01537667 0.05902959 124.45876291 9.30699577 178.125 37.25 C178.83881836 37.62060547 179.55263672 37.99121094 180.28808594 38.37304688 C216.65413722 57.46959281 250.80793779 84.80628445 276.125 117.25 C277.70511808 119.10690747 279.28864866 120.96091476 280.875 122.8125 C291.6585043 135.76605935 300.94916029 149.73293845 309.77783203 164.06835938 C311.05799148 166.14148457 312.35229219 168.20493241 313.65234375 170.265625 C314.39353708 171.44772365 315.13444398 172.63000198 315.875 173.8125 C316.50921875 174.82441406 317.1434375 175.83632812 317.796875 176.87890625 C319.125 179.25 319.125 179.25 319.125 181.25 C317.37524414 182.58764648 317.37524414 182.58764648 314.91015625 184.12109375 C313.55277344 184.97380859 313.55277344 184.97380859 312.16796875 185.84375 C311.18441406 186.4521875 310.20085938 187.060625 309.1875 187.6875 C307.14677698 188.96687635 305.10641555 190.24682965 303.06640625 191.52734375 C302.0520752 192.16140137 301.03774414 192.79545898 299.99267578 193.44873047 C296.17841872 195.84457489 292.3987817 198.29109255 288.625 200.75 C282.14984682 204.95607573 275.64281362 209.11037551 269.125 213.25 C261.99844847 217.77671043 254.89011981 222.32900117 247.80859375 226.92578125 C241.43156284 231.06126182 235.02896694 235.15638839 228.625 239.25 C221.61344415 243.73234463 214.60628778 248.22063874 207.625 252.75 C200.80802473 257.17148212 193.96952195 261.55879125 187.125 265.9375 C185.55455933 266.9423645 185.55455933 266.9423645 183.95239258 267.9675293 C178.92457857 271.18357348 173.89530695 274.39730606 168.86276245 277.60594177 C167.12758707 278.71245771 165.39282741 279.81962233 163.65820312 280.92700195 C161.47155114 282.32269992 159.28408496 283.71712333 157.09570312 285.11010742 C156.10892578 285.74021729 155.12214844 286.37032715 154.10546875 287.01953125 C153.23817139 287.57229736 152.37087402 288.12506348 151.47729492 288.69458008 C149.11070254 290.2159821 149.11070254 290.2159821 146.9387207 291.9519043 C145.125 293.25 145.125 293.25 143.125 293.25 C141.95507812 291.63623047 141.95507812 291.63623047 140.65625 289.3671875 C140.1725293 288.53622559 139.68880859 287.70526367 139.19042969 286.84912109 C138.67383789 285.95016113 138.15724609 285.05120117 137.625 284.125 C128.07091804 267.85311418 116.9932746 253.07560299 104.125 239.25 C103.46242188 238.52167969 102.79984375 237.79335937 102.1171875 237.04296875 C79.44197248 213.11759929 46.25125487 198.93605824 13.44166565 197.991745 C9.35686297 197.90643861 5.27312045 197.87942062 1.1875 197.875 C0.01189011 197.87187302 0.01189011 197.87187302 -1.18746948 197.86868286 C-29.08996275 197.87708888 -55.08459622 204.10236889 -76.875 222.25 C-77.59945313 222.81203125 -78.32390625 223.3740625 -79.0703125 223.953125 C-94.10028216 236.09498284 -105.05082481 257.3289048 -107.48828125 276.41796875 C-110.23161389 305.12968206 -107.33498488 333.586199 -89.3125 357.125 C-53.43730547 399.99857529 5.88481633 420.21263657 56.00537109 441.49951172 C84.5891178 453.63976288 113.01033267 466.05478201 141.125 479.25 C142.10549316 479.70793945 143.08598633 480.16587891 144.09619141 480.63769531 C156.63278997 486.49583716 168.96206307 492.6504683 181.125 499.25 C182.13836426 499.79785156 183.15172852 500.34570312 184.19580078 500.91015625 C218.97012522 519.77150939 252.35782044 541.0705232 282.125 567.25 C283.04925781 568.06210938 283.97351562 568.87421875 284.92578125 569.7109375 C298.14432068 581.59482495 311.41003029 594.02357018 322.125 608.25 C323.04862263 609.43426227 323.97317138 610.61780259 324.8984375 611.80078125 C376.63925259 678.60495161 393.60858405 767.58493538 383.48876953 850.54931641 C382.32681759 859.17583481 380.82054739 867.71379591 379.125 876.25 C378.94066406 877.20648437 378.75632812 878.16296875 378.56640625 879.1484375 C371.17272934 917.18763045 355.6605869 953.69722673 333.125 985.25 C332.64063477 985.93642578 332.15626953 986.62285156 331.65722656 987.33007812 C325.1483578 996.50423516 318.05767632 1004.84751036 310.25390625 1012.9453125 C308.22128652 1015.05677324 306.29572128 1017.20706044 304.44140625 1019.4765625 C302.54666389 1021.74514104 300.75351168 1023.6138008 298.5 1025.5 C295.31029407 1028.21036237 292.24067574 1031.01177905 289.1875 1033.875 C272.61755774 1048.95525174 253.81681032 1061.05540025 234.34423828 1072.00097656 C232.97216116 1072.7732039 231.60276125 1073.55023661 230.23779297 1074.33496094 C206.74518629 1087.83645903 180.25252253 1097.46105734 154.18164062 1104.67333984 C152.09876956 1105.25735474 150.02599862 1105.86979361 147.953125 1106.48828125 C123.92846798 1113.56597098 99.19501752 1117.00805285 74.38555908 1119.97857666 C72.25628774 1120.2342364 70.12790959 1120.49646536 67.99951172 1120.75927734 C31.55000374 1125.1173216 -6.39256577 1125.20169594 -42.875 1121.25 C-44.22279172 1121.1087888 -45.57061232 1120.96785294 -46.91845703 1120.82714844 C-72.59110127 1118.12016894 -97.79873904 1114.38177773 -122.84619141 1108.01464844 C-125.74062704 1107.28392359 -128.64041535 1106.5804784 -131.54296875 1105.8828125 C-156.49544537 1099.7757004 -180.46598221 1090.76245197 -203.875 1080.25 C-205.34743164 1079.59112793 -205.34743164 1079.59112793 -206.84960938 1078.91894531 C-251.10536415 1058.92530392 -291.10907873 1030.20664718 -325.38891602 995.92138672 C-326.93423066 994.3782647 -328.48740446 992.84335694 -330.04101562 991.30859375 C-336.43871401 984.94640214 -342.24800885 978.31448065 -347.875 971.25 C-348.80977963 970.14817193 -349.75112622 969.05182875 -350.703125 967.96484375 C-368.61878338 947.41962906 -382.75067811 924.05577577 -395.875 900.25 C-396.50277344 899.12207031 -397.13054687 897.99414062 -397.77734375 896.83203125 C-398.875 894.25 -398.875 894.25 -397.875 891.25 C-395.60375977 889.67871094 -395.60375977 889.67871094 -392.56640625 887.984375 C-391.44008789 887.34935059 -390.31376953 886.71432617 -389.15332031 886.06005859 C-387.91472649 885.37334904 -386.67611937 884.68666348 -385.4375 884 C-384.16314911 883.28441178 -382.88939317 882.5677631 -381.61621094 881.85009766 C-378.99025639 880.37044118 -376.36226065 878.89451092 -373.73291016 877.42089844 C-368.00274047 874.20337862 -362.31364549 870.91529972 -356.625 867.625 C-355.55709229 867.00850586 -354.48918457 866.39201172 -353.38891602 865.75683594 C-345.21448684 861.03468713 -337.05968056 856.2793043 -328.90869141 851.5168457 C-316.16493861 844.07550505 -303.37176949 836.71980106 -290.58398438 829.35449219 C-279.98851914 823.25092502 -269.39371512 817.14677219 -258.83544922 810.97900391 C-256.87703217 809.83522117 -254.91773504 808.69294389 -252.95751953 807.55224609 C-248.14435173 804.75062294 -243.33973642 801.93628407 -238.55505371 799.08633423 C-236.16393113 797.66476656 -233.76703079 796.25313298 -231.36914062 794.84301758 C-229.6576006 793.83176192 -227.95370875 792.80759745 -226.25 791.78320312 C-225.21359375 791.17541016 -224.1771875 790.56761719 -223.109375 789.94140625 C-222.19381836 789.39685791 -221.27826172 788.85230957 -220.33496094 788.29125977 C-217.875 787.25 -217.875 787.25 -215.70556641 787.35766602 C-213.37092399 788.49571857 -212.6611867 789.60199913 -211.3515625 791.8359375 C-210.89515381 792.59245605 -210.43874512 793.34897461 -209.96850586 794.12841797 C-209.48389893 794.95229004 -208.99929199 795.77616211 -208.5 796.625 C-199.23231633 811.81863367 -188.60767232 825.88244711 -176.875 839.25 C-176.25367188 839.97058594 -175.63234375 840.69117188 -174.9921875 841.43359375 C-173.30216855 843.38694123 -171.59241082 845.32070083 -169.875 847.25 C-169.09382813 848.13558594 -168.31265625 849.02117188 -167.5078125 849.93359375 C-162.572635 855.46129256 -157.5614021 860.51133158 -151.875 865.25 C-150.49441406 866.46236328 -150.49441406 866.46236328 -149.0859375 867.69921875 C-99.66006511 910.92918817 -37.5503907 925.39770734 26.88037109 922.109375 C30.95887006 921.80707312 34.97002514 921.28568671 39.00439453 920.60058594 C41.46512163 920.1937699 43.93222995 919.85296973 46.40234375 919.5078125 C66.73876984 916.50248074 86.21620173 910.4329447 104.125 900.25 C105.27226563 899.60160156 106.41953125 898.95320313 107.6015625 898.28515625 C115.00765331 893.90567632 121.68589654 888.95118422 128.125 883.25 C128.83269531 882.62609375 129.54039062 882.0021875 130.26953125 881.359375 C145.46353091 867.09439701 157.38413684 844.15685113 158.24975586 823.23461914 C158.57374546 808.97403007 158.80838385 795.10571962 155.125 781.25 C154.93164062 780.38761719 154.73828125 779.52523437 154.5390625 778.63671875 C146.9495049 748.52490257 120.86843376 726.35847823 95.39575195 711.0715332 C91.34881072 708.7162926 87.24832483 706.4683056 83.125 704.25 C82.14063965 703.71938965 81.1562793 703.1887793 80.14208984 702.64208984 C41.64440196 682.02873326 1.31416942 665.09440431 -38.85339355 648.05667114 C-109.72257441 617.98781292 -180.00062879 585.42020592 -236.875 532.25 C-237.92633494 531.29851068 -238.97976126 530.34932764 -240.03515625 529.40234375 C-245.03696844 524.90571844 -249.87525622 520.40064829 -254.19921875 515.23046875 C-255.35239989 513.86761832 -256.54557686 512.53794416 -257.76953125 511.23828125 C-282.69524463 484.74025942 -300.27180306 452.10639715 -312.875 418.25 C-313.21160645 417.35023438 -313.54821289 416.45046875 -313.89501953 415.5234375 C-321.47407816 394.95004207 -325.5745947 373.64361638 -328.6875 352 C-328.79282043 351.27286804 -328.89814087 350.54573608 -329.00665283 349.79656982 C-335.01343593 307.8180633 -334.09338517 262.32411323 -322.875 221.25 C-322.45758545 219.71956055 -322.45758545 219.71956055 -322.03173828 218.15820312 C-313.46900261 187.46387537 -300.73253203 157.10848913 -281.875 131.25 C-281.41270996 130.60804688 -280.95041992 129.96609375 -280.47412109 129.3046875 C-270.38939199 115.35105898 -259.44268654 102.65745269 -247.3125 90.4375 C-246.45019775 89.56585205 -245.58789551 88.6942041 -244.69946289 87.79614258 C-238.73398011 81.8600325 -232.47717836 76.46446341 -225.875 71.25 C-225.22152588 70.72656006 -224.56805176 70.20312012 -223.89477539 69.66381836 C-207.90554034 56.96208958 -190.36687266 45.77610452 -171.83544922 37.17578125 C-169.7576304 36.19457465 -167.70947796 35.1643288 -165.66015625 34.125 C-114.46292787 8.50678289 -56.67032319 0.0335324 0 0 Z " fill="#000000" transform="translate(1827.875,1088.75)"/>
<path d="M0 0 C74.25 0 148.5 0 225 0 C225.02013078 92.31078349 225.02013078 92.31078349 225.02565002 120.8754425 C225.02584736 121.89417995 225.02604469 122.91291739 225.02624801 123.96252566 C225.03287396 158.261694 225.03812427 192.56086241 225.04234314 226.86003113 C225.0424812 227.97955913 225.04261925 229.09908713 225.04276149 230.25254022 C225.04575453 254.58397542 225.04852469 278.91541064 225.05106533 303.24684589 C225.05231265 315.17929375 225.0536092 327.1117416 225.05493164 339.04418945 C225.05512778 340.825305 225.05512778 340.825305 225.05532788 342.64240267 C225.05958783 381.11703795 225.06709809 419.59167175 225.07629722 458.06630614 C225.08573478 497.61005436 225.0918866 537.15380177 225.09391499 576.6975511 C225.09420314 582.28518572 225.09452877 587.87282033 225.09487724 593.46045494 C225.09494467 594.56016169 225.09501209 595.65986843 225.09508156 596.79289962 C225.09626243 614.48201324 225.10089821 632.17112434 225.10683203 649.86023694 C225.11272625 667.65170102 225.11496623 685.44316262 225.11350138 703.23462764 C225.11274187 713.7996672 225.11475897 724.36469762 225.12079754 734.92973552 C225.12455989 741.99634475 225.12465491 749.06294802 225.12183181 756.12955767 C225.12032871 760.15010444 225.12035935 764.170634 225.12488318 768.1911789 C225.16719159 808.14837531 225.16719159 808.14837531 222.6875 826.6875 C222.55778809 827.68458984 222.42807617 828.68167969 222.29443359 829.70898438 C211.30968095 912.06235911 180.57866134 992.28485486 112.69921875 1044.2421875 C97.44395111 1055.71728056 81.38223471 1065.76887633 64.14404297 1073.97753906 C62.70217892 1074.66514173 61.26372701 1075.35994097 59.82861328 1076.06152344 C44.4082259 1083.57427947 28.33510321 1088.88964295 12 1094 C11.11538086 1094.27859863 10.23076172 1094.55719727 9.31933594 1094.84423828 C-13.44992629 1101.91006682 -37.38660406 1105.22136477 -61 1108 C-62.01304199 1108.12004395 -63.02608398 1108.24008789 -64.06982422 1108.36376953 C-112.05669096 1113.73656906 -163.85914046 1111.28683954 -210.6640625 1099.56738281 C-212.75958809 1099.05839436 -214.85475577 1098.6039902 -216.96875 1098.1796875 C-257.88620836 1089.61363423 -298.07273008 1071.15437867 -332 1047 C-332.80872559 1046.42572266 -333.61745117 1045.85144531 -334.45068359 1045.25976562 C-342.85084498 1039.26080845 -351.18818861 1033.2628197 -358.69921875 1026.16015625 C-360.6235109 1024.35347788 -362.58325274 1022.6354265 -364.5859375 1020.91796875 C-369.42196324 1016.70112511 -373.97310102 1012.21297899 -378.50854492 1007.67675781 C-379.92668284 1006.26080053 -381.35296665 1004.85301711 -382.77929688 1003.4453125 C-388.96215899 997.2753403 -394.57110354 990.83713644 -400 984 C-401.00041635 982.79137362 -402.00384386 981.58522623 -403.01171875 980.3828125 C-418.24793599 961.94439778 -430.4936323 941.37484317 -441.9375 920.4375 C-442.50605713 919.40133545 -443.07461426 918.3651709 -443.66040039 917.29760742 C-444.1939917 916.31123291 -444.72758301 915.3248584 -445.27734375 914.30859375 C-445.75421631 913.43001709 -446.23108887 912.55144043 -446.72241211 911.64624023 C-448.08541391 908.82308401 -449.06981566 905.99087515 -450 903 C-448.95380493 902.38294189 -448.95380493 902.38294189 -447.88647461 901.75341797 C-432.88673986 892.90059244 -417.94377931 883.96580922 -403.08251953 874.88183594 C-397.22752684 871.30744312 -391.36368392 867.74761115 -385.5 864.1875 C-384.5891716 863.63438644 -384.5891716 863.63438644 -383.65994263 863.07009888 C-377.28260151 859.1977942 -370.90226996 855.33098793 -364.5 851.5 C-357.58622672 847.36287445 -350.6987392 843.18273209 -343.8125 839 C-342.91318253 838.45378998 -342.91318253 838.45378998 -341.99569702 837.89654541 C-335.86760872 834.17435372 -329.74054714 830.45047526 -323.61439514 826.72509766 C-320.68072455 824.94124715 -317.74670259 823.15797528 -314.8125 821.375 C-314.23799103 821.02586548 -313.66348206 820.67673096 -313.07156372 820.3170166 C-303.45887345 814.47688254 -293.82226358 808.67763926 -284.16723633 802.90771484 C-283.20970459 802.3348877 -282.25217285 801.76206055 -281.265625 801.171875 C-280.36650391 800.63626953 -279.46738281 800.10066406 -278.54101562 799.54882812 C-275.51730957 797.70578516 -272.56984118 795.75831239 -269.64746094 793.75878906 C-268 793 -268 793 -265 794 C-263.50463867 796.15112305 -263.50463867 796.15112305 -261.91796875 799.01171875 C-261.02549438 800.59726563 -261.02549438 800.59726563 -260.11499023 802.21484375 C-259.47891846 803.36082031 -258.84284668 804.50679687 -258.1875 805.6875 C-256.83522941 808.08089051 -255.47328768 810.46869692 -254.109375 812.85546875 C-253.76474716 813.45942474 -253.42011932 814.06338074 -253.06504822 814.68563843 C-237.07590307 842.61167131 -217.57431208 871.36915198 -190 889 C-188.63101563 889.87785156 -188.63101563 889.87785156 -187.234375 890.7734375 C-157.21962928 909.15145026 -116.43274612 912.02672898 -82.41845703 904.59521484 C-57.79599607 898.53529562 -35.55642327 887.2670198 -22 865 C-17.13889365 856.46412873 -13.33934196 847.74136466 -10.1875 838.4375 C-9.90970703 837.62434326 -9.63191406 836.81118652 -9.34570312 835.97338867 C-5.41948918 823.8568154 -3.53700612 811.29574803 -2.33742046 798.65097713 C-2.27451508 797.99439286 -2.2116097 797.33780858 -2.14679809 796.6613278 C-0.7150527 781.41049117 -0.56519501 766.19353874 -0.59826221 750.88728804 C-0.60351715 746.86727997 -0.59108658 742.84731397 -0.58113068 738.82732004 C-0.56609496 731.81721706 -0.56181157 724.80717554 -0.56500816 717.79705811 C-0.56971031 707.37364876 -0.55709099 696.95030794 -0.54117843 686.5269122 C-0.51487554 668.98432774 -0.50223926 651.44175908 -0.49761391 633.89915657 C-0.49299416 616.55025264 -0.48216389 599.20137052 -0.46318626 581.85247612 C-0.46200614 580.77048387 -0.46082601 579.68849161 -0.45961012 578.57371172 C-0.45358402 573.07797421 -0.44744839 567.58223684 -0.44127061 562.0864995 C-0.39780267 523.24264931 -0.36803747 484.39879964 -0.34643555 445.55493164 C-0.32542861 407.83780128 -0.29814961 370.1206839 -0.26245117 332.40356445 C-0.26135169 331.23929004 -0.26025222 330.07501563 -0.25911942 328.87546017 C-0.24807031 317.18246954 -0.23689447 305.48947902 -0.2256258 293.79648859 C-0.2026767 269.98024742 -0.18057307 246.1640055 -0.15898132 222.34776306 C-0.1579877 221.25292671 -0.15699409 220.15809036 -0.15597036 219.03007715 C-0.12558257 185.49776075 -0.09877543 151.96544283 -0.07551575 118.43312073 C-0.07452383 117.00615003 -0.07452383 117.00615003 -0.07351188 115.55035164 C-0.04679259 77.03356919 -0.02387374 38.51678429 0 0 Z " fill="#000000" transform="translate(1081,1102)"/>
</svg>
