<?xml version="1.0" encoding="UTF-8"?>
<svg version="1.1" xmlns="http://www.w3.org/2000/svg" width="474" height="370">
<path d="M0 0 C156.42 0 312.84 0 474 0 C474 122.1 474 244.2 474 370 C317.58 370 161.16 370 0 370 C0 247.9 0 125.8 0 0 Z " fill="#000000" transform="translate(0,0)"/>
<path d="M0 0 C3.18518174 0.79629544 5.06663824 1.44292668 7.8203125 2.99609375 C8.52027344 3.38990234 9.22023438 3.78371094 9.94140625 4.18945312 C10.66199219 4.60130859 11.38257813 5.01316406 12.125 5.4375 C12.85332031 5.84548828 13.58164062 6.25347656 14.33203125 6.67382812 C19.73464152 9.73464152 19.73464152 9.73464152 22 12 C22.31393499 14.78244632 22.50302139 17.47417172 22.60791016 20.26660156 C22.64675323 21.12222687 22.68559631 21.97785217 22.72561646 22.85940552 C23.06398933 30.78344281 23.25685661 38.71291117 23.4077549 46.6425209 C23.51033906 51.96743295 23.65855886 57.28190071 23.92041016 62.6015625 C25.62566995 98.09123695 25.62566995 98.09123695 19.68933105 105.26586914 C14.11007902 110.21184434 7.93483862 112.84691207 0.86444092 115.00817871 C-1.94811151 115.98203345 -4.02347495 117.15853969 -6.46240234 118.84082031 C-9.69764014 120.99802986 -9.69764014 120.99802986 -12.62280273 121.01708984 C-15.55823112 119.76115941 -18.27403371 118.33405507 -21.03515625 116.7265625 C-22.17404297 116.0665625 -23.31292969 115.4065625 -24.48632812 114.7265625 C-25.07357666 114.38141602 -25.6608252 114.03626953 -26.26586914 113.68066406 C-28.0564459 112.62855727 -29.8527586 111.58687209 -31.65039062 110.546875 C-38.00031543 106.84844854 -38.00031543 106.84844854 -41 105 C-41.76715332 104.60965576 -42.53430664 104.21931152 -43.32470703 103.81713867 C-46.0755226 100.83341377 -45.67125199 97.24724601 -45.70703125 93.38671875 C-45.72271652 92.53954788 -45.73840179 91.69237701 -45.75456238 90.8195343 C-45.77919185 89.02669641 -45.79276955 87.23367772 -45.79614258 85.44067383 C-45.81239357 82.7054128 -45.89779259 79.97789106 -45.98632812 77.24414062 C-46.19324106 64.6849817 -46.19324106 64.6849817 -43.35424805 60.67602539 C-40.97841707 59.06099572 -38.6674947 58.06148306 -36 57 C-34.06270415 55.86889453 -32.13996446 54.71258605 -30.23046875 53.53515625 C-28.21826815 52.37391882 -26.20391572 51.21640264 -24.1875 50.0625 C-23.16462891 49.46115234 -22.14175781 48.85980469 -21.08789062 48.24023438 C-20.10369141 47.67755859 -19.11949219 47.11488281 -18.10546875 46.53515625 C-17.22012451 46.023479 -16.33478027 45.51180176 -15.42260742 44.98461914 C-13 44 -13 44 -9 45 C-4.545 46.98 -4.545 46.98 0 49 C0 32.83 0 16.66 0 0 Z " fill="#FBFBFB" transform="translate(290,91)"/>
<path d="M0 0 C1.45708374 0.83204956 1.45708374 0.83204956 2.94360352 1.6809082 C4.02061523 2.28999023 5.09762695 2.89907227 6.20727539 3.52661133 C7.31780273 4.17178711 8.42833008 4.81696289 9.57250977 5.48168945 C10.67916992 6.1075293 11.78583008 6.73336914 12.92602539 7.37817383 C16.02361976 9.14637623 19.10184284 10.91740969 22.13500977 12.79418945 C22.76104095 13.13700958 23.38707214 13.47982971 24.03207397 13.83303833 C26.00183653 15.02037951 27.56387889 16.11136915 29.13500977 17.79418945 C29.84401854 20.94551561 30.07799117 23.06029833 29.99438477 26.20043945 C29.9963385 27.00276001 29.99829224 27.80508057 30.00030518 28.63171387 C29.99631639 30.32287778 29.97510891 32.01407819 29.93774414 33.70483398 C29.88515045 36.28728175 29.89657754 38.86373301 29.91625977 41.4465332 C29.90444451 43.09370035 29.88894281 44.74084604 29.86938477 46.38793945 C29.87323181 47.15577759 29.87707886 47.92361572 29.88104248 48.71472168 C29.75781842 52.73184852 29.3159025 54.57367119 26.73657227 57.71801758 C24.34797116 59.62423603 22.03177994 61.27186412 19.38500977 62.79418945 C18.51618164 63.29821289 17.64735352 63.80223633 16.75219727 64.3215332 C13.61176881 66.08861011 10.46396052 67.84017643 7.29516602 69.5559082 C5.09046975 70.81972143 3.03945758 72.22824627 0.94750977 73.66918945 C-1.63393084 75.26988589 -2.69836061 75.78355352 -5.80249023 75.98168945 C-10.27389082 74.24788106 -13.99966164 71.6029949 -17.86499023 68.79418945 C-17.53499023 68.13418945 -17.20499023 67.47418945 -16.86499023 66.79418945 C-16.20499023 66.79418945 -15.54499023 66.79418945 -14.86499023 66.79418945 C-15.35999023 65.80418945 -15.35999023 65.80418945 -15.86499023 64.79418945 C-17.67278348 64.63932084 -19.4882875 64.57192249 -21.30249023 64.54418945 C-27.96305746 64.11447544 -32.67421984 61.95094184 -37.86499023 57.79418945 C-41.39582627 52.4979354 -40.47763709 45.38507271 -40.56518555 39.14428711 C-40.59826202 37.41750085 -40.65279549 35.69098622 -40.72924805 33.96557617 C-41.35945398 19.65442149 -41.35945398 19.65442149 -37.72631836 15.13208008 C-35.16001386 13.31247402 -32.76149484 12.00577749 -29.86499023 10.79418945 C-29.15955078 10.41359375 -28.45411133 10.03299805 -27.72729492 9.64086914 C-25.86499023 8.79418945 -25.86499023 8.79418945 -22.86499023 8.79418945 C-22.86499023 8.13418945 -22.86499023 7.47418945 -22.86499023 6.79418945 C-20.66539055 5.44429814 -18.45715224 4.11467226 -16.23999023 2.79418945 C-15.6225293 2.41262695 -15.00506836 2.03106445 -14.36889648 1.63793945 C-13.45043945 1.0965332 -13.45043945 1.0965332 -12.51342773 0.54418945 C-11.9583252 0.2090332 -11.40322266 -0.12612305 -10.83129883 -0.47143555 C-6.92658937 -1.9297626 -3.79918468 -1.59899217 0 0 Z " fill="#040604" transform="translate(240.864990234375,207.205810546875)"/>
<path d="M0 0 C2.46606445 1.13574219 2.46606445 1.13574219 4.86328125 2.546875 C6.19456055 3.3203125 6.19456055 3.3203125 7.55273438 4.109375 C8.46345703 4.65078125 9.37417969 5.1921875 10.3125 5.75 C12.12081556 6.80776738 13.92940694 7.8650634 15.73828125 8.921875 C16.61178223 9.43556641 17.4852832 9.94925781 18.38525391 10.47851562 C22.22389619 12.71216816 26.10648342 14.86378707 30 17 C30.19809361 22.46243138 30.34307407 27.92276519 30.43945312 33.38793945 C30.47963212 35.2457318 30.53418925 37.10327196 30.60351562 38.96020508 C30.70083198 41.6342581 30.7459756 44.30496552 30.78125 46.98046875 C30.82254028 47.80773972 30.86383057 48.63501068 30.90637207 49.48735046 C30.90824321 51.90406416 30.81879252 53.72285398 30 56 C27.58523614 58.24560063 24.95653459 59.58640407 22 61 C20.36224609 62.0209375 20.36224609 62.0209375 18.69140625 63.0625 C13.0672122 66.545147 7.43502918 69.95377079 1.609375 73.08984375 C0.01273046 73.89813197 0.01273046 73.89813197 -1 75 C-4.94767885 75.36988473 -7.02849531 74.71489384 -10.3125 72.5625 C-15.55622057 69.23779163 -20.92947942 66.22024761 -26.37817383 63.24829102 C-27.03325928 62.88533936 -27.68834473 62.5223877 -28.36328125 62.1484375 C-28.94376221 61.83052246 -29.52424316 61.51260742 -30.12231445 61.18505859 C-30.74195068 60.79398926 -31.36158691 60.40291992 -32 60 C-32.88341064 59.47083984 -33.76682129 58.94167969 -34.67700195 58.39648438 C-37.92102664 55.04983736 -37.79109968 51.94031709 -37.8046875 47.5078125 C-37.81895782 46.68425262 -37.83322815 45.86069275 -37.84793091 45.01217651 C-37.86883023 43.27238549 -37.87640707 41.53239032 -37.87158203 39.79248047 C-37.87498317 37.13813647 -37.95285308 34.49276573 -38.03515625 31.83984375 C-38.21030216 19.65632387 -38.21030216 19.65632387 -35.32788086 15.71166992 C-32.96188628 14.11502704 -30.63747973 13.08562442 -28 12 C-26.15646647 10.87191721 -24.32999241 9.71558712 -22.51953125 8.53515625 C-20.6188554 7.37486755 -18.71649247 6.21733818 -16.8125 5.0625 C-15.85408203 4.46115234 -14.89566406 3.85980469 -13.90820312 3.24023438 C-12.97556641 2.67755859 -12.04292969 2.11488281 -11.08203125 1.53515625 C-10.24905518 1.023479 -9.4160791 0.51180176 -8.55786133 -0.01538086 C-5.24287287 -1.29144734 -3.40140928 -0.93127205 0 0 Z " fill="#6BA75A" transform="translate(200,136)"/>
<path d="M0 0 C1.90717246 0.95955163 3.78761973 1.97291607 5.6484375 3.01953125 C7.28039062 3.93508789 7.28039062 3.93508789 8.9453125 4.86914062 C10.64300781 5.83110352 10.64300781 5.83110352 12.375 6.8125 C13.4990625 7.44220703 14.623125 8.07191406 15.78125 8.72070312 C18.86827643 10.4594361 21.95075943 12.1957595 25 14 C26.09989258 14.49685303 27.19978516 14.99370605 28.33300781 15.50561523 C31.41231073 18.38562603 31.435436 19.00739685 31.68115234 23.04394531 C31.68020363 25.13891209 31.64637244 27.2340299 31.5859375 29.328125 C31.57744781 30.43226746 31.56895813 31.53640991 31.56021118 32.67401123 C31.52662627 36.2003337 31.45133107 39.72436884 31.375 43.25 C31.34490727 45.64059198 31.31753028 48.0312198 31.29296875 50.421875 C31.22681826 56.28203031 31.12641725 62.14085177 31 68 C27.28762442 67.49831875 24.36280207 66.9455286 21.16796875 64.96875 C20.51505859 64.57042969 19.86214844 64.17210937 19.18945312 63.76171875 C18.19848633 63.13716797 18.19848633 63.13716797 17.1875 62.5 C16.50751953 62.08363281 15.82753906 61.66726562 15.12695312 61.23828125 C10.20659497 58.20659497 10.20659497 58.20659497 9 57 C8.91251793 55.07332493 8.89302666 53.14348139 8.90234375 51.21484375 C8.90556641 50.04501953 8.90878906 48.87519531 8.91210938 47.66992188 C8.92467773 45.82237305 8.92467773 45.82237305 8.9375 43.9375 C8.94201172 42.70193359 8.94652344 41.46636719 8.95117188 40.19335938 C8.96300392 37.12885883 8.97948827 34.06445279 9 31 C8.22785156 30.70480469 7.45570312 30.40960938 6.66015625 30.10546875 C4 29 4 29 1.4375 27.3125 C-0.82529664 25.77493577 -0.82529664 25.77493577 -2.88842773 26.30639648 C-6.85250359 27.60850534 -10.15392782 28.83390096 -13 32 C-14.16488802 37.21467158 -13.54601515 42.53355233 -13.24414062 47.83007812 C-13.09345302 56.0206784 -13.09345302 56.0206784 -15.87036133 59.02050781 C-18.18339035 60.57128592 -20.4827801 61.81487277 -23 63 C-23.89332031 63.55429688 -24.78664063 64.10859375 -25.70703125 64.6796875 C-26.74923828 65.27136719 -26.74923828 65.27136719 -27.8125 65.875 C-28.52019531 66.28492188 -29.22789063 66.69484375 -29.95703125 67.1171875 C-32 68 -32 68 -36 68 C-36.33072876 61.02706319 -36.55768531 54.05615518 -36.71411133 47.07714844 C-36.77933096 44.70593727 -36.86793766 42.33524593 -36.98071289 39.96582031 C-37.8658307 20.88572421 -37.8658307 20.88572421 -34.84420776 16.21243286 C-31.46655742 12.98445557 -27.31562578 11.56389872 -23 10 C-21.2128239 8.96868993 -19.44787609 7.89725346 -17.71484375 6.77734375 C-16.12334479 5.82913459 -14.53091837 4.88248012 -12.9375 3.9375 C-12.12345703 3.44056641 -11.30941406 2.94363281 -10.47070312 2.43164062 C-9.29217773 1.73651367 -9.29217773 1.73651367 -8.08984375 1.02734375 C-7.39753662 0.61218506 -6.70522949 0.19702637 -5.99194336 -0.23071289 C-3.44901473 -1.21279012 -2.52857851 -0.98305811 0 0 Z " fill="#FBFBFB" transform="translate(117,135)"/>
<path d="M0 0 C3.7125991 0.97252123 6.54535255 2.45267678 9.86816406 4.37280273 C10.47642029 4.72178116 11.08467651 5.07075958 11.71136475 5.43031311 C12.98779165 6.16490576 14.26171161 6.90387014 15.53320312 7.64697266 C17.48054332 8.78471423 19.43521578 9.90890339 21.39160156 11.03100586 C30.9045466 16.52246652 30.9045466 16.52246652 33.22753906 18.84545898 C34.03575655 22.96675119 34.09653177 26.73258667 33.22753906 30.84545898 C30.70049681 33.75899005 27.64657663 35.14852871 24.22753906 36.84545898 C22.45255832 37.9848571 20.68163481 39.13060306 18.91503906 40.28295898 C16.48925781 41.84155273 16.48925781 41.84155273 14.22753906 42.84545898 C12.90753906 42.51545898 11.58753906 42.18545898 10.22753906 41.84545898 C10.22753906 38.21545898 10.22753906 34.58545898 10.22753906 30.84545898 C7.75253906 29.85545898 7.75253906 29.85545898 5.22753906 28.84545898 C4.58816406 28.45358398 3.94878906 28.06170898 3.29003906 27.65795898 C-0.65023318 26.10573053 -4.07470214 27.60072269 -7.91308594 28.94702148 C-11.11817777 30.60729726 -11.11817777 30.60729726 -11.57714844 34.20092773 C-11.60035156 35.46549805 -11.62355469 36.73006836 -11.64746094 38.03295898 C-11.68613281 39.30526367 -11.72480469 40.57756836 -11.76464844 41.88842773 C-11.76722656 42.86424805 -11.76980469 43.84006836 -11.77246094 44.84545898 C-11.06887451 45.1089917 -10.36528809 45.37252441 -9.64038086 45.64404297 C-6.579521 46.92628451 -3.77494929 48.43596828 -0.88574219 50.06811523 C0.76844727 50.99914062 0.76844727 50.99914062 2.45605469 51.94897461 C3.59751953 52.59543945 4.73898437 53.2419043 5.91503906 53.90795898 C8.18928229 55.19139267 10.46433502 56.47338602 12.73925781 57.75561523 C13.74432373 58.32417236 14.74938965 58.89272949 15.78491211 59.47851562 C17.24916221 60.29793954 18.72674357 61.09506124 20.22753906 61.84545898 C19.86502549 64.41827936 19.58187841 65.55385227 17.54101562 67.23339844 C15.19398141 68.55696751 12.84726358 69.87528099 10.47753906 71.15795898 C9.66542969 71.62524414 8.85332031 72.0925293 8.01660156 72.57397461 C7.22511719 73.01032227 6.43363281 73.44666992 5.61816406 73.89624023 C4.89661133 74.29496338 4.17505859 74.69368652 3.43164062 75.10449219 C-0.40557691 76.39447394 -3.00858623 75.21191783 -6.55566406 73.51025391 C-7.54501953 72.95442627 -8.534375 72.39859863 -9.55371094 71.82592773 C-10.64296875 71.21555664 -11.73222656 70.60518555 -12.85449219 69.97631836 C-13.98242188 69.33500977 -15.11035156 68.69370117 -16.27246094 68.03295898 C-17.40039062 67.40325195 -18.52832031 66.77354492 -19.69042969 66.12475586 C-25.91755607 62.61324613 -25.91755607 62.61324613 -28.77246094 60.84545898 C-29.70662842 60.29897705 -30.6407959 59.75249512 -31.60327148 59.18945312 C-34.86131654 55.66885768 -34.40433063 52.55528501 -34.26074219 47.92358398 C-34.25366745 47.06359802 -34.24659271 46.20361206 -34.23930359 45.31756592 C-34.21135705 42.57597148 -34.14862074 39.83643398 -34.08496094 37.09545898 C-34.05987828 35.23481144 -34.03706505 33.37413182 -34.01660156 31.51342773 C-33.9615298 26.95664793 -33.87525748 22.40140194 -33.77246094 17.84545898 C-32.93996826 17.37124512 -32.10747559 16.89703125 -31.24975586 16.40844727 C-28.1573321 14.64652466 -25.06572688 12.88317012 -21.97436523 11.11938477 C-20.6370227 10.35662462 -19.29945935 9.59425148 -17.96166992 8.83227539 C-16.0373389 7.73612842 -14.11380973 6.63858605 -12.19042969 5.54077148 C-11.29495674 5.03128464 -11.29495674 5.03128464 -10.38139343 4.51150513 C-2.26478792 -0.12624258 -2.26478792 -0.12624258 0 0 Z " fill="#F9FAFA" transform="translate(360.7724609375,135.154541015625)"/>
<path d="M0 0 C1.45708374 0.83204956 1.45708374 0.83204956 2.94360352 1.6809082 C4.02061523 2.28999023 5.09762695 2.89907227 6.20727539 3.52661133 C7.31780273 4.17178711 8.42833008 4.81696289 9.57250977 5.48168945 C10.67916992 6.1075293 11.78583008 6.73336914 12.92602539 7.37817383 C16.02361976 9.14637623 19.10184284 10.91740969 22.13500977 12.79418945 C22.76104095 13.13700958 23.38707214 13.47982971 24.03207397 13.83303833 C26.00183653 15.02037951 27.56387889 16.11136915 29.13500977 17.79418945 C29.84401854 20.94551561 30.07799117 23.06029833 29.99438477 26.20043945 C29.9963385 27.00276001 29.99829224 27.80508057 30.00030518 28.63171387 C29.99631639 30.32287778 29.97510891 32.01407819 29.93774414 33.70483398 C29.88515045 36.28728175 29.89657754 38.86373301 29.91625977 41.4465332 C29.90444451 43.09370035 29.88894281 44.74084604 29.86938477 46.38793945 C29.87323181 47.15577759 29.87707886 47.92361572 29.88104248 48.71472168 C29.75781842 52.73184852 29.3159025 54.57367119 26.73657227 57.71801758 C24.34797116 59.62423603 22.03177994 61.27186412 19.38500977 62.79418945 C18.51618164 63.29821289 17.64735352 63.80223633 16.75219727 64.3215332 C13.61176881 66.08861011 10.46396052 67.84017643 7.29516602 69.5559082 C5.09046975 70.81972143 3.03945758 72.22824627 0.94750977 73.66918945 C-1.63393084 75.26988589 -2.69836061 75.78355352 -5.80249023 75.98168945 C-10.27389082 74.24788106 -13.99966164 71.6029949 -17.86499023 68.79418945 C-16.48608398 67.2824707 -16.48608398 67.2824707 -14.86499023 65.79418945 C-12.49398198 66.02364186 -10.9828966 66.72572769 -8.92749023 67.91918945 C-4.7529081 69.6902243 -0.01097139 67.29197833 4.05688477 65.8293457 C11.27107657 62.8736293 18.11673167 59.94833764 23.13500977 53.79418945 C27.16081948 43.49822655 25.26446734 30.53172289 24.13500977 19.79418945 C23.42022461 19.52759521 22.70543945 19.26100098 21.96899414 18.98632812 C19.06999903 17.76684216 16.49067781 16.33121587 13.79125977 14.7199707 C12.79223633 14.13538086 11.79321289 13.55079102 10.76391602 12.94848633 C8.67283739 11.71759548 6.58688933 10.47794804 4.50610352 9.22973633 C3.50708008 8.64901367 2.50805664 8.06829102 1.47875977 7.4699707 C0.57319336 6.93283447 -0.33237305 6.39569824 -1.26538086 5.84228516 C-4.40233665 4.57754518 -5.67152842 4.79677354 -8.86499023 5.79418945 C-9.77410156 6.07246582 -10.68321289 6.35074219 -11.61987305 6.63745117 C-19.61195179 9.58252822 -27.55789815 12.90255768 -32.86499023 19.79418945 C-36.79059244 30.47868954 -34.93747032 43.6980061 -33.86499023 54.79418945 C-32.89561523 55.10356445 -31.92624023 55.41293945 -30.92749023 55.73168945 C-27.86499023 56.79418945 -27.86499023 56.79418945 -26.86499023 57.79418945 C-24.88499023 57.79418945 -22.90499023 57.79418945 -20.86499023 57.79418945 C-20.53499023 46.24418945 -20.20499023 34.69418945 -19.86499023 22.79418945 C-17.88499023 22.79418945 -15.90499023 22.79418945 -13.86499023 22.79418945 C-13.79065244 27.68714092 -13.73629996 32.57976128 -13.70019531 37.47314453 C-13.68513909 39.13661427 -13.6646896 40.80004451 -13.63867188 42.46337891 C-13.60214816 44.85890467 -13.58523241 47.25390412 -13.57202148 49.6496582 C-13.55653763 50.38943405 -13.54105377 51.1292099 -13.52510071 51.8914032 C-13.52364366 56.39481232 -14.14809779 59.18125944 -16.86499023 62.79418945 C-18.46049546 64.38969468 -20.09160079 64.11786831 -22.30249023 64.23168945 C-28.55223604 64.19571969 -33.03522435 61.6115621 -37.86499023 57.79418945 C-41.39582627 52.4979354 -40.47763709 45.38507271 -40.56518555 39.14428711 C-40.59826202 37.41750085 -40.65279549 35.69098622 -40.72924805 33.96557617 C-41.35945398 19.65442149 -41.35945398 19.65442149 -37.72631836 15.13208008 C-35.16001386 13.31247402 -32.76149484 12.00577749 -29.86499023 10.79418945 C-29.15955078 10.41359375 -28.45411133 10.03299805 -27.72729492 9.64086914 C-25.86499023 8.79418945 -25.86499023 8.79418945 -22.86499023 8.79418945 C-22.86499023 8.13418945 -22.86499023 7.47418945 -22.86499023 6.79418945 C-20.66539055 5.44429814 -18.45715224 4.11467226 -16.23999023 2.79418945 C-15.6225293 2.41262695 -15.00506836 2.03106445 -14.36889648 1.63793945 C-13.45043945 1.0965332 -13.45043945 1.0965332 -12.51342773 0.54418945 C-11.9583252 0.2090332 -11.40322266 -0.12612305 -10.83129883 -0.47143555 C-6.92658937 -1.9297626 -3.79918468 -1.59899217 0 0 Z " fill="#6A9468" transform="translate(240.864990234375,207.205810546875)"/>
<path d="M0 0 C2.66935542 1.24191028 5.20619042 2.64478711 7.75 4.125 C8.77673828 4.67414063 8.77673828 4.67414063 9.82421875 5.234375 C11.77706143 6.37127747 13.39926041 7.40259066 15 9 C15.953125 12.8046875 15.953125 12.8046875 16 16 C15.34 16 14.68 16 14 16 C14 16.66 14 17.32 14 18 C14.66 18.33 15.32 18.66 16 19 C15.3090625 18.83886719 14.618125 18.67773438 13.90625 18.51171875 C10.72350786 17.95131657 7.73095298 17.83137239 4.5 17.8125 C3.3965625 17.79832031 2.293125 17.78414062 1.15625 17.76953125 C-2.40542645 17.86947614 -2.40542645 17.86947614 -7 20 C-7 23.96 -7 27.92 -7 32 C-0.45980079 34.12936719 6.20240549 35.03913702 13 36 C13.495 38.475 13.495 38.475 14 41 C10.55324591 43.29783606 9.06671888 43.29754883 5 43.3125 C3.948125 43.32925781 2.89625 43.34601563 1.8125 43.36328125 C-1 43 -1 43 -2.875 41.66796875 C-4 40 -4 40 -4 37 C-5.98 37 -7.96 37 -10 37 C-10 38.32 -10 39.64 -10 41 C-10.66 41 -11.32 41 -12 41 C-12 33.41 -12 25.82 -12 18 C-13.98 18 -15.96 18 -18 18 C-17.99476318 19.05501709 -17.98952637 20.11003418 -17.98413086 21.19702148 C-17.96608099 25.0975663 -17.95456805 28.9981074 -17.94506836 32.89868164 C-17.9400281 34.58944316 -17.93319595 36.28020029 -17.92456055 37.97094727 C-17.91248143 40.39600707 -17.90676877 42.82100944 -17.90234375 45.24609375 C-17.89718246 46.00651474 -17.89202118 46.76693573 -17.88670349 47.55039978 C-17.88650762 49.3673257 -17.93802723 51.18413127 -18 53 C-19 54 -19 54 -21.625 54.3125 C-26.00724596 53.90673649 -28.24800737 52.25921647 -32 50 C-32.32338703 45.16258928 -32.55803078 40.33154061 -32.71411133 35.48583984 C-32.77918099 33.84182169 -32.86768697 32.19854747 -32.98071289 30.55712891 C-33.71004115 19.68650767 -33.71004115 19.68650767 -32 15 C-28.1799666 11.09218563 -23.97390955 9.1423274 -19 7 C-17.59712 6.1734809 -16.20730937 5.3234881 -14.84375 4.43359375 C-13.7403125 3.77488281 -12.636875 3.11617187 -11.5 2.4375 C-9.81390625 1.41462891 -9.81390625 1.41462891 -8.09375 0.37109375 C-4.55137716 -1.19882149 -3.57171325 -1.34751 0 0 Z " fill="#030503" transform="translate(239,212)"/>
<path d="M0 0 C0 0.99 0 1.98 0 3 C-1.62230638 3.73794841 -3.2709361 4.4184002 -4.9296875 5.0703125 C-7.80287284 6.54153362 -7.80287284 6.54153362 -10 9 C-11.45259939 14.95087211 -11.26477889 20.78256833 -11.125 26.875 C-11.12305679 28.53385507 -11.12561438 30.19272191 -11.1328125 31.8515625 C-11.14061721 35.90303297 -11.08690973 39.94949917 -11 44 C-10.030625 44.309375 -9.06125 44.61875 -8.0625 44.9375 C-5 46 -5 46 -4 47 C-2.02 47 -0.04 47 2 47 C2.33 35.45 2.66 23.9 3 12 C4.98 12 6.96 12 9 12 C9.07433779 16.89295147 9.12869027 21.78557183 9.16479492 26.67895508 C9.17985114 28.34242481 9.20030063 30.00585505 9.22631836 31.66918945 C9.26284207 34.06471522 9.27975782 36.45971467 9.29296875 38.85546875 C9.30845261 39.5952446 9.32393646 40.33502045 9.33988953 41.09721375 C9.34134657 45.60062287 8.71689244 48.38706999 6 52 C4.40449478 53.59550522 2.77338944 53.32367886 0.5625 53.4375 C-5.68724581 53.40153024 -10.17023412 50.81737265 -15 47 C-18.53393988 41.69909017 -17.57259992 34.54247677 -17.64526367 28.29516602 C-17.67334124 26.56165999 -17.72108872 24.82835721 -17.78881836 23.09594727 C-18.34730643 8.76233037 -18.34730643 8.76233037 -15.1081543 4.52539062 C-10.35809033 1.23548976 -5.71307889 0.20774832 0 0 Z " fill="#6A936A" transform="translate(218,218)"/>
<path d="M0 0 C1.59375 0.9140625 1.59375 0.9140625 3.84375 3.3515625 C4.71875 7.1015625 4.71875 7.1015625 4.84375 10.3515625 C3.19375 10.3515625 1.54375 10.3515625 -0.15625 10.3515625 C-0.445 9.7121875 -0.73375 9.0728125 -1.03125 8.4140625 C-1.98448451 6.19950171 -1.98448451 6.19950171 -4.15625 5.3515625 C-5.65381871 5.25656747 -7.15567932 5.22169052 -8.65625 5.2265625 C-9.4503125 5.22398437 -10.244375 5.22140625 -11.0625 5.21875 C-13.21543534 5.21878254 -13.21543534 5.21878254 -15.15625 6.3515625 C-14.82625 7.6715625 -14.49625 8.9915625 -14.15625 10.3515625 C-13.04765625 10.53332031 -11.9390625 10.71507812 -10.796875 10.90234375 C-9.33323223 11.15566654 -7.86969596 11.4096052 -6.40625 11.6640625 C-5.67664063 11.78201172 -4.94703125 11.89996094 -4.1953125 12.02148438 C3.0094648 13.2986949 3.0094648 13.2986949 5.84375 16.3515625 C6.30410131 19.52287153 6.54310284 21.33670529 5.84375 24.3515625 C3.66800584 27.04261448 1.93309144 28.80689178 -1.15625 30.3515625 C-14.52156572 31.39679873 -14.52156572 31.39679873 -18.90625 28.6015625 C-20.9890416 26.5187709 -22.25742071 25.1379333 -23.15625 22.3515625 C-23.15625 21.3615625 -23.15625 20.3715625 -23.15625 19.3515625 C-21.17625 19.3515625 -19.19625 19.3515625 -17.15625 19.3515625 C-16.82625 21.0015625 -16.49625 22.6515625 -16.15625 24.3515625 C-13.86464681 24.37848734 -11.57295454 24.39792374 -9.28125 24.4140625 C-7.36699219 24.43146484 -7.36699219 24.43146484 -5.4140625 24.44921875 C-2.26960348 24.58332819 -2.26960348 24.58332819 -0.15625 23.3515625 C-0.15625 22.0315625 -0.15625 20.7115625 -0.15625 19.3515625 C-1.81914062 19.06152344 -1.81914062 19.06152344 -3.515625 18.765625 C-4.97922476 18.50292761 -6.44276327 18.23988883 -7.90625 17.9765625 C-9.00066406 17.78707031 -9.00066406 17.78707031 -10.1171875 17.59375 C-17.203125 16.30539773 -17.203125 16.30539773 -20.15625 14.3515625 C-21.75241743 11.15922765 -21.67091114 7.81694753 -21.15625 4.3515625 C-16.16787071 -2.13333057 -7.50424538 -2.25671147 0 0 Z " fill="#6B956A" transform="translate(252.15625,229.6484375)"/>
<path d="M0 0 C5.66250299 7.37941351 9.91724883 15.60968835 14.25 23.8125 C14.68642822 24.63693604 15.12285645 25.46137207 15.57250977 26.31079102 C17.25365415 29.51911926 18.85586568 32.60870578 20.109375 36.01171875 C20.40328125 36.66785156 20.6971875 37.32398438 21 38 C21.99 38.33 22.98 38.66 24 39 C20.03778737 39.27062398 17.99324843 38.72914506 14.6875 36.5625 C11.493917 34.53284333 8.29006799 32.58464222 4.96875 30.7734375 C4.26274658 30.38728271 3.55674316 30.00112793 2.8293457 29.60327148 C1.43004504 28.84165509 0.0276456 28.08569723 -1.37817383 27.33618164 C-5.61212939 25.01117714 -8.74769071 22.57942744 -12 19 C-11.01 18.34 -10.02 17.68 -9 17 C-7.42862555 14.3053047 -7.42862555 14.3053047 -6 11.1875 C-4.1607198 7.33171728 -2.25476608 3.63044181 0 0 Z " fill="#3F853C" transform="translate(175,172)"/>
<path d="M0 0 C0.70640625 0.24234375 1.4128125 0.4846875 2.140625 0.734375 C4.61728737 1.92684207 6.18171789 2.91893586 8 5 C9.26365496 9.574075 9.25945312 13.42589524 8 18 C5.45163785 21.03554903 2.78913804 22.83133103 -1 24 C-6.01793411 23.48891412 -10.66425702 21.89037958 -14 18 C-15.31773241 13.40284305 -15.36664271 9.58801482 -14 5 C-10.18360561 1.00757265 -5.50365118 -2.10825348 0 0 Z " fill="#060606" transform="translate(281,162)"/>
<path d="M0 0 C2.875 1.375 2.875 1.375 5 3 C5 3.99 5 4.98 5 6 C4.34 6 3.68 6 3 6 C3 8.97 3 11.94 3 15 C1.02 15.99 1.02 15.99 -1 17 C-3.24407254 20.03201925 -3.24407254 20.03201925 -5 23 C-8.3 21.35 -11.6 19.7 -15 18 C-15 13.38 -15 8.76 -15 4 C-5.4 -1.96363636 -5.4 -1.96363636 0 0 Z " fill="#111211" transform="translate(364,162)"/>
<path d="M0 0 C3.63 1.98 7.26 3.96 11 6 C11 17.22 11 28.44 11 40 C10.67 40 10.34 40 10 40 C9.505 30.1 9.505 30.1 9 20 C7.35 20.33 5.7 20.66 4 21 C4.66 21.33 5.32 21.66 6 22 C5.67 26.29 5.34 30.58 5 35 C4.34 35 3.68 35 3 35 C3 31.7 3 28.4 3 25 C-2.40355506 22.29822247 -7.4427584 21.31557135 -13.42578125 20.52734375 C-16 20 -16 20 -18 18 C-17.75 15.9375 -17.75 15.9375 -17 14 C-13.56042054 12.28021027 -9.76863616 12.61845069 -6 13 C-3.4375 14.3125 -3.4375 14.3125 -2 16 C-2 16.99 -2 17.98 -2 19 C-0.35 19 1.3 19 3 19 C1.87204037 14.89100419 0.66489182 10.92438786 -1 7 C-0.34 7 0.32 7 1 7 C0.67 4.69 0.34 2.38 0 0 Z " fill="#070F07" transform="translate(254,221)"/>
<path d="M0 0 C2.26736057 3.40104085 4.15428269 6.95429661 6.0625 10.5625 C6.60874023 11.59020508 6.60874023 11.59020508 7.16601562 12.63867188 C9.79923115 17.5984623 9.79923115 17.5984623 11 20 C9.8213488 22.34837322 8.59699454 24.56366494 7.25 26.8125 C6.8890625 27.42931641 6.528125 28.04613281 6.15625 28.68164062 C5.44530815 29.8935904 4.72862383 31.10219235 4.00585938 32.30712891 C3.09602702 33.83838559 2.22525935 35.39268855 1.359375 36.94921875 C0.68648437 37.96435547 0.68648437 37.96435547 0 39 C-0.66 39 -1.32 39 -2 39 C-2.04935824 33.76726669 -2.08569949 28.53466824 -2.10986328 23.30175781 C-2.11993431 21.52080933 -2.13359185 19.73987743 -2.15087891 17.95898438 C-2.17507913 15.40230217 -2.18647184 12.84583815 -2.1953125 10.2890625 C-2.20563507 9.49005524 -2.21595764 8.69104797 -2.22659302 7.86782837 C-2.22699226 5.9104278 -2.12241069 3.95356923 -2 2 C-1.34 1.34 -0.68 0.68 0 0 Z " fill="#5D9C51" transform="translate(165,152)"/>
<path d="M0 0 C0 0.99 0 1.98 0 3 C-1.62096451 3.75060348 -3.26995021 4.44110534 -4.9296875 5.1015625 C-7.79711975 6.57344123 -7.79711975 6.57344123 -10 9 C-11.44832876 14.78561934 -11.26518933 20.44474967 -11.125 26.375 C-11.12305669 27.98567802 -11.12561474 29.59636814 -11.1328125 31.20703125 C-11.14061564 35.14007285 -11.08692751 39.06795767 -11 43 C-11.33 43 -11.66 43 -12 43 C-12.33 41.35 -12.66 39.7 -13 38 C-13.66 38 -14.32 38 -15 38 C-15.33 39.98 -15.66 41.96 -16 44 C-16.33 44 -16.66 44 -17 44 C-17.22320235 38.84078257 -17.38610225 33.68439491 -17.49438477 28.52148438 C-17.53953126 26.76740561 -17.60086921 25.01366349 -17.67895508 23.26074219 C-18.30981051 8.73045107 -18.30981051 8.73045107 -15.11694336 4.51220703 C-10.36975839 1.22859461 -5.70647576 0.20750821 0 0 Z " fill="#598357" transform="translate(218,218)"/>
<path d="M0 0 C0.66 0 1.32 0 2 0 C2.19809361 5.46243138 2.34307407 10.92276519 2.43945312 16.38793945 C2.47963212 18.2457318 2.53418925 20.10327196 2.60351562 21.96020508 C2.70083198 24.6342581 2.7459756 27.30496552 2.78125 29.98046875 C2.82254028 30.80773972 2.86383057 31.63501068 2.90637207 32.48735046 C2.908243 34.90380078 2.81880031 36.72312995 2 39 C-0.41716854 41.23851237 -3.05930333 42.56343443 -6 44 C-7.13711836 44.75284185 -8.26360092 45.5221829 -9.375 46.3125 C-12 48 -12 48 -14 48 C-12 44 -12 44 -10 40 C-9.01 40 -8.02 40 -7 40 C-6.01 39.505 -6.01 39.505 -5 39 C-4.34 39.33 -3.68 39.66 -3 40 C-2.35888013 36.93687174 -1.86948782 34.58005413 -2.5625 31.5 C-3 29 -3 29 -2.0625 26.3125 C-0.56517234 21.64436084 0.26507498 15.53014996 -2 11 C-3.65 13.31 -5.3 15.62 -7 18 C-8 15 -8 15 -6.34765625 11.42578125 C-5.59612277 10.04907832 -4.8339433 8.67814591 -4.0625 7.3125 C-3.48338867 6.2596582 -3.48338867 6.2596582 -2.89257812 5.18554688 C-1.93738227 3.45204328 -0.96984614 1.72534991 0 0 Z " fill="#497749" transform="translate(228,153)"/>
<path d="M0 0 C0.33 0 0.66 0 1 0 C1.33 2.97 1.66 5.94 2 9 C8.54019921 11.12936719 15.20240549 12.03913702 22 13 C22.33 14.65 22.66 16.3 23 18 C19.55324591 20.29783606 18.06671888 20.29754883 14 20.3125 C12.948125 20.32925781 11.89625 20.34601563 10.8125 20.36328125 C8 20 8 20 6.125 18.66796875 C5 17 5 17 5 14 C2.69 14 0.38 14 -2 14 C-2 11.03 -2 8.06 -2 5 C-1.34 5 -0.68 5 0 5 C0 3.35 0 1.7 0 0 Z " fill="#080D08" transform="translate(230,235)"/>
<path d="M0 0 C1.98 0 3.96 0 6 0 C6 11.55 6 23.1 6 35 C5.34 35 4.68 35 4 35 C2.37485532 36.45833358 2.37485532 36.45833358 1 38 C-0.23180134 34.30459598 -0.12412112 30.89696622 -0.09765625 27.05078125 C-0.0962413 26.27816452 -0.09482635 25.50554779 -0.09336853 24.70951843 C-0.08777466 22.24380611 -0.07522333 19.77818485 -0.0625 17.3125 C-0.05748421 15.63997527 -0.05292144 13.96744912 -0.04882812 12.29492188 C-0.03780724 8.19657954 -0.02054684 4.09830521 0 0 Z " fill="#5D875D" transform="translate(221,230)"/>
<path d="M0 0 C0.99 0.66 1.98 1.32 3 2 C3.64234124 7.05843729 3.64234124 7.05843729 3 10 C0.8125 12.0625 0.8125 12.0625 -2 13 C-5.5341312 12.74756206 -7.00316126 11.99789249 -10 10 C-10.29296875 7.8359375 -10.29296875 7.8359375 -10.1875 5.375 C-10.16042969 4.55773437 -10.13335937 3.74046875 -10.10546875 2.8984375 C-10.05326172 1.95871094 -10.05326172 1.95871094 -10 1 C-6.23083027 -1.11659639 -4.23033511 -1.08008556 0 0 Z " fill="#689968" transform="translate(364,167)"/>
<path d="M0 0 C2.39497478 1.29023129 4.61162309 2.58003933 6.875 4.0625 C7.46796875 4.43955078 8.0609375 4.81660156 8.671875 5.20507812 C10.12027322 6.12784796 11.56096031 7.06270263 13 8 C12.67 8.66 12.34 9.32 12 10 C10.68 9.67 9.36 9.34 8 9 C8 8.34 8 7.68 8 7 C7.01 7.33 6.02 7.66 5 8 C4.34 7.67 3.68 7.34 3 7 C3 6.34 3 5.68 3 5 C0.03 4.505 0.03 4.505 -3 4 C-3 4.66 -3 5.32 -3 6 C-6.4019487 8.09350689 -9.05272412 8.17942163 -13 8 C-13.33 6.68 -13.66 5.36 -14 4 C-12.80681575 3.12479632 -11.5945121 2.2756291 -10.375 1.4375 C-9.70210937 0.96183594 -9.02921875 0.48617187 -8.3359375 -0.00390625 C-5.08442474 -1.39042089 -3.38430051 -0.97172985 0 0 Z " fill="#7BAD65" transform="translate(200,136)"/>
<path d="M0 0 C0 0.99 0 1.98 0 3 C-3.02734375 3.24414062 -3.02734375 3.24414062 -6.0546875 3.48828125 C-8.39519216 3.87393036 -8.39519216 3.87393036 -10 7 C-9.67 7.66 -9.34 8.32 -9 9 C-8.01 7.68 -7.02 6.36 -6 5 C-3.90321185 8.40728075 -3.5866744 11.03207421 -4 15 C-5.51953125 17.1875 -5.51953125 17.1875 -7 19 C-8.20284401 16.92426919 -9.38705701 14.84116905 -10.5625 12.75 C-11.07586914 11.87021484 -11.07586914 11.87021484 -11.59960938 10.97265625 C-14.03963092 6.58554681 -14.03963092 6.58554681 -13.84375 3.69140625 C-10.88959351 -2.23058339 -5.41701341 -1.00995165 0 0 Z " fill="#71B952" transform="translate(180,149)"/>
<path d="M0 0 C2 2 2 2 2.3125 4.9375 C2 8 2 8 0.875 9.9375 C-1 11 -1 11 -4.0625 10.8125 C-7 10 -7 10 -9 8 C-9.375 5.0625 -9.375 5.0625 -9 2 C-6.12524616 -1.3006433 -4.03854228 -1.38160657 0 0 Z " fill="#4A544A" transform="translate(283,221)"/>
<path d="M0 0 C5.19662404 0.14679729 9.50810889 3.43945529 13.8125 6.0625 C14.60076172 6.53494141 15.38902344 7.00738281 16.20117188 7.49414062 C18.13812608 8.65631315 20.07078295 9.82504417 22 11 C21.67 11.99 21.34 12.98 21 14 C20.34 14 19.68 14 19 14 C19 13.34 19 12.68 19 12 C18.175 12.103125 17.35 12.20625 16.5 12.3125 C11.90973508 11.90265492 8.4320047 10.0922885 5 7 C5 6.01 5 5.02 5 4 C2.69 3.34 0.38 2.68 -2 2 C-1.34 1.34 -0.68 0.68 0 0 Z " fill="#6C996C" transform="translate(242,210)"/>
<path d="M0 0 C0.90661025 2.71983075 1.12843516 4.30991132 1.1328125 7.10546875 C1.13474609 7.91725586 1.13667969 8.72904297 1.13867188 9.56542969 C1.13416016 10.43071289 1.12964844 11.29599609 1.125 12.1875 C1.12306641 13.07211914 1.12113281 13.95673828 1.11914062 14.86816406 C1.06701209 22.93939885 0.62928458 30.95414713 0 39 C-0.66 39 -1.32 39 -2 39 C-2.04935824 33.76726669 -2.08569949 28.53466824 -2.10986328 23.30175781 C-2.11993431 21.52080933 -2.13359185 19.73987743 -2.15087891 17.95898438 C-2.17507913 15.40230217 -2.18647184 12.84583815 -2.1953125 10.2890625 C-2.20563507 9.49005524 -2.21595764 8.69104797 -2.22659302 7.86782837 C-2.22699226 5.9104278 -2.12241069 3.95356923 -2 2 C-1.34 1.34 -0.68 0.68 0 0 Z " fill="#678F5B" transform="translate(165,152)"/>
<path d="M0 0 C0.33 0 0.66 0 1 0 C1 9.9 1 19.8 1 30 C1.66 30 2.32 30 3 30 C3 20.76 3 11.52 3 2 C3.33 2 3.66 2 4 2 C4 13.22 4 24.44 4 36 C2.68 36 1.36 36 0 36 C0 24.12 0 12.24 0 0 Z " fill="#73A174" transform="translate(202,226)"/>
<path d="M0 0 C0.33 0.66 0.66 1.32 1 2 C1.66 2 2.32 2 3 2 C4.21421557 5.52321568 4.06854799 6.84067728 2.56640625 10.33203125 C1.91291108 11.50040141 1.24444949 12.66050622 0.5625 13.8125 C0.05493164 14.7087207 0.05493164 14.7087207 -0.46289062 15.62304688 C-1.29577251 17.08938822 -2.14618561 18.54574756 -3 20 C-3.33 20 -3.66 20 -4 20 C-4 15.38 -4 10.76 -4 6 C-2.68 5.67 -1.36 5.34 0 5 C0.33 4.34 0.66 3.68 1 3 C0.34 2.67 -0.32 2.34 -1 2 C-0.67 1.34 -0.34 0.68 0 0 Z " fill="#64A652" transform="translate(169,170)"/>
<path d="M0 0 C0.33 0 0.66 0 1 0 C1.07415168 4.78715623 1.12860204 9.57397827 1.16479492 14.36157227 C1.17988243 15.99021223 1.20035506 17.61881156 1.22631836 19.24731445 C1.26270449 21.58815535 1.2797262 23.92845919 1.29296875 26.26953125 C1.30845261 26.99775589 1.32393646 27.72598053 1.33988953 28.47627258 C1.34156817 33.51739104 1.34156817 33.51739104 -0.390625 35.96484375 C-3.40629639 37.9045353 -6.51696339 37.17129688 -10 37 C-9.67 35.68 -9.34 34.36 -9 33 C-7.35 33 -5.7 33 -4 33 C-4 32.34 -4 31.68 -4 31 C-3.34 31.33 -2.68 31.66 -2 32 C-0.55037817 29.10075634 -0.77873519 26.47699645 -0.68359375 23.2421875 C-0.66281265 22.57913605 -0.64203156 21.91608459 -0.62062073 21.23294067 C-0.55520769 19.11373306 -0.49627895 16.994401 -0.4375 14.875 C-0.39430691 13.43878919 -0.35069236 12.00259098 -0.30664062 10.56640625 C-0.19953501 7.04440406 -0.09824425 3.52226175 0 0 Z " fill="#739E74" transform="translate(225,234)"/>
<path d="M0 0 C0.99 0.66 1.98 1.32 3 2 C3.40843923 4.71203652 3.13336867 7.2437142 3 10 C2.01 9.67 1.02 9.34 0 9 C0 7.02 0 5.04 0 3 C-1.32 3 -2.64 3 -4 3 C-4.99 2.67 -5.98 2.34 -7 2 C-6.67 2.99 -6.34 3.98 -6 5 C-6.33 5.66 -6.66 6.32 -7 7 C-6.34 7 -5.68 7 -5 7 C-5.33 7.66 -5.66 8.32 -6 9 C-5.67 9.99 -5.34 10.98 -5 12 C-7.475 11.01 -7.475 11.01 -10 10 C-10 7.03 -10 4.06 -10 1 C-5.61806947 -1.19096527 -4.55756375 -1.1636333 0 0 Z " fill="#6B906C" transform="translate(364,167)"/>
<path d="M0 0 C3.12648013 0.95708575 5.46409689 1.95048586 8.0625 3.9375 C8.0625 4.9275 8.0625 5.9175 8.0625 6.9375 C7.0725 7.2675 6.0825 7.5975 5.0625 7.9375 C4.485 7.6075 3.9075 7.2775 3.3125 6.9375 C0.04810017 5.48665563 -2.50594494 6.27758557 -5.9375 6.9375 C-6.2675 5.9475 -6.5975 4.9575 -6.9375 3.9375 C-3.77199588 -0.08025523 -3.77199588 -0.08025523 0 0 Z " fill="#0A0E0B" transform="translate(360.9375,161.0625)"/>
<path d="M0 0 C1.18851563 0.00902344 2.37703125 0.01804688 3.6015625 0.02734375 C4.51679688 0.03894531 5.43203125 0.05054688 6.375 0.0625 C6.375 0.3925 6.375 0.7225 6.375 1.0625 C5.66472656 1.11148438 4.95445312 1.16046875 4.22265625 1.2109375 C2.84400391 1.32308594 2.84400391 1.32308594 1.4375 1.4375 C0.52097656 1.50710937 -0.39554688 1.57671875 -1.33984375 1.6484375 C-2.47099609 1.85339844 -2.47099609 1.85339844 -3.625 2.0625 C-3.955 2.7225 -4.285 3.3825 -4.625 4.0625 C-2.315 4.0625 -0.005 4.0625 2.375 4.0625 C2.375 4.3925 2.375 4.7225 2.375 5.0625 C-0.595 5.7225 -3.565 6.3825 -6.625 7.0625 C-6.625 8.3825 -6.625 9.7025 -6.625 11.0625 C-7.945 11.0625 -9.265 11.0625 -10.625 11.0625 C-10.8125 8.1875 -10.8125 8.1875 -10.625 5.0625 C-9.635 4.4025 -8.645 3.7425 -7.625 3.0625 C-7.955 2.4025 -8.285 1.7425 -8.625 1.0625 C-5.74084117 -0.37957941 -3.20778472 -0.03144887 0 0 Z " fill="#608C5D" transform="translate(243.625,228.9375)"/>
<path d="M0 0 C5.09647717 0.48796058 8.66704554 2.30638503 12.875 5.0625 C13.76445312 5.62807617 13.76445312 5.62807617 14.671875 6.20507812 C16.12027322 7.12784796 17.56096031 8.06270263 19 9 C18.67 9.66 18.34 10.32 18 11 C16.68 10.67 15.36 10.34 14 10 C14 9.34 14 8.68 14 8 C13.01 8.33 12.02 8.66 11 9 C10.34 8.67 9.68 8.34 9 8 C9 7.34 9 6.68 9 6 C7.88625 5.9071875 7.88625 5.9071875 6.75 5.8125 C3.1814261 4.75814862 2.07754772 3.00090227 0 0 Z " fill="#729A67" transform="translate(194,135)"/>
<path d="M0 0 C1.32 0.66 2.64 1.32 4 2 C-0.95 4.64 -5.9 7.28 -11 10 C-11 8.02 -11 6.04 -11 4 C-7.54941314 1.69960876 -5.05904498 1.5261725 -1 1 C-0.67 0.67 -0.34 0.34 0 0 Z " fill="#061005" transform="translate(177,142)"/>
<path d="M0 0 C0.556875 0.226875 1.11375 0.45375 1.6875 0.6875 C1.1925 1.285625 0.6975 1.88375 0.1875 2.5 C-1.59526418 4.65779994 -1.59526418 4.65779994 -1.3125 7.6875 C-4.6125 7.3575 -7.9125 7.0275 -11.3125 6.6875 C-4.51779801 -0.61051325 -4.51779801 -0.61051325 0 0 Z " fill="#7BAA64" transform="translate(184.3125,142.3125)"/>
<path d="M0 0 C0.144375 0.61875 0.28875 1.2375 0.4375 1.875 C0.93152225 4.03258322 0.93152225 4.03258322 2 6 C-1.44069624 8.29379749 -2.72290301 9 -7 9 C-8.125 5.25 -8.125 5.25 -7 3 C-4.69034152 1.94647157 -2.3570226 0.94280904 0 0 Z " fill="#618C62" transform="translate(241,274)"/>
<path d="M0 0 C3.7602985 0.58107632 6.53035032 1.65199496 9.8125 3.5625 C10.60269531 4.01753906 11.39289063 4.47257813 12.20703125 4.94140625 C12.79871094 5.29074219 13.39039063 5.64007813 14 6 C13.625 7.9375 13.625 7.9375 13 10 C12.01 10.495 12.01 10.495 11 11 C10.67 9.35 10.34 7.7 10 6 C7.69 5.67 5.38 5.34 3 5 C2.87625 4.360625 2.7525 3.72125 2.625 3.0625 C2.315625 2.0415625 2.315625 2.0415625 2 1 C1.34 0.67 0.68 0.34 0 0 Z " fill="#78A06E" transform="translate(214,146)"/>
<path d="M0 0 C3.96 0 7.92 0 12 0 C12.33 0.99 12.66 1.98 13 3 C8.02936879 3.91297308 3.97063121 3.91297308 -1 3 C-0.67 2.01 -0.34 1.02 0 0 Z " fill="#6F9B70" transform="translate(240,230)"/>
<path d="M0 0 C2.97 0.495 2.97 0.495 6 1 C5.67 1.99 5.34 2.98 5 4 C5.99 4 6.98 4 8 4 C8.33 3.34 8.66 2.68 9 2 C12 5.75 12 5.75 12 8 C12.99 8.33 13.98 8.66 15 9 C10.70790601 9.34800762 8.33970487 8.41128697 4.6875 6.1875 C3.80449219 5.66542969 2.92148438 5.14335937 2.01171875 4.60546875 C1.01591797 3.81076172 1.01591797 3.81076172 0 3 C0 2.01 0 1.02 0 0 Z " fill="#487A43" transform="translate(184,202)"/>
<path d="M0 0 C0.33 0.66 0.66 1.32 1 2 C0.67 2.66 0.34 3.32 0 4 C0.66 4 1.32 4 2 4 C2.33 5.65 2.66 7.3 3 9 C1.35 9.66 -0.3 10.32 -2 11 C-3.07525194 8.34771188 -4.09456151 5.71631546 -5 3 C-3.35 2.01 -1.7 1.02 0 0 Z " fill="#08110A" transform="translate(256,256)"/>
<path d="M0 0 C-9.22551253 6.70387244 -9.22551253 6.70387244 -15 7 C-15 6.34 -15 5.68 -15 5 C-14.38125 4.9175 -13.7625 4.835 -13.125 4.75 C-12.073125 4.37875 -12.073125 4.37875 -11 4 C-10.690625 3.34 -10.38125 2.68 -10.0625 2 C-9 0 -9 0 -6.625 -0.8125 C-4.08152045 -0.99417711 -2.42302174 -0.67535287 0 0 Z " fill="#789C6C" transform="translate(211,203)"/>
<path d="M0 0 C2.5 -0.3125 2.5 -0.3125 5 0 C5.66 0.66 6.32 1.32 7 2 C6.625 4.625 6.625 4.625 6 7 C5.67 7 5.34 7 5 7 C4.67 5.35 4.34 3.7 4 2 C3.01 1.67 2.02 1.34 1 1 C1.309375 1.598125 1.61875 2.19625 1.9375 2.8125 C3 5 3 5 4 8 C2.35 7.67 0.7 7.34 -1 7 C-1.625 5.1875 -1.625 5.1875 -2 3 C-1.34 2.01 -0.68 1.02 0 0 Z " fill="#111D11" transform="translate(277,222)"/>
<path d="M0 0 C0.33 0 0.66 0 1 0 C1 2.64 1 5.28 1 8 C2.1446875 8.433125 2.1446875 8.433125 3.3125 8.875 C6 10 6 10 9 12 C7.68 13.32 6.36 14.64 5 16 C2.21366246 14.60683123 2.06507306 12.84019484 1 10 C0.67 9.67 0.34 9.34 0 9 C-0.07179964 7.48071962 -0.08392007 5.95832518 -0.0625 4.4375 C-0.05347656 3.61121094 -0.04445313 2.78492188 -0.03515625 1.93359375 C-0.02355469 1.29550781 -0.01195312 0.65742188 0 0 Z " fill="#0B140A" transform="translate(353,169)"/>
<path d="M0 0 C0.33 0.66 0.66 1.32 1 2 C1.66 2 2.32 2 3 2 C4.14947895 5.55293493 4.0868937 6.79976669 2.5625 10.3125 C1.7890625 11.6428125 1.7890625 11.6428125 1 13 C0.34 13 -0.32 13 -1 13 C-1.17942163 9.05272412 -1.09350689 6.4019487 1 3 C0.34 2.67 -0.32 2.34 -1 2 C-0.67 1.34 -0.34 0.68 0 0 Z " fill="#66A35F" transform="translate(169,170)"/>
<path d="M0 0 C0.66 0 1.32 0 2 0 C2 2.97 2 5.94 2 9 C1.34 8.34 0.68 7.68 0 7 C-1.65 9.31 -3.3 11.62 -5 14 C-6 11 -6 11 -4.78515625 8.30078125 C-4.21667969 7.31464844 -3.64820313 6.32851562 -3.0625 5.3125 C-2.49660156 4.31863281 -1.93070313 3.32476562 -1.34765625 2.30078125 C-0.90292969 1.54152344 -0.45820313 0.78226563 0 0 Z " fill="#448740" transform="translate(226,157)"/>
<path d="M0 0 C2.6091649 1.30458245 2.9925109 2.28255235 4 5 C3.9765625 7.796875 3.9765625 7.796875 3.625 10.75 C3.45871094 12.22726563 3.45871094 12.22726563 3.2890625 13.734375 C3.14597656 14.85585937 3.14597656 14.85585937 3 16 C2.34 16 1.68 16 1 16 C1 12.7 1 9.4 1 6 C-1.31 5.01 -3.62 4.02 -6 3 C-6 2.67 -6 2.34 -6 2 C-4.02 2 -2.04 2 0 2 C0 1.34 0 0.68 0 0 Z " fill="#0E1A0C" transform="translate(256,240)"/>
<path d="M0 0 C3.0625 0.1875 3.0625 0.1875 5.0625 2.1875 C4.4025 2.1875 3.7425 2.1875 3.0625 2.1875 C3.0625 2.8475 3.0625 3.5075 3.0625 4.1875 C2.258125 4.001875 1.45375 3.81625 0.625 3.625 C-0.6434375 3.4084375 -0.6434375 3.4084375 -1.9375 3.1875 C-2.2675 3.5175 -2.5975 3.8475 -2.9375 4.1875 C-4.45678038 4.25929964 -5.97917482 4.27142007 -7.5 4.25 C-8.32628906 4.24097656 -9.15257812 4.23195312 -10.00390625 4.22265625 C-10.64199219 4.21105469 -11.28007812 4.19945312 -11.9375 4.1875 C-11.9375 3.8575 -11.9375 3.5275 -11.9375 3.1875 C-11.37160156 3.05472656 -10.80570313 2.92195312 -10.22265625 2.78515625 C-9.12244141 2.52025391 -9.12244141 2.52025391 -8 2.25 C-7.26910156 2.07597656 -6.53820312 1.90195313 -5.78515625 1.72265625 C-3.00185456 0.9164991 -3.25599325 0.20782936 0 0 Z " fill="#628B5F" transform="translate(250.9375,242.8125)"/>
<path d="M0 0 C2.475 0.99 2.475 0.99 5 2 C4.67 2.66 4.34 3.32 4 4 C6.475 4.99 6.475 4.99 9 6 C6.36660729 6.97533063 5.07651653 7.019574 2.3125 6.3125 C0 5 0 5 -0.875 2.9375 C-0.91625 2.298125 -0.9575 1.65875 -1 1 C-0.67 0.67 -0.34 0.34 0 0 Z M6 2 C6.99 2.495 6.99 2.495 8 3 C8 3.66 8 4.32 8 5 C7.34 5 6.68 5 6 5 C6 4.01 6 3.02 6 2 Z " fill="#0E1A0E" transform="translate(237,235)"/>
<path d="M0 0 C1.32 0.33 2.64 0.66 4 1 C4.33 2.32 4.66 3.64 5 5 C5.66 3.68 6.32 2.36 7 1 C7 2.65 7 4.3 7 6 C5.02 6.99 5.02 6.99 3 8 C2.34 7.34 1.68 6.68 1 6 C0.67 6 0.34 6 0 6 C0 4.02 0 2.04 0 0 Z " fill="#546554" transform="translate(278,223)"/>
<path d="M0 0 C0.33 0.66 0.66 1.32 1 2 C3.02463255 2.65213292 3.02463255 2.65213292 5 3 C3.87926138 3.83905565 2.75325453 4.67107831 1.625 5.5 C0.99851563 5.9640625 0.37203125 6.428125 -0.2734375 6.90625 C-2 8 -2 8 -4 8 C-2.66666667 5.33333333 -1.33333333 2.66666667 0 0 Z " fill="#568350" transform="translate(218,193)"/>
<path d="M0 0 C0.66 0 1.32 0 2 0 C2 2.31 2 4.62 2 7 C0.35 7.33 -1.3 7.66 -3 8 C-1.125 2.25 -1.125 2.25 0 0 Z " fill="#3A8935" transform="translate(168,184)"/>
<path d="M0 0 C1.09658936 3.28976808 0.79953138 4.71303767 0 8 C-0.66 8 -1.32 8 -2 8 C-2 7.34 -2 6.68 -2 6 C-2.66 6 -3.32 6 -4 6 C-4 4.35 -4 2.7 -4 1 C-2.68 0.67 -1.36 0.34 0 0 Z " fill="#60A05D" transform="translate(361,168)"/>
<path d="M0 0 C3.125 0.75 3.125 0.75 6 2 C6.33 2.66 6.66 3.32 7 4 C6.67 4.66 6.34 5.32 6 6 C5.34 6 4.68 6 4 6 C4 5.34 4 4.68 4 4 C2.02 4 0.04 4 -2 4 C-2.33 3.34 -2.66 2.68 -3 2 C-2.01 1.34 -1.02 0.68 0 0 Z " fill="#719870" transform="translate(257,218)"/>
<path d="M0 0 C1.32 0.33 2.64 0.66 4 1 C3.67 1.99 3.34 2.98 3 4 C0.4375 5.1875 0.4375 5.1875 -2 6 C-2.33 4.68 -2.66 3.36 -3 2 C-2.01 2 -1.02 2 0 2 C0 1.34 0 0.68 0 0 Z " fill="#080808" transform="translate(224,206)"/>
<path d="M0 0 C5.36716665 -0.83861979 8.79627239 2.07929595 13 5 C10.34501768 6.0169313 9.30844625 6.13022151 6.640625 5.00390625 C5.85171875 4.52824219 5.0628125 4.05257812 4.25 3.5625 C3.45078125 3.08941406 2.6515625 2.61632812 1.828125 2.12890625 C1.22484375 1.75636719 0.6215625 1.38382813 0 1 C0 0.67 0 0.34 0 0 Z " fill="#497448" transform="translate(170,196)"/>
<path d="M0 0 C0.66 0.33 1.32 0.66 2 1 C0.74874616 4.75376152 -0.5652404 5.24073289 -4 7 C-4.66 7 -5.32 7 -6 7 C-3 1 -3 1 0 0 Z " fill="#669264" transform="translate(249,272)"/>
<path d="M0 0 C0.98484375 0.11085937 1.9696875 0.22171875 2.984375 0.3359375 C3.73203125 0.43132812 4.4796875 0.52671875 5.25 0.625 C5.25 0.955 5.25 1.285 5.25 1.625 C2.27148438 1.96679688 2.27148438 1.96679688 -0.70703125 2.30859375 C-2.94396393 2.59670735 -2.94396393 2.59670735 -5.75 3.625 C-7.07 3.625 -8.39 3.625 -9.75 3.625 C-9.75 2.965 -9.75 2.305 -9.75 1.625 C-6.30824478 -0.52199969 -3.9779708 -0.47356795 0 0 Z " fill="#628962" transform="translate(242.75,254.375)"/>
<path d="M0 0 C0.66 0.33 1.32 0.66 2 1 C-0.76922851 4.07692057 -3.02850024 5.77800007 -7 7 C-7.99 7 -8.98 7 -10 7 C-6.81404865 4.36021174 -3.69029454 1.89501612 0 0 Z " fill="#101E0D" transform="translate(210,203)"/>
<path d="M0 0 C1.98 0.495 1.98 0.495 4 1 C4 1.66 4 2.32 4 3 C4.9590625 3.1546875 4.9590625 3.1546875 5.9375 3.3125 C6.618125 3.539375 7.29875 3.76625 8 4 C8.33 4.99 8.66 5.98 9 7 C5.40608886 5.66511872 2.24509304 4.03977277 -1 2 C-0.67 1.34 -0.34 0.68 0 0 Z " fill="#081506" transform="translate(217,144)"/>
<path d="M0 0 C-0.33 1.32 -0.66 2.64 -1 4 C-2.32 4.33 -3.64 4.66 -5 5 C-5.66 3.68 -6.32 2.36 -7 1 C-3.375 -1.125 -3.375 -1.125 0 0 Z " fill="#729873" transform="translate(255,269)"/>
<path d="M0 0 C0 0.99 0 1.98 0 3 C-3.3 2.67 -6.6 2.34 -10 2 C-9.67 1.34 -9.34 0.68 -9 0 C-2.57142857 -1.28571429 -2.57142857 -1.28571429 0 0 Z " fill="#7CB860" transform="translate(183,147)"/>
<path d="M0 0 C-0.33 1.32 -0.66 2.64 -1 4 C-5.875 2.25 -5.875 2.25 -7 0 C-3.86650268 -1.04449911 -3.01031744 -0.93423645 0 0 Z " fill="#6F9670" transform="translate(235,278)"/>
<path d="M0 0 C0.66 0.33 1.32 0.66 2 1 C-1.3995585 5.73509934 -1.3995585 5.73509934 -4.125 6.9375 C-4.74375 6.958125 -5.3625 6.97875 -6 7 C-6.66 6.34 -7.32 5.68 -8 5 C-6.71475739 4.13619741 -5.42157581 3.28419631 -4.125 2.4375 C-3.04605469 1.72400391 -3.04605469 1.72400391 -1.9453125 0.99609375 C-1.30335938 0.66738281 -0.66140625 0.33867187 0 0 Z " fill="#0E1D0C" transform="translate(266,265)"/>
<path d="M0 0 C2.64 0 5.28 0 8 0 C8 0.66 8 1.32 8 2 C6.35 2.33 4.7 2.66 3 3 C3.33 3.66 3.66 4.32 4 5 C2.68 5.33 1.36 5.66 0 6 C0 4.02 0 2.04 0 0 Z " fill="#628A61" transform="translate(213,265)"/>
<path d="M0 0 C1.98 0 3.96 0 6 0 C6.33 1.65 6.66 3.3 7 5 C4.69 4.01 2.38 3.02 0 2 C0 1.34 0 0.68 0 0 Z " fill="#668C62" transform="translate(240,212)"/>
<path d="M0 0 C0.66 0.33 1.32 0.66 2 1 C1.2884375 1.6496875 1.2884375 1.6496875 0.5625 2.3125 C-1.23686957 4.02309613 -1.23686957 4.02309613 -2 7 C-5 5 -5 5 -6 3 C-4.03533587 1.93224776 -2.03144641 0.93446535 0 0 Z " fill="#1D1B1D" transform="translate(356,162)"/>
<path d="M0 0 C0.66 0.33 1.32 0.66 2 1 C2 1.66 2 2.32 2 3 C0.02 3.99 -1.96 4.98 -4 6 C-4.33 5.01 -4.66 4.02 -5 3 C-2.625 1.4375 -2.625 1.4375 0 0 Z " fill="#050F07" transform="translate(206,218)"/>
<path d="M0 0 C0.33 0 0.66 0 1 0 C1 3.63 1 7.26 1 11 C0.34 11 -0.32 11 -1 11 C-2.26264601 6.70700357 -1.62950412 4.12168689 0 0 Z " fill="#508C4D" transform="translate(227,176)"/>
<path d="M0 0 C1.65 0.33 3.3 0.66 5 1 C3.35 2.32 1.7 3.64 0 5 C-0.66 4.67 -1.32 4.34 -2 4 C-1.34 2.68 -0.68 1.36 0 0 Z " fill="#0B0C0A" transform="translate(238,272)"/>
<path d="M0 0 C0.66 0.33 1.32 0.66 2 1 C1.25 2.9375 1.25 2.9375 0 5 C-2.125 5.75 -2.125 5.75 -4 6 C-3.6875 4.125 -3.6875 4.125 -3 2 C-2.01 1.34 -1.02 0.68 0 0 Z " fill="#071308" transform="translate(211,224)"/>
<path d="M0 0 C0.66 0.33 1.32 0.66 2 1 C0.68 2.65 -0.64 4.3 -2 6 C-2.99 5.67 -3.98 5.34 -5 5 C-5 4.34 -5 3.68 -5 3 C-2.625 1.3125 -2.625 1.3125 0 0 Z " fill="#080F0A" transform="translate(227,215)"/>
<path d="M0 0 C0.33 0.66 0.66 1.32 1 2 C0.06553465 4.03144641 -0.93224776 6.03533587 -2 8 C-2.66 7.67 -3.32 7.34 -4 7 C-4 5.68 -4 4.36 -4 3 C-2 1.25 -2 1.25 0 0 Z " fill="#639064" transform="translate(257,265)"/>
<path d="M0 0 C1.98 0 3.96 0 6 0 C5.67 1.65 5.34 3.3 5 5 C4.01 4.67 3.02 4.34 2 4 C2 3.34 2 2.68 2 2 C1.34 2 0.68 2 0 2 C0 1.34 0 0.68 0 0 Z " fill="#010202" transform="translate(238,235)"/>
</svg>
