<?xml version="1.0" encoding="UTF-8"?>
<svg version="1.1" xmlns="http://www.w3.org/2000/svg" width="2400" height="2400">
<path d="M0 0 C792 0 1584 0 2400 0 C2400 792 2400 1584 2400 2400 C1608 2400 816 2400 0 2400 C0 1608 0 816 0 0 Z " fill="#00D7FE" transform="translate(0,0)"/>
<path d="M0 0 C792 0 1584 0 2400 0 C2400 792 2400 1584 2400 2400 C1608 2400 816 2400 0 2400 C0 1608 0 816 0 0 Z M1442.53222656 264.58544922 C1440.09386985 265.94756249 1437.64138535 267.27827876 1435.1796875 268.59765625 C1402.76669709 286.01265375 1371.7379489 306.35486783 1342 328 C1341.26249512 328.53463867 1340.52499023 329.06927734 1339.76513672 329.62011719 C1323.02832608 341.77410615 1306.74027803 354.46080713 1290.74414062 367.57177734 C1289.17091076 368.86004648 1287.59351752 370.14322725 1286.015625 371.42578125 C1280.56662285 375.85900121 1275.18460067 380.36438808 1269.83520508 384.91674805 C1266.43017203 387.80918463 1262.98256237 390.63828926 1259.5 393.4375 C1254.11714063 397.8145112 1249.05728658 402.49554127 1243.98828125 407.2265625 C1241.6964159 409.36354314 1239.37241243 411.45223348 1237 413.5 C1231.79591056 418.00584684 1226.77829269 422.71698799 1221.73193359 427.39746094 C1219.99859719 429.00129801 1218.25998461 430.59920374 1216.51953125 432.1953125 C1210.89817781 437.35449424 1205.33458878 442.54135101 1200 448 C1193.93258415 443.83608716 1188.92011622 439.04047716 1183.78271484 433.81616211 C1180.33432733 430.31531434 1176.82657488 426.97833246 1173.078125 423.796875 C1170.9189633 421.92993068 1168.82420486 420.00067349 1166.73242188 418.05883789 C1161.54544265 413.24481625 1156.23033852 408.68539442 1150.71484375 404.24609375 C1147.89326505 401.9116941 1145.19409288 399.48009402 1142.5 397 C1137.17368912 392.10493872 1131.63059305 387.5382098 1126 383 C1124.22848705 381.5424923 1122.45765983 380.08415078 1120.6875 378.625 C1114.84402482 373.8462258 1108.91647126 369.1801675 1102.96582031 364.53613281 C1100.89882862 362.92094259 1098.83609217 361.30041162 1096.7734375 359.6796875 C1057.40133785 328.81199623 1015.75833605 300.29762561 972 276 C970.61868896 275.23212158 970.61868896 275.23212158 969.20947266 274.44873047 C958.38286134 268.44756712 947.51117212 262.5688865 936.37597656 257.15917969 C933.56481825 255.78768568 930.76359444 254.39659434 927.9609375 253.0078125 C856.72482176 217.9344213 771.86923784 190.91074997 692 207 C691.08734375 207.17128418 690.1746875 207.34256836 689.234375 207.51904297 C654.87840033 214.05496578 624.33053161 231.21445117 599 255 C598.47390137 255.49209961 597.94780273 255.98419922 597.40576172 256.49121094 C557.62749896 294.00660399 535.25105476 348.48834315 523.66748047 400.98876953 C523.00778681 403.96487107 522.32105968 406.93364284 521.62890625 409.90234375 C518.89800355 421.78122094 516.83474558 433.62373632 515.39453125 445.72509766 C515.03228642 448.73199873 514.64988769 451.7358296 514.26286316 454.73962402 C511.35557082 477.44981821 509.65677798 500.11494783 509 523 C508.96039154 524.32242706 508.96039154 524.32242706 508.91998291 525.67156982 C508.1270259 553.25688123 509.29229004 580.61950882 511.25 608.125 C511.30151844 608.859641 511.35303688 609.594282 511.40611649 610.35118484 C512.88018104 631.35332702 515.0846699 652.14534007 518 673 C518.27702576 675.0195079 518.55389243 677.03903763 518.83056641 679.05859375 C519.58671996 684.52267492 520.37729876 689.98118685 521.1875 695.4375 C521.33140167 696.40748932 521.47530334 697.37747864 521.62356567 698.37686157 C526.92675036 733.86735024 533.83877302 769.06031499 542 804 C542.27392578 805.17320801 542.54785156 806.34641602 542.83007812 807.55517578 C544.19493533 813.37634307 545.5819771 819.19156003 547 825 C546.38833984 825.1124707 545.77667969 825.22494141 545.14648438 825.34082031 C539.14330268 826.48679876 533.33915054 827.95410703 527.5 829.75 C526.63979248 830.01095459 525.77958496 830.27190918 524.89331055 830.54077148 C518.51726901 832.49152335 512.18031304 834.55141316 505.87890625 836.73144531 C501.70148814 838.16023743 497.49681068 839.44623678 493.25447083 840.67008972 C483.26496231 843.555018 473.43481308 846.80623315 463.625 850.25 C462.77905273 850.54624268 461.93310547 850.84248535 461.06152344 851.14770508 C380.61420892 879.40874219 300.7511566 915.59717351 231 965 C230.27329102 965.5141748 229.54658203 966.02834961 228.79785156 966.55810547 C215.23340969 976.18625621 202.07686934 986.21076151 189.45458984 997.04760742 C187.24973805 998.93701879 185.03425146 1000.81219838 182.8059082 1002.67382812 C174.65652759 1009.51629965 166.97176441 1016.71404298 159.4753418 1024.26391602 C157.67784195 1026.07221608 155.86977684 1027.86945977 154.06054688 1029.66601562 C147.24702401 1036.47181071 140.97171754 1043.43593113 135 1051 C134.12552291 1052.03981001 133.24539583 1053.07494434 132.35546875 1054.1015625 C102.07436078 1089.34768097 75.36067591 1138.56627147 74.7265625 1185.9921875 C74.71417038 1186.84756607 74.70177826 1187.70294464 74.68901062 1188.58424377 C74.6567121 1191.34786911 74.63782061 1194.1112175 74.625 1196.875 C74.62043793 1197.8153006 74.61587585 1198.7556012 74.61117554 1199.72439575 C74.5845337 1215.05162724 75.88937671 1229.16917978 80 1244 C80.23501221 1244.90073242 80.47002441 1245.80146484 80.7121582 1246.72949219 C92.94250194 1293.14207868 120.04499601 1332.02437375 152 1367 C152.90014558 1368.00484479 153.79986407 1369.01007228 154.69921875 1370.015625 C161.80798821 1377.90675691 169.35858925 1385.19631835 177.20117188 1392.35400391 C178.88779429 1393.89732751 180.56312557 1395.4517824 182.234375 1397.01171875 C188.61275542 1402.94950749 195.18020865 1408.57558601 202 1414 C202.50692383 1414.40653809 203.01384766 1414.81307617 203.53613281 1415.23193359 C247.08756214 1450.13966945 295.40643571 1480.42713085 345.60498047 1504.83349609 C347.35083189 1505.68382006 349.09433412 1506.53897227 350.83642578 1507.39697266 C377.37999624 1520.46631046 404.4927899 1532.1069058 432 1543 C432.62289917 1543.24687561 433.24579834 1543.49375122 433.88757324 1543.74810791 C488.35928382 1565.93639282 488.35928382 1565.93639282 545 1581 C544.35922589 1587.43035663 542.95769278 1593.44628749 541.3125 1599.6875 C538.01423078 1612.53223161 535.33595609 1625.47691477 532.71582031 1638.47412109 C531.81582179 1642.90719705 530.88658057 1647.33381307 529.95458984 1651.76025391 C527.16003688 1665.0444749 524.50063084 1678.28815597 522.60913086 1691.73388672 C522.04053125 1695.74991681 521.44067336 1699.76098697 520.83895874 1703.77217102 C517.67374127 1724.90760773 514.66760754 1746.02899113 512.6875 1767.3125 C512.61259338 1768.11192017 512.53768677 1768.91134033 512.46051025 1769.73498535 C512.01282484 1774.57661092 511.60583752 1779.42051678 511.22171021 1784.26757812 C511.06737482 1786.1696529 510.90593047 1788.07115864 510.73898315 1789.97216797 C509.04307314 1809.30947522 508.65487293 1828.52528264 508.68432617 1847.92285156 C508.68893432 1851.20652045 508.6820985 1854.48981675 508.66381836 1857.7734375 C508.53040266 1881.99129973 509.70276543 1905.89240788 512 1930 C512.06708916 1930.70813717 512.13417831 1931.41627434 512.20330048 1932.14587021 C514.03712472 1951.640974 514.03712472 1951.640974 517.5390625 1970.88720703 C518.33470193 1974.53416871 519.0253616 1978.20186696 519.73706055 1981.8659668 C520.59158216 1986.23145055 521.47833318 1990.58996021 522.37353516 1994.94726562 C522.76104135 1996.83556548 523.14437824 1998.72473276 523.52099609 2000.61523438 C534.02780378 2052.67881873 558.28917931 2103.50097314 595 2142 C595.83789062 2142.90234375 596.67578125 2143.8046875 597.5390625 2144.734375 C609.26972783 2156.99664147 623.13558715 2166.88755773 638 2175 C638.62696777 2175.34369629 639.25393555 2175.68739258 639.89990234 2176.04150391 C660.68831276 2187.28233176 682.74394012 2193.453968 706 2197 C707.05050537 2197.17208984 708.10101074 2197.34417969 709.18334961 2197.52148438 C719.64050611 2199.10289627 729.88097145 2199.31853837 740.4375 2199.25 C741.31938995 2199.24623352 742.20127991 2199.24246704 743.1098938 2199.23858643 C782.21571114 2199.0432849 819.90860721 2192.35946778 857 2180 C858.05300293 2179.65340332 859.10600586 2179.30680664 860.19091797 2178.94970703 C906.78462981 2163.55554259 951.26071366 2142.65991067 993.39306641 2117.54296875 C995.69135719 2116.18267677 998.00132937 2114.84892199 1000.32421875 2113.53125 C1012.38118125 2106.66076943 1023.83897154 2098.89419089 1035.33718872 2091.13970947 C1039.05022283 2088.63575842 1042.77742485 2086.15463397 1046.51513672 2083.68774414 C1054.14643077 2078.64478767 1061.60012714 2073.37466601 1069 2068 C1069.59248535 2067.57106445 1070.1849707 2067.14212891 1070.79541016 2066.70019531 C1092.52166806 2050.95551526 1113.72525211 2034.472876 1134.16210938 2017.0859375 C1137.59040745 2014.17412087 1141.05974315 2011.32236523 1144.5625 2008.5 C1149.63607493 2004.37309794 1154.43741142 1999.99897442 1159.23046875 1995.5546875 C1161.45918393 1993.49886278 1163.70767919 1991.48383043 1166 1989.5 C1170.87617767 1985.2672767 1175.61464318 1980.88474819 1180.36181641 1976.50878906 C1182.0555154 1974.94886957 1183.75218487 1973.39222778 1185.44921875 1971.8359375 C1186.59123546 1970.78655586 1187.73316473 1969.73707906 1188.875 1968.6875 C1189.39795654 1968.20837158 1189.92091309 1967.72924316 1190.4597168 1967.2355957 C1194.06761291 1963.91279064 1197.54970822 1960.48633961 1201 1957 C1206.44925664 1958.46911126 1209.53858591 1962.24372193 1213.3125 1966.1875 C1214.66097967 1967.56684731 1216.01121687 1968.94447881 1217.36328125 1970.3203125 C1217.96438721 1970.93922363 1218.56549316 1971.55813477 1219.18481445 1972.19580078 C1221.61730168 1974.61356549 1224.17173732 1976.86416088 1226.79296875 1979.07421875 C1230.05114692 1981.91719545 1233.16807495 1984.90735901 1236.3125 1987.875 C1241.48655113 1992.74372028 1246.76986134 1997.3577115 1252.32421875 2001.79296875 C1255.31497661 2004.25979822 1258.16343606 2006.85989035 1261 2009.5 C1265.5826886 2013.75860815 1270.29944785 2017.77979827 1275.17578125 2021.703125 C1277.66253554 2023.72554757 1280.10330205 2025.79219989 1282.53295898 2027.88256836 C1288.70745731 2033.18595206 1295.07234491 2038.18278601 1301.56323242 2043.09277344 C1306.25727237 2046.64808476 1310.86678178 2050.28801535 1315.4375 2054 C1322.9940894 2060.10722891 1330.85120993 2065.75932866 1338.76318359 2071.39404297 C1340.86311354 2072.90172024 1342.94431943 2074.43120179 1345.01953125 2075.97265625 C1373.54331785 2097.07489335 1404.02990739 2115.74227315 1435 2133 C1435.95616211 2133.53560547 1436.91232422 2134.07121094 1437.89746094 2134.62304688 C1480.80838321 2158.55709204 1526.27917084 2177.99644243 1574 2190 C1574.88333008 2190.22284668 1575.76666016 2190.44569336 1576.67675781 2190.67529297 C1587.51806339 2193.36879733 1598.40187422 2195.51619549 1609.4375 2197.25 C1610.98099121 2197.49484131 1610.98099121 2197.49484131 1612.55566406 2197.74462891 C1625.87772358 2199.73720837 1639.2321914 2200.2094122 1652.6875 2200.1875 C1653.38276794 2200.18689575 1654.07803589 2200.1862915 1654.79437256 2200.18566895 C1666.29293599 2200.15871174 1677.61652258 2199.7118875 1689 2198 C1689.89364258 2197.86577637 1690.78728516 2197.73155273 1691.70800781 2197.59326172 C1721.2826336 2192.98721014 1749.5758554 2182.52791553 1774 2165 C1775.01707031 2164.28199219 1776.03414062 2163.56398438 1777.08203125 2162.82421875 C1801.24639798 2145.14181951 1819.82169901 2121.53205222 1835 2096 C1835.69971924 2094.82727539 1835.69971924 2094.82727539 1836.41357422 2093.63085938 C1867.0838373 2041.62989529 1880.95285227 1979.70753851 1886.78710938 1920.14324951 C1887.00042573 1917.99571404 1887.22576972 1915.84970379 1887.453125 1913.70361328 C1896.82911448 1823.6080499 1886.76419758 1731.65730647 1859.62744141 1594.90991211 C1859.37679176 1593.90605217 1859.37679176 1593.90605217 1859.12107849 1592.88191223 C1858.66892553 1591.07408383 1858.21102494 1589.26769565 1857.75268555 1587.46142578 C1856.92127454 1583.63795993 1856.4335341 1579.88716944 1856 1576 C1856.93642334 1575.7097998 1857.87284668 1575.41959961 1858.83764648 1575.12060547 C1939.9298531 1549.94259511 2020.46344715 1520.10784138 2102.38037109 1473.55126953 C2105.16699312 1471.90111144 2107.96794802 1470.27695523 2110.76953125 1468.65234375 C2135.38822615 1454.25017856 2159.39218302 1438.39851138 2182 1421 C2182.63341309 1420.5153125 2183.26682617 1420.030625 2183.91943359 1419.53125 C2195.1507066 1410.91387504 2205.99242211 1401.83964895 2216.45825195 1392.30664062 C2218.0664902 1390.84716171 2219.68090247 1389.39443265 2221.30371094 1387.95117188 C2227.4074384 1382.51948368 2233.28796307 1376.90455536 2239.0625 1371.125 C2239.93938477 1370.24803467 2240.81626953 1369.37106934 2241.71972656 1368.4675293 C2246.86924514 1363.2722907 2251.7373728 1358.05155011 2256.22265625 1352.26953125 C2257.9486643 1350.06555174 2259.77754015 1348.0449674 2261.6875 1346 C2300.53468356 1302.52815173 2324.62213984 1244.15158915 2321.89160156 1185.67871094 C2320.61856505 1163.98133673 2314.5748857 1142.88125674 2306 1123 C2305.63422852 1122.15018555 2305.26845703 1121.30037109 2304.89160156 1120.42480469 C2295.94105875 1099.98734647 2284.36661411 1081.08786325 2270.38085938 1063.71875 C2269.16960105 1062.21110173 2267.98129356 1060.68507396 2266.796875 1059.15625 C2262.40995759 1053.52102275 2257.67427264 1048.2746283 2252.80859375 1043.0546875 C2250.7046669 1040.79208777 2248.67445706 1038.47601069 2246.65625 1036.13671875 C2242.95998066 1031.89544469 2239.05096207 1027.90288514 2235.0625 1023.9375 C2234.39798828 1023.26912109 2233.73347656 1022.60074219 2233.04882812 1021.91210938 C2228.53038705 1017.40243346 2223.83925821 1013.16089736 2219 1009 C2217.80877374 1007.95440199 2216.61863955 1006.90755829 2215.4296875 1005.859375 C2207.16613976 998.61510936 2198.73499506 991.66754061 2190 985 C2189.37512695 984.52208008 2188.75025391 984.04416016 2188.10644531 983.55175781 C2163.22423127 964.57422202 2137.13754333 947.58310478 2110 932 C2109.05189453 931.45118164 2108.10378906 930.90236328 2107.12695312 930.33691406 C2074.24493694 911.37487895 2039.9726707 894.72594444 2005 880 C2003.85466797 879.51563477 2002.70933594 879.03126953 2001.52929688 878.53222656 C1993.72696695 875.24956691 1985.87910427 872.09342748 1978 869 C1977.36584167 868.75008301 1976.73168335 868.50016602 1976.07830811 868.24267578 C1955.45329963 860.12026676 1934.61168356 852.69598193 1913.625 845.5625 C1912.51868225 845.18568085 1911.4123645 844.80886169 1910.27252197 844.42062378 C1890.67140762 837.75800824 1870.94177879 831.56434382 1851 826 C1851.36569092 824.26786255 1851.36569092 824.26786255 1851.73876953 822.50073242 C1860.24791933 782.16223606 1868.33276868 741.8175492 1874.67578125 701.07440186 C1874.97582011 699.15470671 1875.28066845 697.23576492 1875.5859375 695.31689453 C1879.06716982 673.31638922 1881.07404886 651.18124372 1883 629 C1883.06036438 628.30531616 1883.12072876 627.61063232 1883.18292236 626.89489746 C1883.53244322 622.84772093 1883.86629007 618.79951694 1884.1875 614.75 C1884.29505615 613.40977783 1884.29505615 613.40977783 1884.40478516 612.04248047 C1885.94384233 591.46554823 1886.24799928 570.87703201 1886.25 550.25 C1886.25022093 549.19875002 1886.25022093 549.19875002 1886.25044632 548.12626266 C1886.24398885 514.80127527 1884.25290918 482.26589412 1879.625 449.25 C1879.48424042 448.24059357 1879.34348083 447.23118713 1879.19845581 446.19119263 C1877.29014203 432.71247398 1874.72257158 419.4999599 1871.54180908 406.2645874 C1870.86501975 403.43582603 1870.22575957 400.59903971 1869.5859375 397.76171875 C1860.20059191 357.7495005 1844.88378618 318.63409589 1821 285 C1820.28457031 283.989375 1819.56914063 282.97875 1818.83203125 281.9375 C1807.61456337 266.57222524 1794.95207614 252.76821087 1780 241 C1779.08476563 240.2678125 1778.16953125 239.535625 1777.2265625 238.78125 C1703.49614332 181.41292385 1600.21532315 196.87383526 1442.53222656 264.58544922 Z " fill="#212222" transform="translate(0,0)"/>
<path d="M0 0 C5.4822623 0.01543781 10.9644247 0.0181321 16.44670486 0.01349151 C70.67106443 -0.03069448 124.83571206 0.85277899 178.97172928 4.20416534 C181.85489198 4.37911992 184.73874068 4.54120325 187.62261581 4.7039212 C190.47285962 4.8663225 193.32261522 5.0362481 196.17227554 5.20855987 C198.11022904 5.32451697 200.04854365 5.43439027 201.986866 5.54400909 C216.79992745 6.48429181 216.79992745 6.48429181 220.11662674 10.01767242 C221.85464943 12.31729502 223.41064631 14.67952097 224.9535408 17.11432159 C225.53903702 18.00340713 226.12453323 18.89249267 226.72777176 19.8085202 C228.59785847 22.65779481 230.43989139 25.52402837 232.2816658 28.39166534 C233.50381813 30.2632886 234.72776066 32.13374416 235.9535408 34.00299346 C238.94227952 38.57059391 241.90796673 43.15256091 244.86388016 47.74145782 C246.44948441 50.2016541 248.0395316 52.65889908 249.63176346 55.11480987 C273.1136278 91.33451277 295.64887688 128.12393079 317.5316658 165.32916534 C318.44625565 166.88377471 318.44625565 166.88377471 319.37932205 168.46979034 C327.34717585 182.03063007 335.17583784 195.66507334 342.8754158 209.37994659 C344.58084871 212.41674339 346.2905268 215.4511257 348.0004158 218.48541534 C354.91038255 230.76597138 361.70166286 243.10472839 368.38713455 255.50885284 C370.41628232 259.27254433 372.45928773 263.02794797 374.51994705 266.77447784 C381.28009125 279.06971364 387.80017888 291.47575786 394.23088455 303.94635284 C396.5617482 308.46451967 398.9189506 312.96691021 401.30730057 317.45489776 C403.40419963 321.40150942 405.47004425 325.36403465 407.5316658 329.32916534 C407.83258133 329.90612152 408.13349686 330.48307769 408.44353104 331.07751739 C410.53705643 335.09433028 412.61241151 339.11990535 414.67012405 343.15518463 C415.36498562 344.51238318 416.06469913 345.86710941 416.76942825 347.21921051 C417.75966191 349.12168833 418.7315028 351.03255418 419.69963455 352.94635284 C420.26964188 354.05607452 420.8396492 355.1657962 421.42692947 356.30914581 C423.03850225 360.71470498 422.02519168 363.20713134 420.16342545 367.43986785 C419.58006927 368.60595077 418.9967131 369.77203369 418.39567947 370.97345245 C418.07343399 371.62159408 417.75118851 372.26973571 417.41917801 372.937518 C416.35189517 375.08018438 415.27598117 377.21838323 414.19963455 379.35650909 C413.44469336 380.86587168 412.69016894 382.3754428 411.93603897 383.88521087 C410.34839419 387.06041066 408.75663753 390.23350382 407.16179276 393.40509307 C405.15263078 397.4010752 403.15212434 401.4013095 401.15445232 405.40304554 C392.94075062 421.85009988 384.59723218 438.18512532 375.67091751 454.2601651 C373.21867335 458.71369694 370.91030117 463.24144287 368.5941658 467.76666534 C364.13774873 476.383485 359.47481467 484.85939786 354.66643143 493.28424346 C350.57794386 500.45237101 346.5823819 507.66812931 342.61580276 514.90405548 C335.73387332 527.4509289 328.64843131 539.86382837 321.37834549 552.19049346 C319.40220644 555.54919832 317.438367 558.91496291 315.4769783 562.28229034 C305.68450997 579.08166656 295.68642699 595.74651823 285.5316658 612.32916534 C284.82918211 613.47727136 284.12670815 614.62538334 283.42424393 615.77350128 C275.39237911 628.89536832 267.29691876 641.97412652 259.03996658 654.95563018 C257.44892844 657.45936486 255.86313048 659.96637006 254.27775955 662.47369659 C247.81291387 672.68339975 241.27097995 682.84079318 234.6566658 692.95416534 C233.9674202 694.0080545 233.27817459 695.06194366 232.56804276 696.14776886 C228.79695981 701.90219907 228.79695981 701.90219907 227.75720596 703.40603912 C226.40600199 705.46444251 226.40600199 705.46444251 224.98031998 708.31112945 C220.29980291 716.61511912 220.29980291 716.61511912 215.58397293 718.51956451 C211.98075068 719.07384741 208.52471261 719.25025347 204.87932205 719.30572784 C203.50249496 719.36850716 202.12589251 719.43638747 200.74954605 719.50894439 C197.09452629 719.68763688 193.44062492 719.7966416 189.78258133 719.89081085 C186.29406788 719.99180309 182.80886936 720.15690068 179.32268143 720.31744659 C172.43120573 720.62365151 165.53878176 720.85047975 158.64380836 721.0612067 C151.83220915 721.27485059 145.02446028 721.55427517 138.21574783 721.8445462 C99.28748854 723.46627902 60.3990607 723.68928622 21.4435463 723.646819 C17.09466576 723.64209734 12.7457889 723.64015276 8.39690614 723.63896376 C-32.48615554 723.62648554 -73.35875828 723.56154412 -114.2183342 722.01666534 C-115.01786011 721.98702823 -115.81738602 721.95739112 -116.64113998 721.92685592 C-125.34334344 721.60161203 -134.03487762 721.19523211 -142.72727203 720.66967189 C-147.70132027 720.38486812 -152.66734388 720.25121224 -157.64861298 720.16639888 C-161.45637444 720.08863281 -165.26048568 719.94753671 -169.06599808 719.79719245 C-170.89640481 719.73878583 -172.72787263 719.70648255 -174.55920792 719.70313346 C-189.5071667 719.65442563 -189.5071667 719.65442563 -195.41279221 713.97165191 C-202.17800108 706.41116048 -206.86182522 697.64059832 -211.28229904 688.57428253 C-214.39849776 682.32690595 -218.39121354 676.66780919 -222.35908127 670.94012725 C-223.8992113 668.70340489 -225.38562108 666.43338299 -226.8667717 664.15729034 C-227.35903244 663.40157745 -227.85129318 662.64586456 -228.35847092 661.86725128 C-228.8484758 661.11218292 -229.33848068 660.35711456 -229.8433342 659.57916534 C-230.38876877 658.73901886 -230.93420334 657.89887237 -231.49616623 657.0332669 C-236.68389628 649.02471799 -241.79341606 640.96824246 -246.86433029 632.88531768 C-247.96763421 631.1270845 -249.07219784 629.36964136 -250.17780685 627.61285675 C-266.06445639 602.36778012 -281.46877071 576.85647098 -296.45661545 551.06939971 C-297.44666435 549.36643916 -298.43795423 547.66420026 -299.4292717 545.96197784 C-312.65445134 523.23626099 -325.41298423 500.25471051 -337.94392014 477.13971221 C-338.98466996 475.22089223 -340.02706036 473.3029614 -341.07087326 471.38580596 C-354.34588948 446.99736908 -367.08648729 422.32686664 -379.41706467 397.44781768 C-380.80222969 394.65625659 -382.19585776 391.86897818 -383.59138107 389.08258331 C-384.24710858 387.77144785 -384.90083535 386.45930941 -385.55231857 385.14605987 C-387.25136442 381.72616317 -388.98824421 378.33206102 -390.77692795 374.95807159 C-391.1538176 374.23587432 -391.53070724 373.51367706 -391.91901779 372.76959503 C-392.64094224 371.38788806 -393.37376675 370.01180179 -394.1192131 368.6426419 C-396.19700786 364.63228019 -396.71222631 362.62746345 -395.4683342 358.32916534 C-394.48228704 356.08738132 -393.42807274 353.87514571 -392.33234787 351.68487823 C-391.84897964 350.71266578 -391.84897964 350.71266578 -391.35584641 349.72081268 C-390.28856357 347.5781463 -389.21264956 345.43994745 -388.13630295 343.30182159 C-387.38136176 341.79245899 -386.62683734 340.28288788 -385.87270737 338.77311981 C-384.28506258 335.59792002 -382.69330592 332.42482686 -381.09846115 329.25323761 C-379.08929662 325.2572504 -377.08878766 321.257011 -375.09111309 317.25526989 C-366.88435995 300.82212915 -358.54198124 284.50564562 -349.62907028 268.44113433 C-346.99316709 263.64508648 -344.51935985 258.76534844 -342.0308342 253.89166534 C-336.86793066 243.87909207 -331.43510087 234.05099634 -325.84724045 224.27057159 C-322.82775162 218.9822564 -319.87310417 213.65988901 -316.9292717 208.32916534 C-309.91038013 195.62006126 -302.70915791 183.03342751 -295.34431076 170.52203643 C-293.32371817 167.08303203 -291.31315101 163.63829952 -289.3042717 160.19244659 C-261.89831706 113.21175462 -232.81589605 67.19108463 -202.33112717 22.14654815 C-200.99411182 20.12437815 -199.70108555 18.07286255 -198.43757248 16.00397003 C-197.41832687 14.36669952 -197.41832687 14.36669952 -196.37849045 12.69635284 C-195.46982224 11.1937088 -195.46982224 11.1937088 -194.54279709 9.66070831 C-191.9064606 6.69766094 -190.36261841 6.55997253 -186.4683342 6.32916534 C-185.71326584 6.27188262 -184.95819748 6.21459991 -184.18024826 6.15558136 C-183.09308517 6.11968902 -183.09308517 6.11968902 -181.9839592 6.08307159 C-172.20983865 5.73643274 -162.47862451 5.20669527 -152.73200607 4.39435089 C-137.17126118 3.15706482 -121.59320782 2.39030973 -105.9995842 1.72369659 C-105.2453813 1.69115791 -104.4911784 1.65861923 -103.71412086 1.62509453 C-69.14020232 0.14119123 -34.60095306 -0.10373023 0 0 Z " fill="#212222" transform="translate(1185.468334197998,838.6708346605301)"/>
<path d="M0 0 C0.17966812 0.56850174 0.35933624 1.13700348 0.54444885 1.72273254 C28.47047108 90.02123199 61.13618298 176.31247099 102.22265625 267.83203125 C102.69461426 268.89244629 103.16657227 269.95286133 103.65283203 271.04541016 C104.50625819 272.9171324 105.39410039 274.77385142 106.32763672 276.60693359 C106.71322754 277.3798877 107.09881836 278.1528418 107.49609375 278.94921875 C107.83697021 279.59592529 108.17784668 280.24263184 108.52905273 280.90893555 C109.64547297 285.86598028 106.06732973 291.19755716 104.0078125 295.58984375 C103.3893832 296.91874622 102.77140569 298.247859 102.15380859 299.57714844 C101.82499695 300.28286987 101.4961853 300.98859131 101.15740967 301.71569824 C76.57137602 354.62617988 54.89875092 408.99023559 34.8237915 463.75720215 C34.01434332 465.96094986 33.20017059 468.16288897 32.38427734 470.36425781 C25.19767172 489.76581013 18.47663469 509.30837829 11.9375 528.9375 C11.56965393 530.04163239 11.20180786 531.14576477 10.82281494 532.28335571 C5.6369598 547.84455328 5.6369598 547.84455328 0.79125977 563.51391602 C-0.02116572 566.06650123 -0.97509429 568.52590714 -2 571 C-7.31526286 570.44613638 -12.08866599 569.53326511 -17.20703125 567.91796875 C-17.87750992 567.70790192 -18.54798859 567.49783508 -19.23878479 567.28140259 C-21.43253645 566.59110826 -23.62261606 565.88995985 -25.8125 565.1875 C-27.36082453 564.69550845 -28.90916466 564.20356598 -30.45751953 563.71166992 C-54.18603468 556.13981766 -77.8627481 548.23780953 -101 539 C-102.48862549 538.40783691 -102.48862549 538.40783691 -104.00732422 537.80371094 C-112.03202804 534.60067038 -120.02367694 531.32155398 -128 528 C-129.7337085 527.27949463 -129.7337085 527.27949463 -131.50244141 526.54443359 C-170.58712772 510.20624249 -209.00622853 491.3753227 -245 469 C-245.78632813 468.51466797 -246.57265625 468.02933594 -247.3828125 467.52929688 C-269.85929912 453.63707102 -292.13082202 438.8489683 -312.10546875 421.49609375 C-314.79314256 419.17838314 -317.53557505 416.95919807 -320.3125 414.75 C-334.15331549 403.47904353 -347.55226715 390.70191962 -359 377 C-359.45213867 376.46697266 -359.90427734 375.93394531 -360.37011719 375.38476562 C-377.90829401 354.65273552 -393.54540612 331.38952761 -401 305 C-401.19142578 304.34467285 -401.38285156 303.6893457 -401.58007812 303.01416016 C-405.67124353 287.24279032 -404.91413354 267.17027744 -399 252 C-398.75862305 251.34209473 -398.51724609 250.68418945 -398.26855469 250.00634766 C-389.32257119 225.67214727 -374.47982472 205.33986814 -357.09375 186.31640625 C-355.29965017 184.33151595 -353.58598419 182.30579989 -351.875 180.25 C-312.92851298 135.63693404 -255.8892373 103.60592191 -204 77 C-203.11618652 76.54447754 -202.23237305 76.08895508 -201.32177734 75.61962891 C-152.3279158 50.44589327 -100.62766201 30.85923241 -48.3125 13.8125 C-47.34136261 13.49603516 -46.37022522 13.17957031 -45.36965942 12.85351562 C-35.58043294 9.67298853 -25.78654871 6.56409666 -15.86865234 3.80639648 C-12.21886562 2.78041814 -8.60309131 1.65778347 -4.98828125 0.515625 C-3 0 -3 0 0 0 Z " fill="#212222" transform="translate(574,917)"/>
<path d="M0 0 C6.04153762 0.66895768 11.90564489 1.73509706 17.84765625 3.00390625 C19.81174334 3.41570591 21.77594112 3.82697786 23.74023438 4.23779297 C24.76979248 4.45385193 25.79935059 4.66991089 26.86010742 4.89251709 C51.69070497 10.08740672 76.60527689 14.54211841 101.6418457 18.61584473 C103.77136095 18.96275354 105.90044399 19.31213911 108.02929688 19.66308594 C115.01396815 20.81297768 122.00370344 21.92327527 129 23 C130.02158203 23.15919922 131.04316406 23.31839844 132.09570312 23.48242188 C146.69881316 25.75009516 161.32409549 27.72024934 176.00195312 29.4296875 C182.55569353 30.19794087 189.09916924 31.00649365 195.63647461 31.90576172 C213.70780092 34.38797168 231.77785208 36.39311295 249.9375 38.125 C252.54496697 38.37844273 255.15238898 38.63234848 257.75976562 38.88671875 C259.03923569 39.01044357 260.31870575 39.1341684 261.63694763 39.26164246 C264.16365589 39.50664347 266.6900834 39.7545595 269.21620178 40.00556946 C275.06334282 40.57640045 280.89382656 41.07421824 286.76147461 41.37573242 C287.81222672 41.4384433 288.86297882 41.50115417 289.9455719 41.56576538 C291.88398381 41.6766663 293.82413647 41.76177688 295.76499939 41.81460571 C300.63178807 42.11187201 303.33721051 42.78485021 306.80175781 46.33544922 C308.91246272 48.90711524 310.81666003 51.52410832 312.3984375 54.45703125 C314.93167495 58.9423742 317.80148357 63.07543444 320.8125 67.25 C321.81321913 68.6752766 322.81320492 70.10106835 323.8125 71.52734375 C329.0675179 78.95384305 334.58785384 86.18531404 340.07226562 93.44287109 C341.98782 95.9838433 343.89397312 98.53157324 345.796875 101.08203125 C353.54905105 111.46876331 361.40812525 121.76238651 369.40380859 131.96289062 C370.89317277 133.86366375 372.37877655 135.76730584 373.86328125 137.671875 C379.21508576 144.52563755 384.66025591 151.29731593 390.15991211 158.03295898 C393.70145123 162.37774462 397.1815548 166.76472067 400.625 171.1875 C405.07149573 176.89026373 409.69141135 182.42321348 414.38671875 187.921875 C416.77882269 190.7270732 419.11455851 193.57463157 421.4375 196.4375 C426.33116358 202.44573465 431.38026792 208.31459133 436.43847656 214.18408203 C438.0025853 216.00300648 439.56081076 217.82680079 441.1171875 219.65234375 C446.33124768 225.7648393 451.58954357 231.82222576 456.98828125 237.7734375 C458.84734669 239.83104391 460.67928358 241.90846763 462.5 244 C465.89857722 247.90207014 469.36373993 251.74192981 472.83203125 255.58203125 C474.64047557 257.5990169 476.4198734 259.63491596 478.1875 261.6875 C480.57482172 264.44428818 483.04023174 267.11386531 485.546875 269.76171875 C486.18471924 270.4369458 486.82256348 271.11217285 487.47973633 271.80786133 C488.77467227 273.17514186 490.07393259 274.53834103 491.37768555 275.8972168 C491.97363525 276.52668213 492.56958496 277.15614746 493.18359375 277.8046875 C493.72556396 278.37171387 494.26753418 278.93874023 494.82592773 279.52294922 C496 281 496 281 496 283 C494.6015625 284.375 494.6015625 284.375 492.625 286 C489.25204852 288.86045355 486.10326523 291.84869661 483 295 C479.53091869 298.50593042 475.99720673 301.82799263 472.25 305.03125 C469.91086515 307.077993 467.63886396 309.18452469 465.36767578 311.3059082 C459.94021156 316.37453834 454.40648047 321.20246504 448.61328125 325.85546875 C446.00152377 327.99874956 443.49634698 330.2238033 441 332.5 C436.80342905 336.3150645 432.49222517 339.94264875 428.08203125 343.5078125 C425.86080631 345.30393609 423.65099623 347.11008536 421.44921875 348.9296875 C411.69248175 356.96765992 401.6754748 364.61345521 391.51708984 372.13574219 C389.07711382 373.94288641 386.64178574 375.75614242 384.20703125 377.5703125 C366.5612007 390.6850124 348.5770873 403.23770616 330 415 C328.54279541 415.92401611 328.54279541 415.92401611 327.05615234 416.86669922 C261.95780191 457.96784856 184.42850038 498.04342998 105.72314453 498.24023438 C103.39969469 498.2498973 101.07714837 498.28100508 98.75390625 498.3125 C73.63966796 498.49002572 49.03507574 492.16889185 30 475 C29.50000488 474.54915039 29.00000977 474.09830078 28.48486328 473.63378906 C4.06863873 451.28874926 -10.48940397 418.76016471 -18.47070312 387.08349609 C-18.96443707 385.13998804 -19.48886804 383.20435007 -20.015625 381.26953125 C-23.1861844 369.32960715 -25.2744031 357.18583014 -27.43676758 345.03076172 C-27.92087298 342.42578362 -28.47448951 339.85112045 -29.05078125 337.265625 C-30.55979474 329.81543563 -30.96137352 322.19109393 -31.5625 314.625 C-31.68891964 313.08589359 -31.81586965 311.54683064 -31.94335938 310.0078125 C-32.23811241 306.43767056 -32.52953474 302.86731916 -32.80841064 299.29589844 C-32.94466358 297.66312029 -33.09704844 296.03165351 -33.26043701 294.40136719 C-34.10525783 285.57111705 -34.14594649 276.78160801 -34.1328125 267.921875 C-34.13348795 266.29909246 -34.13445998 264.67631003 -34.13571167 263.05352783 C-34.13717562 259.67499821 -34.13507525 256.29649525 -34.13037109 252.91796875 C-34.12465619 248.60546132 -34.12797222 244.29301591 -34.13394356 239.98051071 C-34.13756889 236.63807717 -34.13640185 233.29565818 -34.13381577 229.95322418 C-34.1331529 228.36333458 -34.1339523 226.77344362 -34.13629532 225.1835556 C-34.13885648 222.95924915 -34.13493371 220.73504136 -34.12939453 218.51074219 C-34.12859894 217.25009949 -34.12780334 215.98945679 -34.12698364 214.69061279 C-33.99049248 210.72367628 -33.52380407 206.93336345 -33 203 C-32.89592066 201.53105801 -32.81110751 200.0603777 -32.76049805 198.58862305 C-32.73002884 197.82161575 -32.69955963 197.05460846 -32.66816711 196.26435852 C-32.62166267 195.05648933 -32.62166267 195.05648933 -32.57421875 193.82421875 C-32.09293985 183.09893996 -31.03202293 172.47599171 -29.8125 161.8125 C-29.70329224 160.84745544 -29.59408447 159.88241089 -29.48156738 158.88812256 C-24.27829024 113.12263771 -16.64828977 67.79342635 -5.72705078 23.03076172 C-4.45308969 17.72016634 -3.29535379 12.38398201 -2.15307617 7.04370117 C-1.10359234 2.20718469 -1.10359234 2.20718469 0 0 Z " fill="#212222" transform="translate(639,1605)"/>
<path d="M0 0 C11.93877452 40.67826794 18.94060916 83.09407614 24.13867188 125.10215759 C24.67842585 129.46255577 25.23792506 133.81930819 25.82614136 138.1734314 C34.92926974 205.62212116 38.28634415 278.90364331 24.125 345.875 C23.95355469 346.70668701 23.78210937 347.53837402 23.60546875 348.39526367 C23.07874569 350.93204073 22.54120299 353.46627626 22 356 C21.83209961 356.7926123 21.66419922 357.58522461 21.49121094 358.40185547 C11.88092871 403.54761375 -3.95436757 457.73497116 -43.75390625 485.94140625 C-78.81968395 508.17927008 -120.10250083 505.61081579 -159.21044922 497.31933594 C-207.14745447 486.50221569 -252.71219801 464.54636782 -295 440 C-295.69931641 439.59426758 -296.39863281 439.18853516 -297.11914062 438.77050781 C-314.54574355 428.60349385 -331.49306442 417.59395904 -348 406 C-349.36450903 405.04807056 -350.72909404 404.09625004 -352.09375 403.14453125 C-367.50043092 392.36684379 -382.62256911 381.26793497 -397.22802734 369.42480469 C-399.58621605 367.52863642 -401.97242286 365.66975922 -404.36035156 363.8112793 C-411.1805867 358.50172436 -417.81344558 353.00535275 -424.37792969 347.38378906 C-426.02952812 345.97480955 -427.68911017 344.5758387 -429.3515625 343.1796875 C-435.2396651 338.23230799 -441.04414184 333.21836393 -446.73828125 328.046875 C-448.80673875 326.1749031 -450.89560914 324.3313661 -453 322.5 C-461.56841625 315.02615189 -469.9265641 307.32415308 -478.26953125 299.60107422 C-481.28124606 296.81455817 -484.29712785 294.03255699 -487.3125 291.25 C-488.41277832 290.23439439 -489.51304045 289.21877125 -490.61328125 288.203125 C-491.40089844 287.47609375 -492.18851563 286.7490625 -493 286 C-487.1382437 279.13745604 -481.23218311 272.33355221 -475.125 265.6875 C-471.00093324 261.17096163 -467.12063135 256.50866984 -463.28125 251.75 C-460.93281032 248.91900422 -458.49090098 246.20616402 -456 243.5 C-451.96489979 239.11105254 -448.16169696 234.59137234 -444.41796875 229.953125 C-441.64498564 226.56641218 -438.79760291 223.25058257 -435.9375 219.9375 C-431.92229354 215.27715995 -427.99406803 210.56951556 -424.1796875 205.7421875 C-421.93263219 202.91524695 -419.65575113 200.11455986 -417.37304688 197.31640625 C-411.32216214 189.898288 -405.34819746 182.42653155 -399.46289062 174.87646484 C-397.89907842 172.87054685 -396.33231062 170.86695563 -394.765625 168.86328125 C-381.50119741 151.87683818 -368.45778944 134.73374393 -355.72216797 117.34716797 C-353.97709387 114.96878089 -352.22592383 112.59500866 -350.47265625 110.22265625 C-340.05869331 96.13089437 -329.75057716 81.97003577 -319.6875 67.625 C-319.13707031 66.84133057 -318.58664062 66.05766113 -318.01953125 65.25024414 C-317.48070312 64.4793042 -316.941875 63.70836426 -316.38671875 62.9140625 C-315.82815186 62.13909424 -315.26958496 61.36412598 -314.6940918 60.56567383 C-312.90085758 57.96516798 -312.90085758 57.96516798 -311.42504883 54.81518555 C-308.75169557 49.79264707 -306.87005664 46.63736901 -301.34106445 44.75292969 C-296.69512946 43.93128521 -292.01794403 43.76282341 -287.3125 43.5625 C-285.54081052 43.44326493 -283.76955753 43.31738252 -281.9987793 43.18530273 C-278.2554107 42.90850942 -274.5114732 42.65481219 -270.765625 42.4140625 C-261.25103656 41.76815934 -251.78526112 40.64536566 -242.3125 39.5625 C-240.39944637 39.34793767 -238.48636038 39.13366364 -236.57324219 38.91967773 C-203.2554566 35.1693145 -170.12075724 30.18527591 -137 25 C-136.06188477 24.85348999 -135.12376953 24.70697998 -134.15722656 24.55603027 C-110.6828546 20.88637728 -87.31544444 16.87290159 -64.01980591 12.1978302 C-59.65251567 11.32287927 -55.28059032 10.47902411 -50.90234375 9.66015625 C-38.66886188 7.37092854 -26.537976 4.83935251 -14.44677734 1.87866211 C-13.42793457 1.6338208 -12.4090918 1.38897949 -11.359375 1.13671875 C-10.46702148 0.91717529 -9.57466797 0.69763184 -8.65527344 0.47143555 C-5.72464337 -0.04888871 -2.97047782 -0.07918734 0 0 Z " fill="#212222" transform="translate(1762,1601)"/>
<path d="M0 0 C0.77891602 0.26233429 1.55783203 0.52466858 2.36035156 0.79495239 C80.00543336 26.9892956 150.18717396 71.18355986 214.5 121.375 C215.07057129 121.8194043 215.64114258 122.26380859 216.22900391 122.72167969 C226.88847764 131.02949969 237.36832894 139.53148666 247.66210938 148.2890625 C251.09040745 151.20087913 254.55974315 154.05263477 258.0625 156.875 C263.13607493 161.00190206 267.93741142 165.37602558 272.73046875 169.8203125 C274.95918393 171.87613722 277.20767919 173.89116957 279.5 175.875 C283.82500396 179.62928179 288.03922002 183.50140643 292.24609375 187.38671875 C294.53137945 189.4950791 296.83905539 191.57568403 299.16015625 193.64453125 C299.75932861 194.18376221 300.35850098 194.72299316 300.97583008 195.27856445 C302.14046243 196.32652523 303.31072738 197.36826672 304.48706055 198.40307617 C305.88218949 199.66633471 307.19887645 201.01511603 308.5 202.375 C308.5 206.08474431 307.76245771 206.50940535 305.24609375 209.10546875 C304.55580078 209.82669922 303.86550781 210.54792969 303.15429688 211.29101562 C302.05698242 212.41540039 302.05698242 212.41540039 300.9375 213.5625 C299.51813413 215.03380973 298.10015657 216.50646007 296.68359375 217.98046875 C295.98234375 218.70967529 295.28109375 219.43888184 294.55859375 220.19018555 C291.98524426 222.9213175 289.51996258 225.73504071 287.06567383 228.57299805 C284.96651879 230.98900668 282.79667467 233.33668045 280.625 235.6875 C277.31663086 239.31023905 274.13987642 242.99192891 271.0625 246.8125 C267.84054925 250.80726434 264.49322017 254.62031667 261 258.375 C256.78974225 262.90488654 252.8236197 267.57792392 248.9453125 272.39453125 C246.02995898 275.94790942 243.02178951 279.41215263 240 282.875 C234.70973724 288.94530583 229.56257873 295.11289236 224.5 301.375 C223.0843237 303.10497757 221.6676292 304.83412237 220.25 306.5625 C218.66643505 308.4998107 217.08312697 310.43733138 215.5 312.375 C215.0045166 312.98005371 214.5090332 313.58510742 213.99853516 314.20849609 C207.53339147 322.10640222 201.15210687 330.04942303 194.9609375 338.1640625 C192.34113546 341.59450433 189.67261989 344.98564264 187 348.375 C182.29188733 354.3535428 177.62798251 360.36461931 173.00488281 366.40917969 C171.90916755 367.84050664 170.81196089 369.27069225 169.71386719 370.70019531 C161.55575251 381.3217568 153.52418704 392.01227173 145.72265625 402.8984375 C142.29694887 407.67353809 138.80731761 412.4003581 135.3125 417.125 C130.62363913 423.46589139 125.98529536 429.83810782 121.4309082 436.27636719 C118.59465786 440.28034214 118.59465786 440.28034214 117.5 441.375 C114.69332657 441.70313004 111.90094655 441.9728706 109.0859375 442.20703125 C107.29148518 442.36485886 105.4970524 442.52290872 103.70263672 442.68115234 C102.75322205 442.7633905 101.80380737 442.84562866 100.82562256 442.93035889 C83.86643077 444.40832002 67.01000099 446.21147979 50.14031982 448.50131226 C43.86611494 449.34386011 37.58223947 450.10135518 31.296875 450.85546875 C29.67526962 451.05067108 29.67526962 451.05067108 28.02090454 451.24981689 C23.6636823 451.77394495 19.3064477 452.29778914 14.94818115 452.81317139 C4.55886842 454.04291845 -5.77438266 455.32280827 -16.05944824 457.24958801 C-21.84646286 458.31342292 -27.65417414 459.07068744 -33.4921875 459.796875 C-45.93871807 461.36070866 -58.27264984 463.44998696 -70.625 465.625 C-72.91071934 466.02453306 -75.19644535 466.42402795 -77.48217773 466.82348633 C-105.62595489 471.75818447 -133.6495088 476.9682119 -161.5 483.375 C-164.99873006 484.17238499 -168.49901397 484.96259089 -172 485.75 C-172.73049561 485.91781982 -173.46099121 486.08563965 -174.21362305 486.25854492 C-177.05045765 486.89858565 -179.58020307 487.375 -182.5 487.375 C-186.9304003 468.94829968 -191.25410692 450.53265824 -194.81982422 431.91552734 C-195.62198271 427.7400419 -196.43750801 423.56725129 -197.25390625 419.39453125 C-198.87530857 411.09763522 -200.49534153 402.80050276 -202.09140015 394.49868774 C-202.36516192 393.07581761 -202.63976745 391.65310958 -202.91519165 390.2305603 C-204.48387076 382.1163304 -205.94123918 374.0204996 -206.9375 365.8125 C-207.18700031 363.81113556 -207.43702816 361.80983684 -207.6875 359.80859375 C-207.81769531 358.76171387 -207.94789063 357.71483398 -208.08203125 356.63623047 C-208.50872026 353.30695954 -208.96928358 349.98382664 -209.4375 346.66015625 C-211.67307545 330.53711554 -213.30874968 314.40538071 -214.6875 298.1875 C-214.77208466 297.20160889 -214.85666931 296.21571777 -214.94381714 295.19995117 C-222.414022 207.44859131 -223.9374384 93.41411204 -164.1015625 17.41015625 C-147.31746513 -1.95402081 -124.32928825 -12.46919149 -98.84179688 -14.484375 C-65.16782187 -16.5064986 -31.81704731 -10.79721525 0 0 Z " fill="#212222" transform="translate(822.5,313.625)"/>
<path d="M0 0 C0.86367187 0.76957031 1.72734375 1.53914063 2.6171875 2.33203125 C3.75800781 3.34716797 3.75800781 3.34716797 4.921875 4.3828125 C45.11879154 42.36246141 57.694211 108.04443955 63.39715576 160.32116699 C63.54387467 161.66202721 63.69316831 163.0026082 63.84503174 164.34289551 C71.79554146 234.58542703 67.13721858 308.39292091 55.02804565 377.95706177 C54.59669911 380.45046459 54.17613467 382.94550148 53.75805664 385.44116211 C50.29835039 406.07730484 46.71303682 426.67423555 42.3671875 447.14453125 C42.20683014 447.90092896 42.04647278 448.65732666 41.8812561 449.43664551 C40.97518225 453.69078626 40.04777919 457.93967943 39.09741211 462.18414307 C38.76166994 463.68580838 38.42872678 465.188101 38.09790039 466.69085693 C37.57566669 469.05614538 37.04311873 471.41888974 36.5078125 473.78125 C36.34827087 474.50915237 36.18872925 475.23705475 36.02435303 475.98701477 C34.84617754 481.10304121 34.84617754 481.10304121 32.6171875 483.33203125 C29.62841797 482.95166016 29.62841797 482.95166016 25.734375 482.05859375 C25.02577332 481.90006927 24.31717163 481.7415448 23.58709717 481.57821655 C22.03900728 481.23097188 20.49204926 480.87865245 18.94610596 480.52197266 C14.72253395 479.54962139 10.4894104 478.62027211 6.2578125 477.68359375 C5.37618439 477.48735413 4.49455627 477.2911145 3.58621216 477.08892822 C-5.50811682 475.06870212 -14.62430577 473.16647004 -23.7578125 471.33203125 C-24.569086 471.16893463 -25.3803595 471.00583801 -26.21621704 470.83779907 C-43.32607831 467.41658349 -60.51887042 464.50909816 -77.72753906 461.634552 C-79.16758301 461.39392532 -79.16758301 461.39392532 -80.63671875 461.1484375 C-81.57902344 460.99100067 -82.52132813 460.83356384 -83.4921875 460.6713562 C-91.05772818 459.40093181 -98.59707479 458.01932377 -106.1328125 456.58203125 C-119.16510045 454.12039918 -132.24570648 452.14486378 -145.3828125 450.33203125 C-146.04140259 450.24070923 -146.69999268 450.14938721 -147.37854004 450.05529785 C-167.03240424 447.33295236 -186.71759955 444.89149992 -206.42642212 442.60211182 C-208.68344653 442.33937308 -210.94026458 442.07485539 -213.1968689 441.80853271 C-223.88989366 440.54738861 -234.5602608 439.30824487 -245.30859375 438.63671875 C-246.75660715 438.53684339 -248.20460589 438.43675535 -249.65258789 438.33642578 C-252.20024606 438.17359318 -254.75077696 438.04856149 -257.30249023 437.97216797 C-261.93718493 437.66983911 -265.1259502 437.41537446 -268.71533203 434.3215332 C-270.82055222 431.75680679 -272.61429271 429.13800946 -274.3828125 426.33203125 C-275.47162367 424.77180564 -276.5626706 423.21313722 -277.65625 421.65625 C-278.69307126 420.11266594 -279.72688272 418.56705633 -280.7578125 417.01953125 C-285.23885272 410.3814083 -289.86920861 403.97417415 -294.8125 397.671875 C-297.82195636 393.80508715 -300.65793113 389.81703486 -303.5078125 385.83203125 C-310.29997455 376.35704624 -317.35689385 367.09398344 -324.45458984 357.84667969 C-326.27492421 355.47273135 -328.08986036 353.0947893 -329.90234375 350.71484375 C-336.21629907 342.42743092 -342.59521788 334.19609212 -349.05322266 326.02050781 C-350.38095105 324.33439515 -351.7012995 322.64276343 -353.01953125 320.94921875 C-359.79804217 312.25244888 -366.77649033 303.73170805 -373.80810547 295.23876953 C-375.90772419 292.6964405 -377.98927762 290.13958217 -380.0703125 287.58203125 C-383.76101883 283.06279901 -387.5230323 278.60790894 -391.30200195 274.16259766 C-394.16186661 270.79295054 -396.9756254 267.39145269 -399.7578125 263.95703125 C-407.68034818 254.23133781 -415.98443771 244.81805579 -424.40625 235.5234375 C-426.25237811 233.47664329 -428.07274534 231.41071568 -429.8828125 229.33203125 C-434.93720233 223.53571264 -440.08242123 217.82066945 -445.296875 212.16796875 C-445.78897461 211.63397461 -446.28107422 211.09998047 -446.78808594 210.54980469 C-447.74534515 209.51240285 -448.70424911 208.47651551 -449.66503906 207.44238281 C-456.3828125 200.1643854 -456.3828125 200.1643854 -456.3828125 197.33203125 C-454.94921875 195.921875 -454.94921875 195.921875 -452.9453125 194.26953125 C-449.77524033 191.58028131 -446.79699725 188.79689748 -443.8828125 185.83203125 C-440.61896337 182.52939274 -437.2686706 179.43152477 -433.74609375 176.41015625 C-430.56577123 173.61357513 -427.47806798 170.72210341 -424.3828125 167.83203125 C-419.45666091 163.24103586 -414.4994024 158.71109468 -409.3828125 154.33203125 C-408.33712249 153.43242775 -407.29156181 152.53267392 -406.24609375 151.6328125 C-403.22978724 149.03919468 -400.20729357 146.45290659 -397.18212891 143.86962891 C-396.0219899 142.87823739 -394.86274155 141.88580221 -393.70458984 140.89208984 C-387.19187793 135.30444564 -380.59309903 129.86457704 -373.81982422 124.59521484 C-370.01011874 121.62722501 -366.25133839 118.60512584 -362.51733398 115.54248047 C-343.27607839 99.76329504 -322.98328775 85.27664379 -302.3828125 71.33203125 C-301.77405273 70.91888672 -301.16529297 70.50574219 -300.53808594 70.08007812 C-239.25346579 28.56575144 -168.01648214 -11.50479012 -93.3828125 -20.66796875 C-92.62758301 -20.76223145 -91.87235352 -20.85649414 -91.09423828 -20.95361328 C-58.93156711 -24.5893935 -25.44278406 -21.73087647 0 0 Z " fill="#212222" transform="translate(1723.3828125,318.66796875)"/>
<path d="M0 0 C6.21071808 1.17478997 12.26930974 2.51961699 18.3125 4.375 C19.14112549 4.62773682 19.96975098 4.88047363 20.82348633 5.14086914 C23.88563948 6.08354622 26.94308906 7.04045733 30 8 C30.62193237 8.19442688 31.24386475 8.38885376 31.88464355 8.58917236 C106.7465181 32.00504065 180.58612364 61.6217083 248 102 C248.82612793 102.49242187 249.65225586 102.98484375 250.50341797 103.4921875 C278.07981084 119.96181706 304.26681495 138.50704978 328.45703125 159.65234375 C329.78912295 160.81581624 331.12828624 161.9711831 332.46875 163.125 C344.91356116 174.03551937 356.9467886 185.83226428 367 199 C367.78117187 199.96421875 368.56234375 200.9284375 369.3671875 201.921875 C388.50039197 225.69764007 403.91314928 254.76606663 402 286 C398.19782216 318.73739565 380.519149 346.84383417 359 371 C358.34999023 371.73613525 357.69998047 372.47227051 357.03027344 373.23071289 C351.41841834 379.53755181 345.59159292 385.59151988 339.625 391.5625 C338.75617187 392.44357422 337.88734375 393.32464844 336.9921875 394.23242188 C330.97578587 400.26217351 324.64522621 405.68023849 318 411 C316.9103042 411.92353439 315.82567274 412.85313852 314.75 413.79296875 C282.62050471 441.76936167 244.60096212 464.24254535 207 484 C205.93990723 484.56283691 204.87981445 485.12567383 203.78759766 485.70556641 C144.8157167 517.01119568 81.90328894 541.30083164 18.1875 561.0625 C17.16962402 561.37880371 16.15174805 561.69510742 15.10302734 562.02099609 C11.13751599 563.21410267 8.18916718 564 4 564 C3.7004541 563.05012207 3.4009082 562.10024414 3.09228516 561.12158203 C-24.99905429 472.31647762 -60.72122441 386.39473676 -99.51390076 301.79632568 C-100.14272507 300.42297507 -100.76985483 299.04884709 -101.39515686 297.67388916 C-102.76487721 294.66576083 -104.15710465 291.67979942 -105.61328125 288.71191406 C-106.31517578 287.26510254 -106.31517578 287.26510254 -107.03125 285.7890625 C-107.43923828 284.9738916 -107.84722656 284.1587207 -108.26757812 283.31884766 C-109.72887665 278.69237654 -107.6615382 274.93699496 -105.65625 270.7578125 C-105.16116943 269.71334961 -104.66608887 268.66888672 -104.15600586 267.59277344 C-103.60952393 266.4484082 -103.06304199 265.30404297 -102.5 264.125 C-79.84345116 216.06793807 -59.68962722 166.71958585 -41 117 C-40.5191394 115.72147156 -40.5191394 115.72147156 -40.02856445 114.41711426 C-30.41077429 88.80757766 -21.46908635 62.98573489 -12.73646545 37.06254578 C-10.33392444 29.9471906 -7.86970301 22.85454097 -5.37072754 15.77250671 C-3.52405142 10.53315099 -1.74048503 5.27558853 0 0 Z " fill="#212222" transform="translate(1824,919)"/>
<path d="M0 0 C1.04474487 0.00415421 1.04474487 0.00415421 2.1105957 0.00839233 C12.91259353 0.05860759 23.51205031 0.52261568 34.1875 2.25 C34.86087402 2.35715332 35.53424805 2.46430664 36.22802734 2.57470703 C40.91319751 3.33581176 45.54720956 4.25091706 50.1875 5.25 C51.32703125 5.49105469 52.4665625 5.73210938 53.640625 5.98046875 C83.14073594 13.02477775 111.47516967 28.23822115 134.1875 48.25 C135.13625 49.07757812 136.085 49.90515625 137.0625 50.7578125 C161.95762246 72.81069084 180.48404412 100.1135933 192.1875 131.25 C192.43580566 131.90661621 192.68411133 132.56323242 192.93994141 133.23974609 C211.01541592 181.90448516 207.60674733 237.81231699 186.3125 284.828125 C180.17743407 297.82477782 172.89162365 309.82673689 164.1875 321.25 C163.18783203 322.56871094 163.18783203 322.56871094 162.16796875 323.9140625 C156.87976603 330.69933279 151.07995688 336.9919845 145.1875 343.25 C144.53136719 343.96027344 143.87523437 344.67054688 143.19921875 345.40234375 C137.14208482 351.74482446 130.17588167 356.98640157 123.1875 362.25 C122.35347656 362.8790625 121.51945312 363.508125 120.66015625 364.15625 C101.55110724 378.0062274 80.64832348 387.35443407 58.1875 394.25 C57.12660156 394.57871094 56.06570313 394.90742187 54.97265625 395.24609375 C42.31859396 398.91862611 29.34772087 400.92289624 16.1875 401.25 C15.12692383 401.27723145 14.06634766 401.30446289 12.97363281 401.33251953 C-46.40469753 402.61633168 -97.34870078 382.65214726 -140.30078125 341.73046875 C-144.91425859 337.23487637 -148.91296761 332.36994161 -152.8125 327.25 C-153.63234375 326.22261719 -154.4521875 325.19523437 -155.296875 324.13671875 C-161.08135456 316.86000158 -166.20015551 309.33435946 -170.8125 301.25 C-171.1719873 300.62673828 -171.53147461 300.00347656 -171.90185547 299.36132812 C-178.5052497 287.7989424 -183.46737341 275.82371008 -187.8125 263.25 C-188.19148437 262.16017822 -188.19148437 262.16017822 -188.578125 261.04833984 C-190.23671526 256.17047197 -191.5964213 251.25541871 -192.8125 246.25 C-193.00859863 245.47672363 -193.20469727 244.70344727 -193.40673828 243.90673828 C-196.953899 229.26273625 -197.23266768 214.61247578 -197.3125 199.625 C-197.32294342 198.68362183 -197.33338684 197.74224365 -197.34414673 196.77233887 C-197.50290858 178.41986835 -194.92466549 160.72200992 -189.625 143.125 C-189.33020752 142.1354834 -189.03541504 141.1459668 -188.73168945 140.12646484 C-178.16606082 105.95851894 -156.68554215 71.92319731 -128.8125 49.25 C-128.30799316 48.82783203 -127.80348633 48.40566406 -127.28369141 47.97070312 C-112.97184638 35.99556967 -97.81482409 25.98224221 -80.8125 18.25 C-80.06210449 17.90839844 -79.31170898 17.56679688 -78.53857422 17.21484375 C-53.55621874 5.9849564 -27.46832724 -0.21565292 0 0 Z " fill="#00D7FE" transform="translate(1194.8125,997.75)"/>
<path d="M0 0 C0.66 0 1.32 0 2 0 C26.32605571 55.79688932 48.50599336 112.36315834 68.28723145 169.9274292 C68.95095665 171.85739296 69.61745773 173.78640147 70.28417969 175.71533203 C71.32241067 178.72425465 72.35176072 181.73595203 73.375 184.75 C73.65537109 185.5649292 73.93574219 186.3798584 74.22460938 187.21948242 C75.38733664 190.69725518 76 193.28934933 76 197 C60.47051509 200.94969558 44.94128594 204.51655758 29.1875 207.4375 C27.55604003 207.74259178 25.92461152 208.04785185 24.29321289 208.35327148 C19.53016373 209.24290702 14.76544452 210.12329565 10 211 C8.73091797 211.23364258 7.46183594 211.46728516 6.15429688 211.70800781 C-12.57698915 215.13877977 -31.359176 218.26281721 -50.14746094 221.36254883 C-53.45868765 221.91043304 -56.7685301 222.46581248 -60.078125 223.0234375 C-77.4972871 225.92712526 -94.98355969 228.56776957 -112.5 230.8125 C-113.44069336 230.93616943 -114.38138672 231.05983887 -115.35058594 231.18725586 C-120.94525712 231.88073013 -126.36235076 232.10885705 -132 232 C-130.6886916 228.47754221 -129.13743083 225.41480556 -127.12109375 222.24609375 C-126.24723022 220.86296997 -126.24723022 220.86296997 -125.35571289 219.4519043 C-124.72270264 218.45715088 -124.08969238 217.46239746 -123.4375 216.4375 C-122.06883568 214.26655535 -120.70170817 212.09464125 -119.3359375 209.921875 C-118.80363274 209.07540657 -118.80363274 209.07540657 -118.26057434 208.21183777 C-106.1605986 188.93897423 -94.56713622 169.34188433 -83.02148438 149.734375 C-81.98368323 147.97229581 -80.9450339 146.21071873 -79.90625 144.44921875 C-59.21794282 109.35609499 -39.30849511 73.87126144 -20 38 C-19.68701965 37.41893494 -19.37403931 36.83786987 -19.05157471 36.23919678 C-17.02901201 32.48415061 -15.0086653 28.72792396 -12.99099731 24.97024536 C-12.03175067 23.18412001 -11.07143555 21.39856862 -10.11108398 19.61303711 C-6.63368729 13.12601894 -3.24451093 6.60676621 0 0 Z " fill="#212222" transform="translate(1659,1311)"/>
<path d="M0 0 C3 1 3 1 4.06811523 2.6003418 C4.5584021 3.63928589 4.5584021 3.63928589 5.05859375 4.69921875 C5.43790039 5.48441895 5.81720703 6.26961914 6.20800781 7.07861328 C6.61374023 7.9395459 7.01947266 8.80047852 7.4375 9.6875 C11.0363587 17.10232101 14.77253762 24.40595854 18.75 31.625 C19.76700938 33.47261095 20.78393458 35.32026825 21.80078125 37.16796875 C22.3210791 38.11333496 22.84137695 39.05870117 23.37744141 40.03271484 C25.66686792 44.2195475 27.91690709 48.42711836 30.16870117 52.63427734 C37.25487701 65.86767405 44.53688974 78.9757595 52 92 C52.8674585 93.5144873 52.8674585 93.5144873 53.75244141 95.05957031 C58.14547415 102.71964533 62.56496349 110.36417525 67 118 C67.3360022 118.57854736 67.67200439 119.15709473 68.01818848 119.75317383 C78.46038829 137.72588953 89.10303521 155.5676176 99.9564209 173.29498291 C100.99682985 174.99482056 102.03601454 176.69540733 103.07519531 178.39599609 C110.76132003 190.9684825 118.51571194 203.49088818 126.48510742 215.88623047 C129.46041918 220.52383499 132.31674274 225.18707011 135 230 C123.45470815 229.66583815 112.16983627 228.2966466 100.74414062 226.65771484 C93.95759056 225.68509231 87.17199033 224.75240637 80.3671875 223.91796875 C79.65081619 223.83002548 78.93444489 223.74208221 78.19636536 223.651474 C75.38920581 223.3082038 72.58187505 222.96663312 69.77365112 222.63217163 C67.83440016 222.40115892 65.89570636 222.16548401 63.95703125 221.9296875 C62.85335205 221.79804199 61.74967285 221.66639648 60.61254883 221.53076172 C57.7671933 221.11271732 54.99594942 220.60975785 52.18212891 220.03076172 C47.18607957 219.0078993 42.1809118 218.2624264 37.12890625 217.578125 C26.70433018 216.12483538 16.31844234 214.48585865 5.9375 212.75 C5.04789581 212.60170746 4.15829163 212.45341492 3.24172974 212.30062866 C-9.72451775 210.13246808 -22.65720762 207.81816644 -35.5625 205.3125 C-36.27842316 205.17428833 -36.99434631 205.03607666 -37.73196411 204.89367676 C-45.6561225 203.35741306 -53.54122124 201.68840475 -61.40234375 199.85546875 C-62.13304581 199.68590164 -62.86374786 199.51633453 -63.61659241 199.34162903 C-68.75220096 198.12389952 -68.75220096 198.12389952 -71 197 C-70.42555607 191.02434069 -69.16520166 185.71094965 -67.2890625 180.01953125 C-67.00957764 179.15465591 -66.73009277 178.28978058 -66.44213867 177.3986969 C-65.51209605 174.53360287 -64.56962528 171.67281708 -63.625 168.8125 C-63.29731628 167.81414124 -62.96963257 166.81578247 -62.63201904 165.78717041 C-45.33583415 113.1597375 -25.54093144 61.47834196 -4.4375 10.2734375 C-3.93567955 9.05502419 -3.93567955 9.05502419 -3.42372131 7.81199646 C-1.12283369 2.24566737 -1.12283369 2.24566737 0 0 Z " fill="#212223" transform="translate(737,1315)"/>
<path d="M0 0 C3.24997843 -0.03029957 6.4999191 -0.04721064 9.75 -0.0625 C10.63171875 -0.07087891 11.5134375 -0.07925781 12.421875 -0.08789062 C17.53234814 -0.10563532 22.60246832 0.02398061 27.70270443 0.35755348 C44.60029599 1.40371109 61.55025995 1.14633659 78.47197795 1.1343255 C83.22933045 1.13175974 87.98668121 1.13415105 92.74403381 1.13571167 C100.72804109 1.1375214 108.71203906 1.13515885 116.69604492 1.13037109 C125.86985328 1.12493268 135.0436394 1.12669295 144.21744722 1.1321975 C152.15357143 1.13676519 160.08968902 1.13736138 168.02581412 1.13475883 C172.7395076 1.13321578 177.45319069 1.13294715 182.16688347 1.13629532 C207.58172983 1.20819291 207.58172983 1.20819291 232.97198486 0.22361755 C239.57990463 -0.18247637 246.19462291 -0.10843294 252.8125 -0.0625 C254.10091797 -0.05798828 255.38933594 -0.05347656 256.71679688 -0.04882812 C259.81125334 -0.03732457 262.90559672 -0.02108567 266 0 C262.99313796 5.60838729 259.45948965 10.46643021 255.5 15.4375 C254.2384174 17.03944707 252.9780213 18.64232917 251.71875 20.24609375 C251.09097656 21.04515137 250.46320313 21.84420898 249.81640625 22.66748047 C247.1622743 26.0757569 244.57774334 29.53380056 242 33 C232.83109969 45.29107556 223.39725591 57.36674135 213.68823242 69.2355957 C210.19436375 73.51074187 206.76639872 77.8307684 203.375 82.1875 C198.92856537 87.89030811 194.3085859 93.4232167 189.61328125 98.921875 C187.22117731 101.7270732 184.88544149 104.57463157 182.5625 107.4375 C177.66619146 113.44898202 172.61392076 119.32043431 167.55273438 125.19287109 C166.01354018 126.98424144 164.48212881 128.78195887 162.953125 130.58203125 C157.26019182 137.27619251 151.45912349 143.83785344 145.4921875 150.2890625 C142.2619899 153.80278842 139.11560304 157.38462446 136 161 C129.2720854 157.9805002 124.74360192 151.78480853 120.015625 146.30078125 C117.55519285 143.49226471 115.03005722 140.7455632 112.5 138 C105.77340198 130.68622203 99.28831966 123.18291412 92.83105469 115.63208008 C89.56437451 111.81471651 86.27805532 108.0153026 82.97851562 104.22631836 C77.96661694 98.46895116 73.03760058 92.66438065 68.234375 86.73046875 C65.73841181 83.68033192 63.1845269 80.68421595 60.625 77.6875 C56.32121795 72.63863038 52.19718034 67.47212185 48.12768555 62.23339844 C44.99276038 58.21543499 41.75419756 54.3062996 38.4375 50.4375 C33.55971108 44.73517533 28.96691982 38.84043035 24.42773438 32.86621094 C22.2269907 29.98958907 19.99592369 27.13680898 17.76733398 24.28173828 C13.01632353 18.19512021 8.27506376 12.1017592 3.625 5.9375 C2.91601562 4.99777344 2.20703125 4.05804687 1.4765625 3.08984375 C0 1 0 1 0 0 Z " fill="#212222" transform="translate(1067,1656)"/>
<path d="M0 0 C1.1282554 1.1282554 2.25614956 2.25687314 3.3828125 3.38671875 C4.53917449 4.5402876 5.70129744 5.68809309 6.8671875 6.83203125 C10.80424676 10.71547297 14.55545361 14.68568073 18.16015625 18.87890625 C20.19508819 21.22491058 22.28290967 23.5173645 24.375 25.8125 C27.48528851 29.25378205 30.46478312 32.76321298 33.375 36.375 C36.61952947 40.38826816 39.98751465 44.22410867 43.5 48 C47.75525284 52.57935759 51.77322224 57.29285431 55.6953125 62.1640625 C58.20794135 65.25587359 60.78640065 68.28443865 63.375 71.3125 C67.68139391 76.36394215 71.80760573 81.53344703 75.87890625 86.77539062 C78.94794034 90.70949239 82.12063381 94.53092296 85.375 98.3125 C90.16916026 103.89838011 94.64917505 109.69126581 99.09106445 115.55957031 C102.67527378 120.28905191 106.33214921 124.94761411 110.0625 129.5625 C115.83257603 136.71129223 121.36255983 144.03046893 126.82080078 151.41943359 C127.80586268 152.73978365 128.8195113 154.03874362 129.83984375 155.33203125 C131 157 131 157 131 159 C111.09032888 159.08663952 111.09032888 159.08663952 101.43359375 158.78564453 C100.72815933 158.76377893 100.02272491 158.74191334 99.2959137 158.71938515 C97.80452271 158.67285048 96.31313381 158.62624889 94.82174683 158.57958603 C63.10360571 157.62476755 31.35958573 157.84882371 -0.36932087 157.87143159 C-7.19843467 157.87578111 -14.02753007 157.8726612 -20.85664272 157.8678025 C-27.54731436 157.86323828 -34.23797816 157.86263532 -40.92865086 157.86524117 C-44.8812408 157.86677903 -48.83381838 157.86706673 -52.78640747 157.86370468 C-74.07777431 157.80989206 -74.07777431 157.80989206 -95.34164429 158.77638245 C-102.42870918 159.20958037 -109.52756193 159.10486084 -116.625 159.0625 C-118.13281097 159.05746096 -119.64062362 159.05290242 -121.1484375 159.04882812 C-124.76566128 159.03804491 -128.38281888 159.02092159 -132 159 C-130.28203695 155.42043468 -128.19866893 152.51286383 -125.75 149.375 C-125.31598877 148.81723877 -124.88197754 148.25947754 -124.43481445 147.68481445 C-123.47626192 146.45339296 -122.5163127 145.22305776 -121.55517578 143.99365234 C-119.92454879 141.90327558 -118.3033133 139.80586899 -116.68359375 137.70703125 C-109.38437563 128.26231658 -101.94530838 118.94596735 -94.38964844 109.70556641 C-92.49387824 107.37881824 -90.62036479 105.03469693 -88.75 102.6875 C-82.31772772 94.63037397 -75.75947761 86.68692811 -69.08227539 78.83227539 C-66.22190741 75.46206984 -63.40766015 72.06000538 -60.625 68.625 C-55.9803057 62.92055371 -51.1602626 57.37731411 -46.328125 51.83203125 C-44.17778385 49.36263542 -42.04170081 46.88235666 -39.921875 44.38671875 C-33.98985949 37.40327666 -27.91636807 30.5921247 -21.671875 23.88671875 C-19.00973984 21.01052302 -16.42641922 18.08101453 -13.86328125 15.1171875 C-4.66153846 4.66153846 -4.66153846 4.66153846 0 0 Z " fill="#212223" transform="translate(1199,586)"/>
<path d="M0 0 C10.00250513 0.34550968 19.84078865 1.56621707 29.75 2.9375 C30.98065186 3.10733398 32.21130371 3.27716797 33.47924805 3.45214844 C39.91667407 4.36132825 46.31668346 5.37763519 52.70703125 6.57348633 C55.33916643 7.06308813 57.97665949 7.48294959 60.625 7.875 C63.0834142 8.24947937 65.54178479 8.62421826 68 9 C68.78955078 9.12068848 69.57910156 9.24137695 70.39257812 9.36572266 C100.69741442 14.03104276 130.80907943 19.68783216 160.875 25.6875 C162.05104797 25.92147491 163.22709595 26.15544983 164.43878174 26.39651489 C177.68390167 29.03657304 190.88351297 31.77634029 204 35 C203.19337953 39.84523086 201.66275891 44.41504954 200.1484375 49.07421875 C199.85806107 49.97327942 199.56768463 50.87234009 199.26850891 51.79864502 C198.30848778 54.76307511 197.34267745 57.72556067 196.375 60.6875 C196.04053864 61.71207306 195.70607727 62.73664612 195.36148071 63.79226685 C179.58156807 112.03325995 161.65634698 159.49598535 142.10449219 206.33105469 C141.71786911 207.25727127 141.33124603 208.18348785 140.9329071 209.13777161 C140.21604953 210.85259259 139.49760871 212.56675305 138.7771759 214.28007507 C136.73760538 219.14890896 134.82424173 224.04626752 133 229 C130.42529821 226.53237183 128.93249088 224.2456139 127.3203125 221.046875 C126.81056885 220.0472876 126.3008252 219.0477002 125.77563477 218.01782227 C125.23092529 216.93944092 124.68621582 215.86105957 124.125 214.75 C119.77266965 206.25131253 115.30574474 197.84953156 110.5625 189.5625 C105.89242122 181.39887704 101.36996605 173.17006099 96.9375 164.875 C91.32735872 154.394474 85.54228552 144.03443204 79.58789062 133.74609375 C77.8918268 130.81292557 76.20323722 127.8755384 74.515625 124.9375 C53.7142171 88.75220897 32.51208639 52.81286271 9.953125 17.6875 C9.30045654 16.66962402 8.64778809 15.65174805 7.9753418 14.60302734 C6.72592437 12.65785902 5.47235675 10.71534847 4.21411133 8.77587891 C3.66005615 7.91397949 3.10600098 7.05208008 2.53515625 6.1640625 C2.044104 5.40561035 1.55305176 4.6471582 1.04711914 3.86572266 C0 2 0 2 0 0 Z " fill="#212222" transform="translate(1527,859)"/>
<path d="M0 0 C-1.66672632 4.77545181 -4.22189205 8.85245051 -6.875 13.125 C-7.36403809 13.91922363 -7.85307617 14.71344727 -8.35693359 15.53173828 C-11.73735946 21.00649995 -15.17532798 26.44372694 -18.625 31.875 C-31.5429408 52.23880185 -43.8394236 72.98174437 -55.9777832 93.81686401 C-58.20679809 97.64279598 -60.44437434 101.46357609 -62.6875 105.28125 C-70.36409261 118.36095015 -77.84819373 131.53888331 -85.21582031 144.79492188 C-87.00996221 148.017896 -88.81272205 151.23592115 -90.6171875 154.453125 C-104.20336769 178.7235653 -117.14132923 203.33801372 -130 228 C-130.66 228 -131.32 228 -132 228 C-152.16567702 178.51907066 -171.25379072 128.82644109 -188.5 78.25 C-189.00042313 76.78385254 -189.00042313 76.78385254 -189.51095581 75.28808594 C-192.90951472 65.31681751 -196.25786879 55.33033713 -199.46875 45.296875 C-199.72611938 44.50138245 -199.98348877 43.70588989 -200.24865723 42.8862915 C-201.21933212 39.81985278 -202 37.23696838 -202 34 C-150.85217535 22.2366632 -99.14772571 12.52724669 -47.13476562 5.43457031 C-43.89860332 4.98594345 -40.66469286 4.52319643 -37.43089294 4.0579071 C-34.16927273 3.58935326 -30.90696309 3.12570853 -27.64456177 2.66262817 C-26.02424898 2.43173566 -24.4041851 2.1990887 -22.78439331 1.96456909 C-20.49630233 1.63385487 -18.20729271 1.31033484 -15.91796875 0.98828125 C-15.2385321 0.8884494 -14.55909546 0.78861755 -13.85906982 0.6857605 C-9.18577138 0.03796015 -4.70402195 -0.08289458 0 0 Z " fill="#212222" transform="translate(869,859)"/>
</svg>
