<?xml version="1.0" encoding="UTF-8"?>
<svg version="1.1" xmlns="http://www.w3.org/2000/svg" width="2400" height="2288">
<path d="M0 0 C1.34463087 0.17408057 2.6893607 0.34739822 4.03417969 0.52001953 C90.93561523 11.79849379 173.93796207 45.45527627 246 95 C246.70286133 95.48146484 247.40572266 95.96292969 248.12988281 96.45898438 C272.27411633 113.05745239 295.05019369 131.68883985 316.51123047 151.62451172 C318.00026095 153.00024109 319.50031644 154.36286695 321.00390625 155.72265625 C327.62679567 161.73376763 334.03986728 167.93621294 340.375 174.25 C341.49865967 175.36677124 341.49865967 175.36677124 342.64501953 176.50610352 C346.71706599 180.58949399 350.61474924 184.76442982 354.37841797 189.13330078 C356.8055823 191.92735355 359.34338453 194.61347331 361.875 197.3125 C366.35742274 202.13101711 370.6143573 207.07182933 374.734375 212.20703125 C376.75880001 214.70265864 378.83252387 217.14687527 380.93066406 219.58056641 C387.09689248 226.75125818 392.79297662 234.21714115 398.39794922 241.83154297 C400.04731523 244.06404356 401.71174337 246.28467116 403.37890625 248.50390625 C426.61252594 279.54953267 446.75248079 312.81744873 465 347 C465.50998535 347.94617188 466.0199707 348.89234375 466.54541016 349.8671875 C507.29032983 425.59614441 534.29872779 509.00576498 573 749 C565.79887192 747.09385229 558.68803989 745.00525408 551.60546875 742.69921875 C549.60153293 742.05216698 547.59754294 741.405283 545.59350586 740.75854492 C544.55064423 740.42116302 543.50778259 740.08378113 542.43331909 739.73617554 C507.75401831 728.53181283 473.0218917 717.62167501 437.76342773 708.3737793 C436.94623764 708.15934677 436.12904755 707.94491425 435.28709412 707.72398376 C433.77758067 707.32912399 432.2675026 706.93641301 430.75672913 706.54640198 C426.78008686 705.5107936 422.88257733 704.34618223 419 703 C418.94054199 702.28497314 418.88108398 701.56994629 418.81982422 700.83325195 C412.04802747 621.78530779 389.92646544 544.75708735 346.48388672 443.12353516 C344.97914562 439.95610217 343.49091077 436.78126136 342.00390625 433.60546875 C318.71387616 384.14682297 289.34986994 336.77711902 254 295 C253.55769043 294.47422363 253.11538086 293.94844727 252.65966797 293.40673828 C241.88062528 280.60958486 230.56062267 268.4733469 218.75 256.625 C218.2781427 256.15046387 217.8062854 255.67592773 217.32012939 255.18701172 C211.72333778 249.56612642 206.04303236 244.13775319 200 239 C199.03578125 238.154375 198.0715625 237.30875 197.078125 236.4375 C175.49486567 217.83535383 151.88701644 201.82733814 127 188 C125.98172119 187.42306396 125.98172119 187.42306396 124.94287109 186.83447266 C44.60047512 141.39959822 -50.71097796 136.96934823 -179.921875 165.4140625 C-216.99298584 175.82458921 -252.53607178 189.81535351 -287 207 C-287.97565918 207.48581543 -288.95131836 207.97163086 -289.95654297 208.47216797 C-320.79977432 223.93770515 -349.58333489 242.80397182 -376 265 C-377.01707031 265.83144531 -378.03414062 266.66289062 -379.08203125 267.51953125 C-392.7658986 278.8332839 -406.0990824 291.40024963 -417.0078125 305.44140625 C-419.39173713 308.50311338 -421.91041223 311.4315023 -424.4375 314.375 C-429.38856199 320.18979866 -434.09089823 326.1658901 -438.68896484 332.26367188 C-440.05361208 334.07100356 -441.42694872 335.87151814 -442.80078125 337.671875 C-468.27047422 371.182385 -490.92724506 406.85951952 -510.48339844 444.12255859 C-511.8487227 446.71298225 -513.2345651 449.2905275 -514.6328125 451.86328125 C-555.41811845 527.27441353 -581.01898928 612.62249905 -606.38671875 805.44140625 C-606.43445435 806.19662064 -606.48218994 806.95183502 -606.53137207 807.72993469 C-606.69872446 810.48609514 -606.8507578 813.24279296 -607 816 C-607.04006605 816.72090757 -607.0801321 817.44181515 -607.12141228 818.18456841 C-607.83834397 831.26466177 -608.16254416 844.30376666 -608.16796875 857.40234375 C-608.17120272 859.29911826 -608.17456815 861.19589256 -608.17805481 863.09266663 C-608.18398331 867.04477513 -608.1859016 870.99686199 -608.18530273 874.94897461 C-608.18522209 878.91093573 -608.19207695 882.87277971 -608.20581055 886.8347168 C-608.29484531 912.95788339 -607.76688168 938.93338182 -606 965 C-605.92429779 966.11736542 -605.84859558 967.23473083 -605.77059937 968.38595581 C-605.33596045 974.59774028 -604.82227933 980.79948633 -604.25 987 C-604.12594788 988.36754929 -604.12594788 988.36754929 -603.99938965 989.76272583 C-595.55850442 1082.01782714 -575.25743259 1172.24503641 -511 1343 C-510.72045471 1343.616474 -510.44090942 1344.232948 -510.15289307 1344.86810303 C-497.41125944 1372.94714365 -483.95003131 1400.7106351 -468.48779297 1427.40039062 C-465.98627024 1431.77128232 -463.59241249 1436.20046247 -461.1875 1440.625 C-457.46688676 1447.45765532 -453.5635001 1454.11542469 -449.36328125 1460.6640625 C-448 1463 -448 1463 -448 1465 C-446.85144531 1464.67644531 -445.70289063 1464.35289063 -444.51953125 1464.01953125 C-437.33005288 1462.43231672 -430.01074849 1462.65117486 -422.6875 1462.6875 C-421.93089081 1462.68932281 -421.17428162 1462.69114563 -420.39474487 1462.69302368 C-408.37560971 1462.74179091 -396.76752162 1463.37868845 -385 1466 C-384.22769043 1466.16628906 -383.45538086 1466.33257813 -382.65966797 1466.50390625 C-336.71459627 1476.67416192 -297.97636512 1505.4199536 -272.81152344 1544.86279297 C-257.72113238 1569.29756976 -249.16432548 1598.32848496 -248 1627 C-247.938125 1628.46179687 -247.938125 1628.46179687 -247.875 1629.953125 C-247.28344529 1658.79141707 -253.79690929 1687.38974958 -267 1713 C-267.32838867 1713.64146973 -267.65677734 1714.28293945 -267.99511719 1714.94384766 C-288.64465813 1754.74274921 -324.5219527 1784.70685365 -367.12768555 1798.4699707 C-412.34495641 1812.25396312 -460.60414884 1807.53527603 -502.28491211 1785.39990234 C-515.23225825 1778.28385885 -526.99094995 1769.77064235 -537.53759766 1759.42285156 C-539.05938274 1757.94222327 -540.61122041 1756.49844986 -542.16796875 1755.0546875 C-574.21257965 1724.82555365 -590.44838967 1681.13178604 -592.1262207 1637.73535156 C-592.47053705 1623.21503946 -592.11166285 1609.21372716 -589 1595 C-588.79117188 1594.01217529 -588.79117188 1594.01217529 -588.578125 1593.00439453 C-585.65035688 1579.55495973 -580.18429142 1567.02047206 -572.96875 1555.33203125 C-571.73349805 1552.35846103 -572.15866206 1551.0837795 -573 1548 C-574.18294155 1545.46042789 -574.18294155 1545.46042789 -575.703125 1542.88671875 C-576.26427002 1541.89929687 -576.82541504 1540.911875 -577.40356445 1539.89453125 C-578.01288818 1538.83621094 -578.62221191 1537.77789063 -579.25 1536.6875 C-580.54163475 1534.41087641 -581.83197036 1532.13351533 -583.12109375 1529.85546875 C-583.44897385 1529.27759613 -583.77685394 1528.69972351 -584.1146698 1528.1043396 C-626.19012293 1453.90132143 -661.26535493 1375.41484512 -695 1278 C-695.24409607 1277.28102539 -695.48819214 1276.56205078 -695.73968506 1275.82128906 C-725.69094561 1187.5620935 -745.38695228 1095.73535962 -759.89285278 944.07244873 C-759.96785334 942.62178281 -760.04668429 941.17131217 -760.12838745 939.7210083 C-761.19088088 920.6964823 -761.20121797 901.67231705 -761.1875 882.625 C-761.18723312 881.79449253 -761.18696625 880.96398506 -761.18669128 880.1083107 C-761.17631077 854.35469206 -760.92796164 828.69290897 -759 803 C-758.86974492 801.204756 -758.73953845 799.40950846 -758.609375 797.61425781 C-751.46193349 700.60860006 -732.0461822 604.79999653 -629 348 C-628.12755025 346.48570814 -627.25515119 344.97138708 -626.3828125 343.45703125 C-611.21420776 317.26462652 -594.24938009 292.13889996 -576 268 C-575.52981445 267.37673828 -575.05962891 266.75347656 -574.57519531 266.11132812 C-565.9103106 254.65435529 -556.74902028 243.62358382 -547.43701172 232.69140625 C-546.00600998 231.00707393 -544.58262965 229.3165372 -543.16015625 227.625 C-530.53800287 212.66937525 -516.87770569 198.78358752 -503.0625 184.9375 C-502.38069672 184.25301788 -501.69889343 183.56853577 -500.99642944 182.86331177 C-494.17694531 176.02353735 -487.39379706 169.2253141 -480 163 C-478.39231627 161.54554483 -476.78760285 160.08779105 -475.1875 158.625 C-470.9455915 154.80085522 -466.59448903 151.15110545 -462.15234375 147.5625 C-459.81140119 145.66979087 -457.49750788 143.74749825 -455.19140625 141.8125 C-444.77147623 133.0931777 -434.0295985 124.93095099 -423 117 C-422.28344238 116.48195801 -421.56688477 115.96391602 -420.82861328 115.43017578 C-370.88054234 79.37908725 -316.08939925 50.45328267 -258 30 C-256.4236377 29.43635742 -256.4236377 29.43635742 -254.81542969 28.86132812 C-214.61917708 14.55775874 -172.36834571 4.93611795 -130 0 C-128.77152344 -0.14953125 -127.54304688 -0.2990625 -126.27734375 -0.453125 C-84.98606206 -5.28641327 -41.21071601 -5.60076689 0 0 Z " fill="#7549BC" transform="translate(1240,3)"/>
<path d="M0 0 C0.79535156 0.68578125 1.59070312 1.3715625 2.41015625 2.078125 C4.98169628 4.34401447 7.49773339 6.65784867 10 9 C10.94875 9.88300781 11.8975 10.76601563 12.875 11.67578125 C18.46637224 16.99862832 23.50561136 22.60945906 28.1875 28.75 C28.86304932 29.62313843 28.86304932 29.62313843 29.55224609 30.51391602 C33.0242798 35.20556828 35.85739133 40.2002427 38.69262695 45.29003906 C39.10797951 46.03222687 39.52333206 46.77441467 39.95127106 47.53909302 C40.96915233 49.35847975 41.98480115 51.17911514 43 53 C44.09023972 53.00808685 45.18047943 53.01617371 46.30375671 53.02450562 C56.81186551 53.10355242 67.31986923 53.1916177 77.82783794 53.28752708 C83.22415035 53.33651754 88.62045157 53.38281319 94.0168457 53.421875 C132.07853212 53.70095803 170.11319394 54.63497396 208.0625 57.75 C209.08910736 57.83236908 210.11571472 57.91473816 211.1734314 57.99960327 C266.2206663 62.4490791 320.84472323 70.2117651 375 81 C375.85964355 81.1712439 376.71928711 81.34248779 377.60498047 81.5189209 C433.37430394 92.67960849 488.20519839 107.74993317 541.9631958 126.29870605 C543.94403629 126.98073108 545.92653443 127.65768295 547.90966797 128.33300781 C613.04093099 150.54651617 677.91280394 178.70351558 737.34960938 213.46972656 C740.21976302 215.12688602 743.11342949 216.73558398 746.015625 218.3359375 C761.30560882 226.76730891 776.21960053 235.70614555 791 245 C792.05751465 245.66290039 793.1150293 246.32580078 794.20458984 247.00878906 C808.55073431 256.02108236 822.58875346 265.40275236 836.42382812 275.18066406 C838.79334026 276.85405341 841.1686469 278.51871952 843.546875 280.1796875 C858.44536472 290.60402305 873.1031366 301.34276953 887.32617188 312.67333984 C889.04837327 314.03834019 890.78034824 315.38995016 892.515625 316.73828125 C899.45624051 322.13706814 906.2396878 327.68003187 912.92578125 333.390625 C915.70733088 335.76269035 918.53348661 338.07492712 921.375 340.375 C931.35117311 348.50964116 941.03946298 356.98232419 950.43701172 365.77856445 C953.15031082 368.31510582 955.90053006 370.79453996 958.70776367 373.22705078 C972.06179963 384.89484555 984.6158216 397.45332272 997.13330078 410.00292969 C999.65411752 412.52918029 1002.18033738 415.04994144 1004.70703125 417.5703125 C1006.33886292 419.20280394 1007.97038491 420.83560501 1009.6015625 422.46875 C1010.34330719 423.20847046 1011.08505188 423.94819092 1011.84927368 424.71032715 C1015.89280681 428.77192955 1019.76181833 432.92817222 1023.50448608 437.26867676 C1025.19517051 439.22594457 1026.93989993 441.12267413 1028.71875 443 C1029.65267578 443.99 1029.65267578 443.99 1030.60546875 445 C1031.23066406 445.66 1031.85585937 446.32 1032.5 447 C1039.44087782 454.3272772 1046.07244103 461.88823951 1052.625 469.5625 C1055.79248519 473.26826704 1058.96584115 476.9681152 1062.171875 480.640625 C1073.42885941 493.53699279 1084.41721982 506.64541761 1094.72851562 520.31494141 C1096.10104859 522.13391655 1097.48032138 523.94768327 1098.859375 525.76171875 C1122.94525402 557.54705306 1144.79732387 591.04989742 1164 626 C1164.58217285 627.05074707 1165.1643457 628.10149414 1165.76416016 629.18408203 C1196.23918252 684.31415874 1219.37981991 742.98350867 1235 804 C1235.17984436 804.69853088 1235.35968872 805.39706177 1235.54498291 806.11676025 C1243.12158365 835.61655825 1248.72861908 865.56404651 1252.3125 895.8125 C1252.45977539 897.05322266 1252.60705078 898.29394531 1252.75878906 899.57226562 C1253.21788147 903.7116234 1253.62074714 907.85270167 1254 912 C1254.08613556 912.91287781 1254.17227112 913.82575562 1254.26101685 914.76629639 C1255.95276127 933.14923411 1256.34567201 951.43231469 1256.31567383 969.87597656 C1256.31106111 972.94448583 1256.31791994 976.01259681 1256.33618164 979.08105469 C1256.50331769 1007.48843131 1254.93664986 1035.69582325 1250.6875 1063.8125 C1250.58361969 1064.51572388 1250.47973938 1065.21894775 1250.37271118 1065.94348145 C1243.29103115 1113.77939955 1230.43269377 1159.75598388 1211 1204 C1210.62246582 1204.86028809 1210.24493164 1205.72057617 1209.85595703 1206.60693359 C1194.55575043 1241.08090779 1172.77290342 1272.85277422 1149 1302 C1147.94232422 1303.31871094 1147.94232422 1303.31871094 1146.86328125 1304.6640625 C1142.27306948 1310.35175945 1137.51426525 1315.83051758 1132.5546875 1321.19921875 C1130.60414572 1323.33765676 1128.70485755 1325.49821153 1126.81665039 1327.69042969 C1123.15884825 1331.87473996 1119.3137048 1335.83116466 1115.37890625 1339.75390625 C1114.67531479 1340.45845444 1113.97172333 1341.16300262 1113.24681091 1341.88890076 C1111.76985352 1343.36653367 1110.29165258 1344.84292457 1108.81225586 1346.31811523 C1106.56834915 1348.55666481 1104.32983296 1350.80050473 1102.09179688 1353.04492188 C1100.64615382 1354.48990404 1099.20020055 1355.93457592 1097.75390625 1357.37890625 C1096.76602867 1358.36982018 1096.76602867 1358.36982018 1095.75819397 1359.38075256 C1091.33253475 1363.78452837 1086.7385655 1367.93628685 1082 1372 C1080.90581479 1372.95001981 1079.81198785 1373.90045266 1078.71875 1374.8515625 C1050.69033632 1399.05850859 1020.84500282 1421.05325273 989 1440 C988.01725098 1440.58604004 987.03450195 1441.17208008 986.02197266 1441.77587891 C912.91309086 1485.16157867 832.61893158 1515.35253569 694.75 1538.3125 C693.72998398 1538.42581161 693.72998398 1538.42581161 692.68936157 1538.54141235 C666.4832177 1541.39757723 640.27290444 1542.38447789 613.93204498 1542.31805801 C611.64290801 1542.31238958 609.35377854 1542.30958654 607.06463623 1542.30697632 C582.61238963 1542.26652386 558.32941258 1541.61029469 534 1539 C533.17634949 1538.91278687 532.35269897 1538.82557373 531.50408936 1538.73571777 C469.19441784 1532.08660599 407.88281132 1518.81079409 348.21887207 1499.71032715 C346.74000164 1499.2368966 345.26075284 1498.76464635 343.78112793 1498.2935791 C300.01901644 1484.36084724 257.80973364 1466.93553489 216 1448 C216 1447.34 216 1446.68 216 1446 C217.96778495 1444.45651868 219.93805798 1443.0335232 222 1441.625 C223.29674488 1440.71912325 224.59227249 1439.81150207 225.88671875 1438.90234375 C226.56524902 1438.42651855 227.2437793 1437.95069336 227.94287109 1437.46044922 C231.27623454 1435.09394315 234.5466577 1432.64599627 237.8125 1430.1875 C238.47491699 1429.68887451 239.13733398 1429.19024902 239.81982422 1428.67651367 C251.74389036 1419.6798358 263.58997711 1410.58859806 275.31152344 1401.32958984 C276.9976361 1400.00186145 278.68926782 1398.681513 280.3828125 1397.36328125 C292.64794308 1387.80426122 304.63013045 1377.90354146 316.47338867 1367.82763672 C319.74095921 1365.05114911 323.04359143 1362.32442077 326.375 1359.625 C331.57805902 1355.39226183 336.64564203 1351.01352012 341.69873047 1346.60400391 C342.89444413 1345.5609209 344.09452465 1344.52281858 345.29931641 1343.49023438 C346.41695069 1342.51090052 347.50936418 1341.50187063 348.57177734 1340.46289062 C350.96068665 1338.21139989 352.38120236 1337.0195597 355.71875 1336.9140625 C360.43335913 1338.47437362 364.9482421 1340.39467273 369.5 1342.375 C446.58286803 1375.04674524 529.69190396 1392.80372148 613 1399 C613.91281738 1399.07202637 614.82563477 1399.14405273 615.76611328 1399.21826172 C698.59460166 1405.58708491 783.16319377 1391.72885446 859 1358 C860.18891846 1357.47889648 860.18891846 1357.47889648 861.40185547 1356.94726562 C898.55959558 1340.59487475 932.61366655 1316.72312266 963 1290 C963.91523438 1289.19820312 964.83046875 1288.39640625 965.7734375 1287.5703125 C972.85162987 1281.22224885 979.58064201 1274.52299494 986.3125 1267.8125 C987.02696289 1267.10205536 987.02696289 1267.10205536 987.75585938 1266.3772583 C993.39575095 1260.7614335 998.84546068 1255.06411428 1004 1249 C1004.845625 1248.03578125 1005.69125 1247.0715625 1006.5625 1246.078125 C1029.5571432 1219.39844282 1048.98396268 1189.77598975 1066 1159 C1066.46792969 1158.15743652 1066.93585938 1157.31487305 1067.41796875 1156.44677734 C1089.57450669 1116.2686576 1103.05856838 1072.22677762 1110 1027 C1110.16661133 1025.95038086 1110.33322266 1024.90076172 1110.50488281 1023.81933594 C1115.94397628 987.97537213 1115.431463 948.8105629 1110 913 C1109.82839355 911.83114258 1109.65678711 910.66228516 1109.47998047 909.45800781 C1105.27223126 881.44394919 1098.58438906 853.98244511 1090 827 C1089.68933594 826.01338379 1089.37867187 825.02676758 1089.05859375 824.01025391 C1078.45152997 790.7411318 1064.27483572 758.36983021 1049 727 C1048.55253418 726.06945801 1048.10506836 725.13891602 1047.64404297 724.18017578 C1041.03198052 710.44118756 1033.63842835 697.19117914 1026 684 C1025.39945801 682.95457031 1024.79891602 681.90914062 1024.18017578 680.83203125 C1004.18012267 646.08213546 981.30426308 613.1031567 956 582 C954.9790625 580.73542969 954.9790625 580.73542969 953.9375 579.4453125 C945.52232507 569.07661481 936.87041312 558.92341003 927.79785156 549.12402344 C925.27139555 546.39515653 922.7964758 543.6347718 920.375 540.8125 C917.15488669 537.09165137 913.68121479 533.66530617 910.1796875 530.2109375 C908.23766452 528.24107189 906.41938329 526.22846367 904.625 524.125 C898.32532929 516.80218091 891.37264033 510.07237426 884.02734375 503.80859375 C881.58571366 501.63041508 879.29951968 499.32751992 877 497 C873.46686601 493.42916488 869.86626905 490.03448775 866.05078125 486.76953125 C863.72433417 484.76213977 861.45807314 482.69533362 859.1875 480.625 C854.87090287 476.7295343 850.4259887 473.03141782 845.90625 469.375 C843.34705412 467.28361412 840.8240847 465.15932636 838.31176758 463.01245117 C831.03401919 456.79579041 823.5789278 450.84442031 816 445 C814.81543213 444.08444336 814.81543213 444.08444336 813.60693359 443.15039062 C802.69082184 434.7268361 791.68146302 426.48890076 780.34912109 418.63378906 C777.69017328 416.78451877 775.04228042 414.91995418 772.39453125 413.0546875 C762.77804755 406.29655772 753.13799561 399.6629483 743.109375 393.53125 C740.07304139 391.67422 737.07032939 389.77108842 734.078125 387.84375 C703.9104915 368.41294792 672.66280976 350.85967939 641 334 C640.06913574 333.50226074 639.13827148 333.00452148 638.17919922 332.49169922 C588.634706 306.02889893 536.39867708 284.14923282 483.34191895 265.80993652 C481.04952398 265.01712753 478.75856793 264.22027137 476.46777344 263.42285156 C390.29669123 233.50567126 300.2065473 214.87791154 49 201 C48.68844971 201.94834717 48.37689941 202.89669434 48.0559082 203.8737793 C43.83853374 216.36013306 35.97486406 227.63690655 28 238 C26.95779297 239.37865234 26.95779297 239.37865234 25.89453125 240.78515625 C-1.57681494 275.78148657 -43.09254254 298.89052308 -87.16796875 304.58984375 C-130.25340215 308.96501645 -175.72590442 298.36803974 -210.1328125 271.34765625 C-211.55207031 270.18556641 -211.55207031 270.18556641 -213 269 C-213.80195801 268.34813721 -213.80195801 268.34813721 -214.62011719 267.68310547 C-250.22322066 238.63303698 -273.38582424 197.99451834 -278.375 152.0625 C-281.60343905 116.74725389 -274.91205561 82.18932164 -258 51 C-257.68450195 50.39994141 -257.36900391 49.79988281 -257.04394531 49.18164062 C-249.92083346 35.64403737 -240.4736415 24.09865085 -230 13 C-229.31808594 12.26523437 -228.63617187 11.53046875 -227.93359375 10.7734375 C-169.80635704 -49.81591052 -63.53547586 -55.28550682 0 0 Z " fill="#7549BC" transform="translate(1144,737)"/>
<path d="M0 0 C0.99 0.33 1.98 0.66 3 1 C3.82800589 3.76704158 4.44515219 6.39971767 4.98828125 9.2265625 C5.36095313 11.0333115 5.733763 12.84003204 6.10668945 14.64672852 C6.30187164 15.61699982 6.49705383 16.58727112 6.69815063 17.58694458 C10.56398383 36.70410522 14.98800744 55.66605817 19.8125 74.5625 C20.10496613 75.70909088 20.39743225 76.85568176 20.69876099 78.03701782 C25.411563 96.43526774 30.50128508 114.7136584 35.91333008 132.91821289 C36.17388687 133.79834045 36.43444366 134.67846802 36.70289612 135.58526611 C37.18055853 137.19482534 37.66210156 138.80324172 38.14878845 140.41009521 C39.77549817 145.88235994 40.95860072 151.38816212 42 157 C41.319375 157.49886719 40.63875 157.99773437 39.9375 158.51171875 C23.15621734 170.94147199 7.02752935 184.31356814 -8.2890625 198.5078125 C-10.55564698 200.59150255 -12.85095873 202.62093101 -15.1875 204.625 C-18.82232324 207.77066484 -22.18505681 211.14459702 -25.53125 214.59375 C-27.56170857 216.57280455 -29.62490651 218.40918623 -31.77734375 220.25 C-36.17478456 224.06637604 -40.11846109 228.22314695 -44.0625 232.5 C-48.46931862 237.25103492 -52.90828611 241.9409308 -57.51049805 246.50341797 C-59.21022333 248.21122259 -60.81114371 249.97972662 -62.375 251.8125 C-64.99694661 254.85583088 -67.66909667 257.84352274 -70.375 260.8125 C-74.21928245 265.07745308 -77.89526905 269.4486085 -81.50390625 273.9140625 C-83.31198156 276.14939817 -85.13112763 278.37188205 -86.96484375 280.5859375 C-95.37424369 290.77526889 -103.27225608 301.28663972 -111 312 C-111.50885742 312.70205566 -112.01771484 313.40411133 -112.54199219 314.12744141 C-170.37587618 394.09222169 -213.40151226 489.60780894 -221 610 C-221.02336426 610.7429834 -221.04672852 611.4859668 -221.07080078 612.25146484 C-222.81606022 677.32470974 -207.17310333 743.15958972 -180 802 C-179.29206299 803.53333984 -179.29206299 803.53333984 -178.56982422 805.09765625 C-153.87534891 858.21807163 -121.13925984 907.98978644 -77 947 C-76.47148437 947.47324707 -75.94296875 947.94649414 -75.3984375 948.43408203 C1.68205342 1017.29917039 104.6822198 1048.5194161 210 1057 C211.31403809 1057.10441406 212.62807617 1057.20882812 213.98193359 1057.31640625 C254.10806324 1060.41704103 294.8948752 1060.41929694 335 1057 C335.75057678 1056.93683594 336.50115356 1056.87367187 337.2744751 1056.80859375 C399.72847802 1051.50318122 461.3685946 1039.36513464 521 1020 C521.74145264 1019.75936829 522.48290527 1019.51873657 523.24682617 1019.27081299 C584.75896931 999.24273271 644.12689558 972.5002357 700.234375 940.29296875 C706.19491678 936.87221757 712.20917514 933.55113155 718.22558594 930.23022461 C727.58135233 925.06189741 736.8786441 919.83426722 745.98339844 914.234375 C748.35954207 912.77992195 750.74595394 911.34305036 753.1328125 909.90625 C774.79089488 896.8420197 796.047454 883.16682801 817 869 C817.71446289 868.51724609 818.42892578 868.03449219 819.16503906 867.53710938 C829.15690484 860.76857879 838.95705285 853.74945496 848.71777344 846.65283203 C850.97461578 845.01838374 853.2396241 843.39600099 855.5078125 841.77734375 C871.20794476 830.55662776 886.33331229 818.65924227 901.25585938 806.42822266 C902.82908924 805.13995352 904.40648248 803.85677275 905.984375 802.57421875 C912.49423917 797.27789863 918.91567012 791.88286881 925.30419922 786.44140625 C927.00234846 784.99800384 928.70590193 783.56118577 930.41015625 782.125 C937.99563749 775.70775367 945.31310075 769.05280235 952.54296875 762.23828125 C955.33856848 759.60663741 958.18311461 757.04007975 961.0625 754.5 C965.90799655 750.18207008 970.46444964 745.5940915 975.00415039 740.95898438 C977.5840004 738.34020862 980.12433967 735.89909608 982.984375 733.578125 C986.03488366 730.97017718 988.49264777 728.21039832 991.08984375 725.16796875 C995.25091962 720.44527528 999.84212382 716.1216702 1004.328125 711.7109375 C1008.53380979 707.54816786 1012.56617368 703.31501614 1016.42285156 698.82666016 C1018.67553073 696.21759738 1021.02554784 693.70980975 1023.375 691.1875 C1027.62485297 686.58821468 1031.63576503 681.8491206 1035.5625 676.96875 C1038.42926803 673.47717355 1041.39793318 670.08490453 1044.375 666.6875 C1049.98520685 660.25915488 1055.31468082 653.66118789 1060.52392578 646.90576172 C1062.11871479 644.84672715 1063.72812291 642.7997111 1065.33984375 640.75390625 C1073.50852344 630.36402877 1081.37329389 619.79351185 1089 609 C1089.63196289 608.10619629 1090.26392578 607.21239258 1090.91503906 606.29150391 C1100.24991676 593.05531313 1109.32631256 579.67908851 1118 566 C1118.52126465 565.17886719 1119.0425293 564.35773437 1119.57958984 563.51171875 C1132.78021131 542.63744983 1144.9942217 521.18244034 1156.68066406 499.42871094 C1157.94751699 497.0966138 1159.24469528 494.78464402 1160.5546875 492.4765625 C1160.93955322 491.78780029 1161.32441895 491.09903809 1161.72094727 490.3894043 C1162.72889682 488.58699843 1163.7486884 486.79122859 1164.76953125 484.99609375 C1166.13565998 481.66967872 1166.28331828 480.32522026 1165 477 C1163.77659196 475.44286493 1163.77659196 475.44286493 1162.125 474.125 C1134.91724265 448.2525927 1119.82797847 403.4565617 1118.796875 366.64453125 C1118.52092163 346.12027947 1120.89844705 326.62224056 1127 307 C1127.20431641 306.3390332 1127.40863281 305.67806641 1127.61914062 304.99707031 C1134.91962744 282.13379971 1147.70966849 261.55010728 1164.0625 244.11328125 C1165.44718795 242.60296637 1166.7668036 241.03194718 1168.0390625 239.42578125 C1191.17246467 210.80856463 1233.82972974 193.96956311 1269.375 189.50390625 C1314.3206181 184.88050903 1359.11299951 196.3833475 1395 224 C1395.91910156 224.69480469 1396.83820313 225.38960937 1397.78515625 226.10546875 C1429.02376759 250.62708855 1450.34125119 285.32089922 1459 324 C1459.16371094 324.72993164 1459.32742188 325.45986328 1459.49609375 326.21191406 C1468.66853168 369.55357839 1459.24955072 418.07239429 1435.1875 455.125 C1425.67002105 468.85177493 1415.06164112 482.48697178 1402 493 C1401.03320312 493.78117187 1400.06640625 494.56234375 1399.0703125 495.3671875 C1373.31642929 515.84215356 1341.98651762 529.66502155 1309 532 C1308.72849121 532.86753906 1308.45698242 533.73507812 1308.17724609 534.62890625 C1307.04004344 537.88533393 1305.70280879 540.85306048 1304.1640625 543.9375 C1303.60082275 545.06808838 1303.03758301 546.19867676 1302.45727539 547.36352539 C1301.84698728 548.57592047 1301.2362169 549.7880729 1300.625 551 C1300.31287567 551.62147919 1300.00075134 552.24295837 1299.6791687 552.88327026 C1294.21365143 563.75776198 1288.51501848 574.48752219 1282.59667969 585.12304688 C1280.86825899 588.23737555 1279.156235 591.36040152 1277.4453125 594.484375 C1268.98857557 609.88062708 1260.17625246 625.02208196 1251 640 C1250.41847168 640.95342285 1249.83694336 641.9068457 1249.23779297 642.88916016 C1227.22097288 678.90490033 1203.29220285 713.9438479 1177.35742188 747.25244141 C1175.82109684 749.23032172 1174.29335127 751.21468985 1172.765625 753.19921875 C1161.67305938 767.57725652 1150.14993884 781.58171403 1138.36523438 795.39648438 C1136.94218493 797.06790583 1135.5256236 798.74468874 1134.109375 800.421875 C1128.40388498 807.15534744 1122.55398089 813.71742038 1116.51757812 820.15625 C1113.66141213 823.20328978 1110.8511054 826.27229037 1108.125 829.4375 C1105.49777945 832.48533468 1102.71229298 835.31139947 1099.84010315 838.12745667 C1098.06999216 839.92877391 1096.424726 841.78688447 1094.78491211 843.70678711 C1091.00862383 848.04781569 1087.01448077 852.13003722 1082.94140625 856.19140625 C1082.1934227 856.94034653 1081.44543915 857.6892868 1080.67478943 858.46092224 C1079.10367536 860.03271225 1077.53131608 861.60325849 1075.95776367 863.17260742 C1073.56900154 865.55601304 1071.18562554 867.94471068 1068.80273438 870.33398438 C1067.2659455 871.87011237 1065.7288464 873.40593009 1064.19140625 874.94140625 C1063.48907364 875.64576309 1062.78674103 876.35011993 1062.06312561 877.07582092 C1058.10417329 881.01635445 1054.05164747 884.78213629 1049.80381775 888.41026306 C1047.95639439 890.0384304 1046.22362552 891.74200188 1044.5 893.5 C1041.53264677 896.51413582 1038.42654708 899.29917333 1035.22265625 902.05859375 C1032.67023117 904.28804061 1030.18112486 906.58001382 1027.6875 908.875 C1023.14475315 913.02245258 1018.45880038 916.93232695 1013.671875 920.79296875 C1011.1014095 922.91623338 1008.64080637 925.11811849 1006.1875 927.375 C1001.83676927 931.33580675 997.30192104 934.96959283 992.65380859 938.56860352 C988.67833167 941.65528873 984.7844006 944.82239698 980.92260742 948.05004883 C972.00597292 955.49759997 962.79340737 962.44077865 953.38964844 969.25878906 C951.0433159 970.96843799 948.71087678 972.69526477 946.3828125 974.4296875 C926.75800463 989.04138864 906.59181325 1002.79043964 886 1016 C885.1754834 1016.53077148 884.3509668 1017.06154297 883.50146484 1017.60839844 C870.85965915 1025.73398539 857.99218225 1033.4489881 845 1041 C843.69675781 1041.75796875 843.69675781 1041.75796875 842.3671875 1042.53125 C828.39669609 1050.63497916 814.26071686 1058.41941652 800 1066 C798.90751953 1066.58120605 797.81503906 1067.16241211 796.68945312 1067.76123047 C721.00918954 1107.85608514 640.46474907 1138.61194037 450.81298828 1187.20117188 C446.8673445 1188.02779157 442.93136081 1188.89133195 438.99609375 1189.765625 C405.6412499 1197.14400323 372.03012614 1202.05466079 338 1205 C337.3166156 1205.06058594 336.6332312 1205.12117188 335.92913818 1205.18359375 C293.1477393 1208.94746816 248.77157709 1208.79787767 206 1205 C205.27256592 1204.93683594 204.54513184 1204.87367187 203.7956543 1204.80859375 C144.94809595 1199.67115846 87.17230157 1188.37547294 31 1170 C29.80665039 1169.61086426 28.61330078 1169.22172852 27.38378906 1168.82080078 C0.5184391 1159.98989326 -25.48824201 1149.18850393 -51 1137 C-52.09634766 1136.47712402 -53.19269531 1135.95424805 -54.32226562 1135.41552734 C-72.16303685 1126.84679619 -89.15131383 1117.36549238 -106 1107 C-106.90637207 1106.44538086 -107.81274414 1105.89076172 -108.74658203 1105.31933594 C-130.2616353 1092.11515162 -150.68107105 1077.25111619 -170 1061 C-170.53157715 1060.55333984 -171.0631543 1060.10667969 -171.61083984 1059.64648438 C-183.81558028 1049.36514703 -195.4595178 1038.62626543 -206.7890625 1027.38616943 C-208.20565861 1025.98146903 -209.62620508 1024.58075592 -211.046875 1023.18017578 C-216.38292855 1017.85083063 -221.31991797 1012.36533858 -226.00634766 1006.45507812 C-227.95481983 1004.05563701 -229.99971348 1001.80551765 -232.125 999.5625 C-295.71653848 929.35832321 -330.57733359 828.7800052 -350.70574951 702.40301514 C-350.9783511 700.17679709 -351.26029585 697.95194458 -351.54345703 695.72705078 C-357.28238267 649.52385359 -356.90043364 599.15958552 -351 553 C-350.79384372 551.33676389 -350.58779406 549.67351456 -350.38183594 548.01025391 C-340.63123945 470.31291088 -318.46974755 395.87471892 -255 271 C-254.43700195 270.04915527 -253.87400391 269.09831055 -253.29394531 268.11865234 C-229.06369204 227.21524441 -200.4025812 188.82890768 -168.9296875 153.21484375 C-167.35511981 151.40759703 -165.80241523 149.58661869 -164.2578125 147.75390625 C-158.88527242 141.39451995 -153.46361973 135.24954773 -147.44921875 129.4765625 C-145.56196686 127.56824081 -143.84244715 125.66117505 -142.109375 123.62109375 C-136.88124418 117.59139596 -131.17051718 112.02171452 -125.52124023 106.39086914 C-123.56704376 104.4420313 -121.61824853 102.48790728 -119.66992188 100.53320312 C-108.35278968 89.21065232 -108.35278968 89.21065232 -102.57983398 84.36547852 C-100.79638942 82.82401576 -99.15016719 81.18261429 -97.5 79.5 C-94.51127663 76.46405075 -91.38293521 73.65491341 -88.15625 70.875 C-85.80037042 68.82640906 -83.4949254 66.72796998 -81.1875 64.625 C-76.89391368 60.74966257 -72.46911998 57.0777869 -67.97265625 53.44140625 C-64.66247734 50.72279677 -61.42525024 47.9289311 -58.1875 45.125 C-51.91302866 39.71258497 -45.47074603 34.55716822 -38.91748047 29.48779297 C-36.86710005 27.89688155 -34.82563094 26.29499999 -32.78515625 24.69140625 C-28.21009628 21.10143357 -23.61239385 17.54185835 -19 14 C-18.13955078 13.33838867 -17.27910156 12.67677734 -16.39257812 11.99511719 C-13.79186323 10.00493015 -11.1793865 8.03135743 -8.5625 6.0625 C-7.75143799 5.44076904 -6.94037598 4.81903809 -6.10473633 4.1784668 C-5.3495874 3.61554932 -4.59443848 3.05263184 -3.81640625 2.47265625 C-2.81782593 1.71867554 -2.81782593 1.71867554 -1.79907227 0.94946289 C-0.90853149 0.47947876 -0.90853149 0.47947876 0 0 Z " fill="#7549BC" transform="translate(354,1060)"/>
</svg>
