<?xml version="1.0" encoding="UTF-8"?>
<svg version="1.1" xmlns="http://www.w3.org/2000/svg" width="768" height="768">
<path d="M0 0 C1.19399414 -0.04253906 1.19399414 -0.04253906 2.41210938 -0.0859375 C18.24208906 -0.13591376 33.48136188 9.77084886 47.25 16.625 C51.25786413 18.60930317 55.26767901 20.58965093 59.27734375 22.5703125 C60.26926727 23.06122375 61.2611908 23.55213501 62.28317261 24.05792236 C72.08488553 28.90123871 81.94882317 33.61101641 91.81985474 38.31097412 C97.49494759 41.01807102 103.15267685 43.76116223 108.8125 46.5 C117.47013357 50.68566272 126.13434651 54.85700062 134.8125 59 C138.64628527 60.83238925 142.47947217 62.66602692 146.3125 64.5 C147.50004883 65.06783203 148.68759766 65.63566406 149.91113281 66.22070312 C153.12175674 67.75661104 156.33051893 69.29636156 159.53833008 70.83813477 C161.36764371 71.71645928 163.19844182 72.59168997 165.02929688 73.46679688 C183.22775352 82.22371846 197.60156534 89.59483015 204.86929661 109.59524554 C206.46495411 114.45955788 206.73397866 118.85670524 206.69281673 123.94482136 C206.69747665 124.85657909 206.70213657 125.76833683 206.7069377 126.70772359 C206.718865 129.75535509 206.70950088 132.80253892 206.70018005 135.85017395 C206.70435395 138.06028488 206.70983178 140.27039368 206.71649987 142.48049849 C206.73096581 148.54828325 206.72670607 154.6159323 206.71933305 160.68372452 C206.71509209 166.55738763 206.72491072 172.43101645 206.73424067 178.30467121 C206.75389993 191.05868204 206.75625637 203.81265222 206.75104547 216.56667459 C206.74648685 227.72985145 206.74708927 238.89301223 206.75288582 250.05618858 C206.75364269 251.55407701 206.75439867 253.05196543 206.75515376 254.54985386 C206.75629897 256.80709624 206.75744885 259.06433862 206.75861301 261.32158099 C206.76931713 282.30592255 206.77404421 303.29025874 206.76614285 324.27460194 C206.76569709 325.46097644 206.76569709 325.46097644 206.76524232 326.6713181 C206.76279343 333.09394498 206.76018182 339.51657179 206.75755819 345.9391986 C206.7474572 370.98789289 206.7558087 396.03652014 206.77905273 421.08520508 C206.80513249 449.23524837 206.81797126 477.38525129 206.81086498 505.53530711 C206.81014894 508.53765944 206.80947455 511.54001178 206.80882454 514.54236412 C206.80865473 515.2816052 206.80848492 516.02084628 206.80830997 516.7824886 C206.8060082 527.93544505 206.81397818 539.08836399 206.82711601 550.24131203 C206.84203374 562.9277747 206.84286182 575.61414954 206.8250451 588.30061034 C206.81652362 594.77294492 206.81441385 601.24511184 206.82969666 607.71743774 C206.84351915 613.64472109 206.83881151 619.57169275 206.81945742 625.49895795 C206.81568965 627.64087928 206.81864166 629.78282542 206.82906907 631.92472468 C206.90989017 649.80022421 204.56055909 662.71185022 192 676.25 C185.16596244 682.65301696 176.4073483 686.57897633 168 690.5 C165.97233641 691.45765642 163.94500896 692.41602478 161.91796875 693.375 C160.84981934 693.87902344 159.78166992 694.38304687 158.68115234 694.90234375 C153.32946443 697.44049752 147.99871599 700.02174749 142.66738892 702.60229492 C133.39316782 707.09071215 124.11076191 711.56155723 114.8125 716 C106.17628714 720.12269627 97.55400331 724.27380255 88.9375 728.4375 C78.8504907 733.31173623 68.76043763 738.1794442 58.65405273 743.01342773 C53.75772623 745.35709263 48.86791279 747.7123236 43.99475098 750.10386658 C42.18007032 750.99398991 40.36392877 751.88106437 38.54736328 752.76733398 C36.26020596 753.88446788 33.97579885 755.00725873 31.69482422 756.13696289 C21.47749537 761.11397283 11.82918755 765.26587596 0.3125 765 C-0.54907715 764.98718994 -1.4106543 764.97437988 -2.29833984 764.96118164 C-20.45059001 764.38678649 -31.27754996 754.19849226 -43.7578125 742.21875 C-46.99449839 739.12236888 -50.32997408 736.16560741 -53.71435547 733.23242188 C-56.94318152 730.39751101 -60.06114751 727.44686461 -63.1875 724.5 C-68.86156993 719.16621583 -68.86156993 719.16621583 -74.6875 714 C-78.62707646 710.61334656 -82.3988489 707.05318261 -86.1875 703.5 C-90.60106317 699.36127803 -95.03258584 695.26981783 -99.6171875 691.3203125 C-104.16560412 687.32113865 -108.57344391 683.16233292 -113.01611328 679.04638672 C-120.00656915 672.57873444 -127.0461692 666.16681775 -134.1328125 659.8046875 C-139.53137407 654.93442553 -144.87480431 650.0034276 -150.22851562 645.08398438 C-155.36223745 640.36774437 -160.49997157 635.65717409 -165.6875 631 C-171.91319011 625.41080217 -178.06803078 619.74475942 -184.22851562 614.08398438 C-189.34060374 609.3876188 -194.45635156 604.6967486 -199.625 600.0625 C-204.0795991 596.06551622 -208.47668479 592.00925591 -212.86865234 587.94384766 C-216.93631588 584.18272573 -221.0431163 580.46790461 -225.16796875 576.76953125 C-230.55787666 571.91443591 -235.88701805 566.99220458 -241.22851562 562.08398438 C-246.34060374 557.3876188 -251.45635156 552.6967486 -256.625 548.0625 C-261.0795991 544.06551622 -265.47668479 540.00925591 -269.86865234 535.94384766 C-273.93631588 532.18272573 -278.0431163 528.46790461 -282.16796875 524.76953125 C-287.55787666 519.91443591 -292.88701805 514.99220458 -298.22851562 510.08398438 C-304.13530651 504.65754243 -310.06203426 499.25588745 -316.03515625 493.90234375 C-318.05495606 492.07292271 -320.06128579 490.2326279 -322.05859375 488.37890625 C-322.63939697 487.83999756 -323.2202002 487.30108887 -323.81860352 486.74584961 C-324.95481992 485.68980303 -326.08950232 484.63210284 -327.22241211 483.57250977 C-329.93912748 481.04694117 -332.66148271 478.64891083 -335.6875 476.5 C-338.51499964 477.83441371 -340.98360568 479.33769351 -343.49609375 481.1953125 C-344.23239014 481.73816895 -344.96868652 482.28102539 -345.72729492 482.84033203 C-346.91415894 483.72374268 -346.91415894 483.72374268 -348.125 484.625 C-348.95684814 485.24101074 -349.78869629 485.85702148 -350.64575195 486.49169922 C-358.71852919 492.4874158 -366.71084241 498.5879008 -374.69921875 504.6953125 C-379.00998741 507.98884139 -383.34171297 511.25287948 -387.6875 514.5 C-397.40530522 521.76604263 -407.04257375 529.13767177 -416.6875 536.5 C-439.02290932 553.54944242 -439.02290932 553.54944242 -447.92724609 560.18652344 C-451.27872054 562.68491089 -454.60921753 565.20576795 -457.9140625 567.765625 C-458.61877686 568.30670898 -459.32349121 568.84779297 -460.04956055 569.40527344 C-461.37959967 570.42724915 -462.70450151 571.45596697 -464.02270508 572.49316406 C-472.6692423 579.10340807 -481.75881746 582.57444913 -492.6875 581.5 C-505.96420531 578.40458837 -514.60941915 568.83040089 -524.18359375 559.7890625 C-527.25343835 556.89456833 -530.38993566 554.09746738 -533.58984375 551.34765625 C-537.13631039 548.22385975 -540.5821215 544.98926627 -544.03369141 541.76123047 C-546.42693579 539.53419374 -548.79589796 537.41595231 -551.3828125 535.41015625 C-553.72233503 533.47112825 -555.21708383 531.65854482 -556.875 529.125 C-557.36355469 528.39539063 -557.85210938 527.66578125 -558.35546875 526.9140625 C-562.87539348 518.72252735 -563.05484318 508.50543338 -561 499.48046875 C-558.02628493 491.41426663 -552.64411949 486.17123159 -546.22265625 480.71484375 C-542.80014563 477.72476128 -539.49951841 474.61143767 -536.1875 471.5 C-531.77433224 467.36087529 -527.3423937 463.2698002 -522.7578125 459.3203125 C-518.20939588 455.32113865 -513.80155609 451.16233292 -509.35888672 447.04638672 C-502.36843085 440.57873444 -495.3288308 434.16681775 -488.2421875 427.8046875 C-483.36155968 423.40167464 -478.52757959 418.94747491 -473.6875 414.5 C-467.24943497 408.58416077 -460.79646947 402.68736511 -454.2890625 396.84765625 C-449.39332667 392.42973247 -444.54232998 387.96277327 -439.6875 383.5 C-441.0500182 380.41625125 -442.55975846 378.42531716 -445.03125 376.14453125 C-445.69543945 375.52674805 -446.35962891 374.90896484 -447.04394531 374.27246094 C-447.75131836 373.62567383 -448.45869141 372.97888672 -449.1875 372.3125 C-450.27562988 371.30558105 -450.27562988 371.30558105 -451.38574219 370.27832031 C-455.97785125 366.0380343 -460.60264912 361.83412864 -465.265625 357.671875 C-468.09302628 355.13633449 -470.89160912 352.57013846 -473.6875 350 C-477.31486494 346.6666371 -480.95643167 343.35053612 -484.625 340.0625 C-489.08036804 336.06482627 -493.47833519 332.00799115 -497.87084961 327.94165039 C-501.12115351 324.93603927 -504.39047075 321.95448076 -507.6875 319 C-511.55412567 315.53510167 -515.37763786 312.02695432 -519.1875 308.5 C-523.80695515 304.22396884 -528.45962176 299.98914175 -533.1484375 295.7890625 C-536.59746169 292.67963454 -540.01323814 289.53443878 -543.42236328 286.38134766 C-546.0874034 283.92631721 -548.79623289 281.57551369 -551.625 279.3125 C-557.83860724 274.05366656 -561.30568193 266.78435392 -562.0234375 258.73046875 C-562.19641636 250.93877437 -561.97127368 244.25572176 -557.6875 237.5 C-557.32527344 236.89027344 -556.96304688 236.28054687 -556.58984375 235.65234375 C-553.97385918 231.61752009 -550.77308346 228.64474776 -547.109375 225.56640625 C-544.14510974 223.03721863 -541.29255135 220.40108907 -538.4375 217.75 C-537.31127956 216.70694309 -536.18497685 215.66397501 -535.05859375 214.62109375 C-534.49769043 214.10144043 -533.93678711 213.58178711 -533.35888672 213.04638672 C-529.76102178 209.71759961 -526.14945654 206.40393595 -522.52734375 203.1015625 C-520.69446251 201.42247184 -518.87318326 199.73058598 -517.06640625 198.0234375 C-507.76840717 189.34917315 -498.43294404 182.85409124 -485.27734375 183.26953125 C-474.45225115 184.2328502 -467.02805288 190.08040123 -458.6875 196.5 C-457.68203125 197.26441406 -456.6765625 198.02882812 -455.640625 198.81640625 C-453.56735235 200.40358777 -451.49958417 201.99613287 -449.4375 203.59765625 C-444.68895043 207.28173929 -439.90602887 210.92073186 -435.125 214.5625 C-434.20517334 215.2632666 -433.28534668 215.9640332 -432.33764648 216.68603516 C-426.88896359 220.83363506 -421.42309749 224.95607346 -415.9375 229.0546875 C-411.4994433 232.38323003 -407.09708838 235.75890808 -402.6875 239.125 C-395.54611775 244.57587916 -388.38116648 249.99331597 -381.1875 255.375 C-375.85239079 259.36724117 -370.52733681 263.36912838 -365.25 267.4375 C-364.26128906 268.19417969 -363.27257812 268.95085937 -362.25390625 269.73046875 C-359.27159349 272.02735565 -356.33834043 274.38256596 -353.40234375 276.73828125 C-351.49764629 278.24250469 -349.59269741 279.74640982 -347.6875 281.25 C-346.77814697 281.99113037 -345.86879395 282.73226074 -344.93188477 283.49584961 C-344.06748779 284.17268799 -343.20309082 284.84952637 -342.3125 285.546875 C-341.54164063 286.16401367 -340.77078125 286.78115234 -339.9765625 287.41699219 C-337.68254925 288.80253168 -337.68254925 288.80253168 -335.03442383 287.80444336 C-332.30918728 286.28973007 -330.51109114 284.58136463 -328.375 282.3125 C-325.64280015 279.48608636 -322.92063019 276.74807263 -319.9375 274.1875 C-316.36413079 271.11752209 -312.89309634 267.95092016 -309.4375 264.75 C-308.8818335 264.23550293 -308.32616699 263.72100586 -307.75366211 263.19091797 C-306.62197278 262.14284619 -305.49038126 261.09466879 -304.35888672 260.04638672 C-298.19438635 254.34291822 -292.00242125 248.66951003 -285.75 243.0625 C-281.86379402 239.57551903 -278.01907193 236.04668015 -274.1875 232.5 C-269.56127683 228.21775392 -264.90071377 223.97792188 -260.20703125 219.76953125 C-255.33539755 215.38128446 -250.51537676 210.93626191 -245.6875 206.5 C-234.41089154 196.13809743 -234.41089154 196.13809743 -228.75 191.0625 C-224.86379402 187.57551903 -221.01907193 184.04668015 -217.1875 180.5 C-212.56127683 176.21775392 -207.90071377 171.97792188 -203.20703125 167.76953125 C-198.33539755 163.38128446 -193.51537676 158.93626191 -188.6875 154.5 C-182.23382094 148.56981329 -175.76417264 142.65988822 -169.2421875 136.8046875 C-164.36155968 132.40167464 -159.52757959 127.94747491 -154.6875 123.5 C-148.23382094 117.56981329 -141.76417264 111.65988822 -135.2421875 105.8046875 C-130.36155968 101.40167464 -125.52757959 96.94747491 -120.6875 92.5 C-109.41089154 82.13809743 -109.41089154 82.13809743 -103.75 77.0625 C-99.86379402 73.57551903 -96.01907193 70.04668015 -92.1875 66.5 C-87.56127683 62.21775392 -82.90071377 57.97792188 -78.20703125 53.76953125 C-73.33539755 49.38128446 -68.51537676 44.93626191 -63.6875 40.5 C-57.2378294 34.57349659 -50.78542109 28.65206727 -44.24609375 22.82421875 C-42.39454672 21.14227908 -40.58230681 19.44492858 -38.78515625 17.70703125 C-27.65684214 7.03076551 -15.7178959 -0.04970086 0 0 Z M9.69140625 212.0703125 C8.93021484 212.62976563 8.16902344 213.18921875 7.38476562 213.765625 C6.14243164 214.68601563 6.14243164 214.68601563 4.875 215.625 C3.59206055 216.57246094 3.59206055 216.57246094 2.28320312 217.5390625 C-4.19435226 222.34360689 -10.56892517 227.26891278 -16.91381836 232.24658203 C-22.26680458 236.43222678 -27.70155448 240.49058791 -33.1875 244.5 C-40.26931535 249.67687146 -47.22894187 254.98703462 -54.13549805 260.39501953 C-59.51956875 264.60638651 -64.95932868 268.73387951 -70.43823242 272.82080078 C-76.04969673 277.01027137 -81.6215162 281.2503401 -87.1875 285.5 C-93.33514838 290.19248253 -99.49286026 294.86971137 -105.6875 299.5 C-116.2996173 307.43505262 -126.81954403 315.49155911 -137.35058594 323.53369141 C-146.82896982 330.77125219 -156.32118262 337.98720764 -165.875 345.125 C-173.03252342 350.4737099 -180.11162599 355.91297521 -187.1496582 361.41772461 C-194.07650687 366.82693206 -201.09802905 372.10502788 -208.14746094 377.35302734 C-209.99750303 378.73088051 -211.843207 380.1144633 -213.6875 381.5 C-212.55710874 384.89117378 -211.88356333 385.35639668 -209.06640625 387.36328125 C-208.30465088 387.91346924 -207.54289551 388.46365723 -206.75805664 389.03051758 C-205.93039795 389.61857178 -205.10273926 390.20662598 -204.25 390.8125 C-202.50891398 392.0708401 -200.76936825 393.33131375 -199.03125 394.59375 C-197.69707031 395.56248047 -197.69707031 395.56248047 -196.3359375 396.55078125 C-192.24641574 399.56062101 -188.24523384 402.67914293 -184.25 405.8125 C-178.55959931 410.26704526 -172.83892939 414.66738363 -167.04296875 418.984375 C-162.56457344 422.32951357 -158.13013927 425.73262911 -153.6875 429.125 C-146.54620795 434.57599611 -139.38116525 439.99331689 -132.1875 445.375 C-125.8216329 450.13855323 -119.48778564 454.93670393 -113.1953125 459.796875 C-101.70202445 468.6672135 -90.13079812 477.43597601 -78.5 486.125 C-72.15177123 490.86757325 -65.86261152 495.67542599 -59.625 500.5625 C-52.77867559 505.92599384 -45.82002954 511.11345136 -38.79931641 516.24584961 C-32.52946516 520.84378338 -26.38329512 525.58494194 -20.26147461 530.37744141 C-12.81990409 536.19714169 -5.2784396 541.87692898 2.3125 547.5 C2.88742187 547.92635742 3.46234375 548.35271484 4.0546875 548.79199219 C8.8253823 553.10416289 8.8253823 553.10416289 14.3125 555.5 C14.3125 441.32 14.3125 327.14 14.3125 209.5 C12.48207535 209.5 11.11531502 211.02286669 9.69140625 212.0703125 Z " fill="#1986CF" transform="translate(561.6875,1.5)"/>
<path d="M0 0 C0.78930908 -0.02690918 1.57861816 -0.05381836 2.3918457 -0.08154297 C18.15492374 0.01734511 33.33965519 9.85614518 47.0625 16.6875 C51.07036413 18.67180317 55.08017901 20.65215093 59.08984375 22.6328125 C60.08176727 23.12372375 61.0736908 23.61463501 62.09567261 24.12042236 C71.89738553 28.96373871 81.76132317 33.67351641 91.63235474 38.37347412 C97.30744759 41.08057102 102.96517685 43.82366223 108.625 46.5625 C117.28263357 50.74816272 125.94684651 54.91950062 134.625 59.0625 C138.45878527 60.89488925 142.29197217 62.72852692 146.125 64.5625 C147.31254883 65.13033203 148.50009766 65.69816406 149.72363281 66.28320312 C152.93425674 67.81911104 156.14301893 69.35886156 159.35083008 70.90063477 C161.18014371 71.77895928 163.01094182 72.65418997 164.84179688 73.52929688 C183.04025352 82.28621846 197.41406534 89.65733015 204.68179661 109.65774554 C206.27745411 114.52205788 206.54647866 118.91920524 206.50531673 124.00732136 C206.50997665 124.91907909 206.51463657 125.83083683 206.5194377 126.77022359 C206.531365 129.81785509 206.52200088 132.86503892 206.51268005 135.91267395 C206.51685395 138.12278488 206.52233178 140.33289368 206.52899987 142.54299849 C206.54346581 148.61078325 206.53920607 154.6784323 206.53183305 160.74622452 C206.52759209 166.61988763 206.53741072 172.49351645 206.54674067 178.36717121 C206.56639993 191.12118204 206.56875637 203.87515222 206.56354547 216.62917459 C206.55898685 227.79235145 206.55958927 238.95551223 206.56538582 250.11868858 C206.56614269 251.61657701 206.56689867 253.11446543 206.56765376 254.61235386 C206.56879897 256.86959624 206.56994885 259.12683862 206.57111301 261.38408099 C206.58181713 282.36842255 206.58654421 303.35275874 206.57864285 324.33710194 C206.57834567 325.12801827 206.5780485 325.9189346 206.57774232 326.7338181 C206.57529343 333.15644498 206.57268182 339.57907179 206.57005819 346.0016986 C206.5599572 371.05039289 206.5683087 396.09902014 206.59155273 421.14770508 C206.61763249 449.29774837 206.63047126 477.44775129 206.62336498 505.59780711 C206.62264894 508.60015944 206.62197455 511.60251178 206.62132454 514.60486412 C206.62115473 515.3441052 206.62098492 516.08334628 206.62080997 516.8449886 C206.6185082 527.99794505 206.62647818 539.15086399 206.63961601 550.30381203 C206.65453374 562.9902747 206.65536182 575.67664954 206.6375451 588.36311034 C206.62902362 594.83544492 206.62691385 601.30761184 206.64219666 607.77993774 C206.65601915 613.70722109 206.65131151 619.63419275 206.63195742 625.56145795 C206.62818965 627.70337928 206.63114166 629.84532542 206.64156907 631.98722468 C206.72239017 649.86272421 204.37305909 662.77435022 191.8125 676.3125 C184.97846244 682.71551696 176.2198483 686.64147633 167.8125 690.5625 C165.78483641 691.52015642 163.75750896 692.47852478 161.73046875 693.4375 C160.12824463 694.19353516 160.12824463 694.19353516 158.49365234 694.96484375 C153.14196443 697.50299752 147.81121599 700.08424749 142.47988892 702.66479492 C133.20566782 707.15321215 123.92326191 711.62405723 114.625 716.0625 C105.98878714 720.18519627 97.36650331 724.33630255 88.75 728.5 C78.6629907 733.37423623 68.57293763 738.2419442 58.46655273 743.07592773 C53.57022623 745.41959263 48.68041279 747.7748236 43.80725098 750.16636658 C41.99257032 751.05648991 40.17642877 751.94356437 38.35986328 752.82983398 C36.07270596 753.94696788 33.78829885 755.06975873 31.50732422 756.19946289 C21.16657207 761.23659411 11.57881704 765.28618622 -0.0625 765 C-0.88685547 765.00708984 -1.71121094 765.01417969 -2.56054688 765.02148438 C-8.46106992 764.96113284 -13.3985485 763.72393214 -18.875 761.5625 C-18.875 760.5725 -18.875 759.5825 -18.875 758.5625 C-17.76125 758.624375 -16.6475 758.68625 -15.5 758.75 C-6.67228635 758.70321 0.74486018 755.63249413 7.125 749.5625 C13.09475394 742.02175818 13.41558587 735.08202927 13.37668228 725.82348919 C13.37958916 724.62727067 13.38249604 723.43105215 13.38549101 722.19858459 C13.39154157 718.87152106 13.38861421 715.54468284 13.38193511 712.21763486 C13.37686813 708.60055819 13.383379 704.98349947 13.38842177 701.36642534 C13.39565255 695.02472292 13.39542147 688.68305455 13.39032745 682.34135056 C13.38277298 672.91096983 13.38662455 663.4806179 13.39274407 654.05023738 C13.40328589 637.20827144 13.40235856 620.36632065 13.39658624 603.52435327 C13.39155891 588.78396269 13.39023996 574.04357767 13.39263153 559.30318642 C13.3927843 558.32614415 13.39293707 557.34910188 13.39309447 556.34245228 C13.39371713 552.37647652 13.39435393 548.41050077 13.395014 544.44452502 C13.40113514 507.2227323 13.39558036 470.00094924 13.3848202 432.779158 C13.37533089 399.7019693 13.37617602 366.62479599 13.38574219 333.54760742 C13.39644981 296.39924947 13.40069883 259.25090007 13.39451766 222.10254079 C13.39387621 218.14278082 13.39325053 214.18302085 13.39263153 210.22326088 C13.39247338 209.24824245 13.39231522 208.27322402 13.39215227 207.26865958 C13.38987643 192.53877087 13.3925396 177.80888833 13.39759064 163.07900047 C13.40330546 146.32968061 13.40188747 129.58037829 13.39102915 112.83106061 C13.38515129 103.45475497 13.38478083 94.07848733 13.3923215 84.70218267 C13.39680195 78.44092302 13.39402292 72.17969386 13.38531196 65.91843873 C13.3805494 62.34976064 13.37893812 58.7811581 13.38612393 55.21248236 C13.39378627 51.36795933 13.38599077 47.52355563 13.37668228 43.67903423 C13.38136461 42.57172456 13.38604695 41.46441489 13.39087117 40.32355037 C13.33238803 28.28500382 11.31930067 20.92886458 2.875 12.25 C-3.55500823 8.30431313 -11.36701106 6.34292819 -18.875 7.5625 C-21.60069173 8.50374606 -24.19404694 9.56994435 -26.80859375 10.78515625 C-27.49050781 11.04167969 -28.17242188 11.29820313 -28.875 11.5625 C-29.535 11.2325 -30.195 10.9025 -30.875 10.5625 C-21.21663706 3.24555838 -12.0503064 0.23478323 0 0 Z " fill="#3AA8F1" transform="translate(561.875,1.4375)"/>
<path d="M0 0 C5.78262847 4.02427436 10.17808537 8.53311231 13 15 C13.86187737 19.84615944 14.16077475 24.5755347 14.26156616 29.49168396 C14.27723747 30.2132482 14.29290878 30.93481244 14.30905497 31.67824227 C14.35958332 34.0789645 14.40341497 36.47975358 14.44677734 38.88061523 C14.48090169 40.60936164 14.51512464 42.3381061 14.54943848 44.06684875 C14.85178748 59.83354943 15.02884853 75.60199775 15.170187 91.37087917 C15.26735891 101.95834442 15.40411313 112.54230435 15.63916016 123.12768555 C15.8446137 132.38233439 15.97502159 141.63452059 16.01652873 150.89141041 C16.04091812 155.78301352 16.10097384 160.66790154 16.25089645 165.55740166 C17.19440292 197.60348696 17.19440292 197.60348696 9.39303589 205.88232422 C5.07587835 209.54067523 0.49482558 212.30267544 -4.58093548 214.77856445 C-7.74243451 216.37487049 -10.25276645 218.31845922 -12.9765625 220.5703125 C-21.92969699 227.41959413 -30.93576215 234.18300631 -40.03198242 240.84106445 C-46.3533751 245.48479811 -52.55309564 250.27281914 -58.72998047 255.10644531 C-63.6516117 258.95740208 -68.61690234 262.7397213 -73.62890625 266.47265625 C-78.19596751 269.88400642 -82.718882 273.35366203 -87.25 276.8125 C-93.48110402 281.56728125 -99.72191351 286.30741145 -106 291 C-116.61212311 298.93504469 -127.13204415 306.9915592 -137.66308594 315.03369141 C-147.14146982 322.27125219 -156.63368262 329.48720764 -166.1875 336.625 C-173.34583912 341.97431946 -180.42625115 347.41359462 -187.46435547 352.91992188 C-193.18340236 357.38693016 -198.96546065 361.76349112 -204.78808594 366.09448242 C-208.24504044 368.66810412 -211.65251364 371.28375393 -215 374 C-223.86742211 367.37765365 -232.70253423 360.71505916 -241.5 354 C-247.64771846 349.30760794 -253.80535925 344.63028938 -260 340 C-270.63364283 332.04885198 -281.17349816 323.97425776 -291.72753906 315.91796875 C-314.20789363 298.74996817 -314.20789363 298.74996817 -337 282 C-335.65482741 278.9253198 -334.27093546 277.12428098 -331.6875 275 C-327.90584296 271.80172018 -324.25206217 268.49566731 -320.625 265.125 C-316.77444848 261.55520063 -312.91121317 258.00352971 -309 254.5 C-305.13337485 251.03510214 -301.30984141 247.52697616 -297.5 244 C-292.8995846 239.74114677 -288.2626635 235.52758158 -283.59375 231.34375 C-280.54108319 228.58531613 -277.51917344 225.79497956 -274.5 223 C-269.87380193 218.71772721 -265.21321325 214.47792141 -260.51953125 210.26953125 C-255.64789755 205.88128446 -250.82787676 201.43626191 -246 197 C-234.72339154 186.63809743 -234.72339154 186.63809743 -229.0625 181.5625 C-225.17629402 178.07551903 -221.33157193 174.54668015 -217.5 171 C-212.87377683 166.71775392 -208.21321377 162.47792188 -203.51953125 158.26953125 C-198.64789755 153.88128446 -193.82787676 149.43626191 -189 145 C-182.54632094 139.06981329 -176.07667264 133.15988822 -169.5546875 127.3046875 C-164.67405968 122.90167464 -159.84007959 118.44747491 -155 114 C-148.54632094 108.06981329 -142.07667264 102.15988822 -135.5546875 96.3046875 C-130.67405968 91.90167464 -125.84007959 87.44747491 -121 83 C-109.72339154 72.63809743 -109.72339154 72.63809743 -104.0625 67.5625 C-100.17629402 64.07551903 -96.33157193 60.54668015 -92.5 57 C-87.87377683 52.71775392 -83.21321377 48.47792188 -78.51953125 44.26953125 C-73.64789755 39.88128446 -68.82787676 35.43626191 -64 31 C-50.36656252 18.47244338 -50.36656252 18.47244338 -44.41796875 13.1953125 C-42.78011973 11.70828318 -41.17881976 10.18016376 -39.61328125 8.6171875 C-28.59066575 -2.13918125 -14.40661937 -6.77427243 0 0 Z " fill="#2E7FB6" transform="translate(562,11)"/>
<path d="M0 0 C2.33682478 1.99603783 4.67008578 3.99591669 7 6 C7.88558594 6.75990234 7.88558594 6.75990234 8.7890625 7.53515625 C13.64614405 11.74118219 18.36613146 16.0869342 23.07836914 20.45336914 C27.17872781 24.25065525 31.31945329 27.99967137 35.48046875 31.73046875 C40.87037666 36.58556409 46.19951805 41.50779542 51.54101562 46.41601562 C56.67473745 51.13225563 61.81247157 55.84282591 67 60.5 C70.64383878 63.77130574 74.26672391 67.06455357 77.875 70.375 C78.62366333 71.06178833 78.62366333 71.06178833 79.38745117 71.76245117 C81.98866381 74.15012831 84.5871509 76.5407311 87.18359375 78.93359375 C92.37878616 83.71635445 97.59417411 88.45419187 103 93 C99.30595129 97.03699753 94.97453214 100.05946418 90.5625 103.25 C83.41770413 108.46345202 76.33759311 113.75131601 69.3125 119.125 C63.22823119 123.77718771 57.13553643 128.41559995 51 133 C41.28219478 140.26604263 31.64492625 147.63767177 22 155 C-0.33540932 172.04944242 -0.33540932 172.04944242 -9.23974609 178.68652344 C-12.59122054 181.18491089 -15.92171753 183.70576795 -19.2265625 186.265625 C-19.93127686 186.80670898 -20.63599121 187.34779297 -21.36206055 187.90527344 C-22.69209967 188.92724915 -24.01700151 189.95596697 -25.33520508 190.99316406 C-33.9817423 197.60340807 -43.07131746 201.07444913 -54 200 C-67.27670531 196.90458837 -75.92191915 187.33040089 -85.49609375 178.2890625 C-88.56593835 175.39456833 -91.70243566 172.59746738 -94.90234375 169.84765625 C-98.44881039 166.72385975 -101.8946215 163.48926627 -105.34619141 160.26123047 C-107.73943579 158.03419374 -110.10839796 155.91595231 -112.6953125 153.91015625 C-115.03483503 151.97112825 -116.52958383 150.15854482 -118.1875 147.625 C-118.67605469 146.89539063 -119.16460937 146.16578125 -119.66796875 145.4140625 C-124.18789348 137.22252735 -124.36734318 127.00543338 -122.3125 117.98046875 C-119.33878493 109.91426663 -113.95661949 104.67123159 -107.53515625 99.21484375 C-104.11264563 96.22476128 -100.81201841 93.11143767 -97.5 90 C-93.08683224 85.86087529 -88.6548937 81.7698002 -84.0703125 77.8203125 C-79.52189588 73.82113865 -75.11405609 69.66233292 -70.67138672 65.54638672 C-63.68093085 59.07873444 -56.6413308 52.66681775 -49.5546875 46.3046875 C-44.67405968 41.90167464 -39.84007959 37.44747491 -35 33 C-29.35315354 27.81119939 -23.70661694 22.62319284 -18 17.5 C-16.33265947 16.00074908 -14.66604365 14.50069195 -13 13 C-12.47776855 12.52965332 -11.95553711 12.05930664 -11.41748047 11.57470703 C-9.75445362 10.07395041 -8.09555438 8.56874679 -6.4375 7.0625 C-5.91220703 6.58941406 -5.38691406 6.11632812 -4.84570312 5.62890625 C-2.04115781 3.11914574 -2.04115781 3.11914574 0 0 Z " fill="#1771AE" transform="translate(123,383)"/>
<path d="M0 0 C1.66362417 0.34820041 3.32995171 0.68404492 5 1 C5 1.33 5 1.66 5 2 C1.37 2 -2.26 2 -6 2 C-6 1.34 -6 0.68 -6 0 C-3 -1 -3 -1 0 0 Z " fill="#4DB1EC" transform="translate(546,6)"/>
</svg>
