<svg version="1.1" id="Layer_1" xmlns="http://www.w3.org/2000/svg" xmlns:xlink="http://www.w3.org/1999/xlink" x="0px" y="0px"
	 width="100%" viewBox="0 0 2400 3599" enable-background="new 0 0 2400 3599" xml:space="preserve">
<path fill="#000000" opacity="1.000000" stroke="none" 
	d="
M2402.000000,1878.000000 
	C2402.000000,2452.530273 2402.000000,3027.060547 2402.000000,3602.000000 
	C1819.941284,3602.000000 1237.882568,3602.000000 654.574158,3601.211914 
	C655.203918,3599.940674 657.057983,3599.210449 658.966858,3599.014893 
	C669.787598,3597.904785 680.794678,3597.804932 691.415710,3595.718262 
	C715.478821,3590.991211 739.563049,3586.100830 763.264771,3579.857422 
	C825.149902,3563.555420 882.501465,3536.860352 935.710205,3501.447021 
	C975.422852,3475.016357 1011.638000,3444.401123 1043.985840,3409.177734 
	C1068.316650,3382.684326 1090.268555,3354.482178 1109.680054,3324.217529 
	C1141.294312,3274.927490 1165.228760,3222.206543 1181.067993,3165.835449 
	C1192.953979,3123.533691 1201.123779,3080.602539 1202.839111,3036.257324 
	C1203.386475,3035.301025 1203.468384,3034.626953 1203.594971,3033.019775 
	C1203.648560,2825.081055 1203.658447,2618.075928 1203.657227,2411.070557 
	C1203.657227,2408.743652 1203.518677,2406.416992 1203.614502,2403.518555 
	C1203.747070,2402.551270 1203.709961,2402.155762 1203.715698,2401.252686 
	C1203.632935,2400.430176 1203.507446,2400.114746 1203.502686,2398.882324 
	C1203.624756,2218.654297 1203.625854,2039.343506 1203.917480,1859.303711 
	C1204.014282,1857.044678 1203.820435,1855.514648 1203.759155,1853.372925 
	C1203.887817,1852.343750 1203.884155,1851.926514 1204.248535,1851.378418 
	C1204.616577,1851.247803 1204.674438,1850.466309 1205.038818,1851.415283 
	C1206.167358,1860.292236 1206.832153,1868.231323 1207.712646,1876.146240 
	C1212.243530,1916.876831 1221.599487,1956.589722 1234.820923,1995.271973 
	C1247.299194,2031.779907 1263.105957,2066.887451 1282.526733,2100.365234 
	C1317.915527,2161.368896 1362.306030,2214.740967 1416.135254,2260.292480 
	C1461.361328,2298.563721 1511.295166,2329.206055 1565.491821,2353.056396 
	C1587.296997,2362.652344 1609.642456,2371.036377 1632.429077,2377.529297 
	C1653.255249,2383.463379 1674.225586,2389.551270 1695.928467,2392.281738 
	C1712.425537,2394.357178 1728.726807,2398.798096 1745.249146,2399.681885 
	C1773.088135,2401.170898 1801.034790,2401.011719 1828.933350,2400.893311 
	C1847.694458,2400.813477 1866.333252,2398.850586 1884.994385,2396.333252 
	C1905.784180,2393.528564 1926.254150,2389.439697 1946.563110,2384.560547 
	C1994.382080,2373.072510 2039.966431,2355.638428 2083.458740,2332.543701 
	C2143.949219,2300.423340 2197.452637,2259.438965 2243.989014,2209.154785 
	C2276.427002,2174.104248 2304.262207,2135.833252 2327.625488,2094.228027 
	C2358.295410,2039.611084 2379.806396,1981.615723 2391.901611,1920.162842 
	C2394.390625,1907.516968 2396.203613,1894.738159 2398.314941,1882.018311 
	C2398.780762,1879.211182 2398.755371,1879.206909 2402.000000,1878.000000 
z"/>
<path fill="#F24E1E" opacity="1.000000" stroke="none" 
	d="
M544.000000,2.000000 
	C763.375122,2.000000 982.750244,2.000000 1203.023438,2.936678 
	C1203.906982,6.204845 1203.879517,8.536334 1203.879517,10.867824 
	C1203.877563,404.562897 1203.877197,798.257935 1203.884766,1191.953003 
	C1203.884888,1195.282349 1203.994873,1198.611572 1203.640625,1202.014893 
	C1203.227539,1202.088867 1202.446167,1202.395630 1201.495239,1202.218262 
	C1198.879883,1202.011841 1197.215454,1201.957764 1195.551025,1201.957764 
	C994.099609,1201.953979 792.648193,1201.956177 591.196777,1201.941528 
	C586.210327,1201.941162 581.223816,1201.754395 575.524170,1201.226562 
	C569.050964,1200.624146 563.290955,1200.449585 556.647583,1200.277344 
	C548.495117,1199.625610 541.216370,1199.063843 533.958557,1198.302856 
	C487.778046,1193.460327 442.981049,1182.721313 399.360138,1166.862427 
	C298.918976,1130.345947 214.176086,1071.202637 145.143127,989.755127 
	C79.524323,912.335754 36.198956,823.788391 15.877728,724.325806 
	C11.104957,700.965393 9.002762,677.059998 5.639472,653.409912 
	C5.307208,651.073425 6.533696,647.561340 2.000000,648.000000 
	C2.000000,643.916687 2.000000,639.833313 2.479132,635.046448 
	C2.638844,633.561951 2.319423,632.780945 2.000001,632.000000 
	C2.000000,612.624878 2.000000,593.249756 2.400229,572.676270 
	C2.944194,571.191956 3.184674,570.912537 3.204424,570.618347 
	C3.224123,570.325012 3.100085,569.859253 2.896363,569.758972 
	C2.687686,569.656250 2.305985,569.905090 2.000004,570.000000 
	C2.000000,565.916687 2.000000,561.833313 2.826452,556.939758 
	C4.319573,554.357666 5.368066,552.632385 5.590946,550.806335 
	C7.036284,538.964722 8.005400,527.059265 9.675240,515.251709 
	C19.401407,446.477264 40.998833,381.637024 73.525627,320.243774 
	C101.150200,268.103210 135.985611,221.352509 177.220123,179.404800 
	C207.366333,148.737183 240.800186,121.891693 276.944641,98.492271 
	C340.721771,57.203823 409.741699,28.691383 484.296295,13.952744 
	C502.170258,10.419259 520.333435,8.343086 538.371887,5.651859 
	C541.997803,5.110887 542.015015,5.226200 544.000000,2.000000 
z"/>
<path fill="#A259FF" opacity="1.000000" stroke="none" 
	d="
M576.237366,1201.654541 
	C581.223816,1201.754395 586.210327,1201.941162 591.196777,1201.941528 
	C792.648193,1201.956177 994.099609,1201.953979 1195.551025,1201.957764 
	C1197.215454,1201.957764 1198.879883,1202.011841 1201.561035,1202.558105 
	C1202.734985,1203.551514 1203.048828,1203.876953 1203.580811,1204.977783 
	C1203.635498,1385.259644 1203.628540,1564.615234 1203.223145,1744.384766 
	C1203.090332,1746.541992 1203.355957,1748.285400 1203.783203,1750.617920 
	C1203.985107,1751.612549 1204.025635,1752.017822 1204.035767,1752.581543 
	C1204.005493,1752.739990 1203.916626,1753.050049 1203.449951,1753.703613 
	C1203.218994,1758.491943 1203.454712,1762.626709 1203.700684,1767.650879 
	C1203.646729,1790.957886 1203.582520,1813.375732 1203.132324,1836.440430 
	C1203.141235,1841.366821 1203.536011,1845.646240 1203.976807,1849.961426 
	C1204.022949,1849.997192 1203.958130,1850.094116 1203.776611,1850.438965 
	C1203.595215,1850.783813 1203.880371,1851.509155 1203.880371,1851.509155 
	C1203.884155,1851.926514 1203.887817,1852.343750 1203.359985,1853.784668 
	C1203.094604,1856.549805 1203.360840,1858.291382 1203.626953,1860.032837 
	C1203.625854,2039.343506 1203.624756,2218.654297 1203.099365,2398.829346 
	C1202.575317,2399.693848 1201.770508,2399.812012 1200.855713,2399.870361 
	C1197.944336,2399.952637 1195.947754,2399.997803 1193.951050,2399.997803 
	C996.921509,2399.999512 799.891968,2399.996582 602.862427,2399.999512 
	C593.878662,2399.999512 584.894958,2400.050293 575.036377,2400.064453 
	C570.635498,2400.092285 567.109497,2400.133057 562.685486,2400.127930 
	C543.275024,2400.432129 525.159424,2397.277588 506.996277,2394.211182 
	C483.278534,2390.206543 459.846252,2385.215332 436.732941,2378.414062 
	C397.383148,2366.834961 359.603912,2351.651367 323.295349,2332.542480 
	C259.595917,2299.018311 203.875290,2255.268311 155.899033,2201.810547 
	C114.790695,2156.005615 81.542992,2104.884521 56.230553,2048.695068 
	C33.173405,1997.512085 17.357580,1944.215454 9.694954,1888.572266 
	C8.022206,1876.425537 7.002917,1864.189453 5.632021,1852.000244 
	C5.393884,1849.882690 5.966258,1846.821899 2.000000,1848.000000 
	C2.000000,1843.916626 2.000000,1839.833374 2.546294,1835.182617 
	C2.728384,1833.743408 2.364181,1832.871704 1.999989,1832.000000 
	C2.000000,1812.624878 2.000000,1793.249756 2.453842,1772.716309 
	C2.605112,1771.038574 2.302540,1770.519287 1.999984,1770.000000 
	C2.000000,1765.916626 2.000000,1761.833374 2.642647,1757.294922 
	C3.748378,1756.622070 4.211462,1756.404175 5.214429,1755.627686 
	C5.883626,1751.449951 6.012938,1747.830933 6.224231,1743.344727 
	C8.087993,1729.023804 9.564767,1715.521118 11.702698,1702.124146 
	C22.863440,1632.186523 46.508797,1566.638550 81.482826,1505.124390 
	C114.824799,1446.480713 156.910538,1395.007446 207.601257,1350.458618 
	C266.746490,1298.479370 333.486725,1259.629395 407.843048,1233.939087 
	C439.546936,1222.985474 471.934601,1214.770386 505.199890,1209.588257 
	C520.057495,1207.273560 534.953552,1205.750244 550.682007,1203.910645 
	C555.897095,1203.403198 560.255737,1202.805176 565.435608,1202.132812 
	C569.583679,1201.923706 572.910522,1201.789185 576.237366,1201.654541 
z"/>
<path fill="#FF7262" opacity="1.000000" stroke="none" 
	d="
M1204.053589,1201.940918 
	C1203.994873,1198.611572 1203.884888,1195.282349 1203.884766,1191.953003 
	C1203.877197,798.257935 1203.877563,404.562897 1203.879517,10.867824 
	C1203.879517,8.536334 1203.906982,6.204845 1203.960815,2.936678 
	C1423.375122,2.000000 1642.750244,2.000000 1862.486938,2.711497 
	C1865.317139,4.156623 1867.740845,5.213854 1870.262695,5.563821 
	C1878.152344,6.658772 1886.124146,7.204828 1893.984375,8.462317 
	C1962.846191,19.478729 2028.202637,40.850868 2089.549561,74.314888 
	C2149.107178,106.802803 2201.917969,147.915421 2247.492920,198.075012 
	C2288.687012,243.413391 2322.467529,293.817230 2348.150635,349.584198 
	C2369.818848,396.634033 2385.582275,445.483856 2394.338867,496.556488 
	C2395.853027,505.386261 2397.007812,514.277100 2398.421143,523.125000 
	C2398.717529,524.981750 2398.465576,527.975769 2402.000000,526.000000 
	C2402.000000,531.400024 2402.000000,536.800049 2401.342285,542.890015 
	C2401.122803,544.386597 2401.561523,545.193237 2402.000000,546.000000 
	C2402.000000,548.133362 2402.000000,550.266663 2401.507568,553.002747 
	C2401.343262,554.403687 2401.671631,555.201843 2402.000000,556.000000 
	C2402.000000,586.041809 2402.000000,616.083557 2401.531982,647.302612 
	C2401.375977,648.986511 2401.687988,649.493286 2402.000000,650.000000 
	C2402.000000,652.133362 2402.000000,654.266663 2401.366943,657.006897 
	C2400.597168,658.456055 2400.460205,659.298340 2400.262207,660.785767 
	C2400.800781,661.620667 2401.400391,661.810364 2402.000000,662.000000 
	C2402.000000,666.741150 2402.000000,671.482239 2401.325684,676.489502 
	C2399.863770,678.847656 2398.718018,680.879700 2398.356201,683.042908 
	C2397.260742,689.588562 2396.665283,696.218994 2395.530029,702.756531 
	C2383.707764,770.836548 2361.294434,835.216797 2327.419189,895.474487 
	C2286.611572,968.063538 2233.019287,1029.683960 2166.772949,1080.108887 
	C2093.065430,1136.213623 2010.641113,1173.313354 1919.746582,1191.250488 
	C1896.381104,1195.861450 1872.852783,1199.887939 1847.965576,1200.144043 
	C1841.459229,1200.615723 1835.890015,1201.154785 1830.250732,1201.868286 
	C1830.180664,1202.042725 1829.975708,1202.357910 1829.053101,1202.221802 
	C1806.646240,1202.171997 1785.161865,1202.258301 1762.851807,1202.212402 
	C1758.117065,1202.163574 1754.208130,1202.247192 1749.351440,1202.195679 
	C1569.220947,1202.040771 1390.037964,1202.019409 1210.855103,1202.019409 
	C1208.535522,1202.019409 1206.215820,1202.292114 1203.915527,1202.307007 
	C1203.934814,1202.176514 1204.053589,1201.940918 1204.053589,1201.940918 
z"/>
<path fill="#0ACF83" opacity="1.000000" stroke="none" 
	d="
M1203.444824,2404.090088 
	C1203.518677,2406.416992 1203.657227,2408.743652 1203.657227,2411.070557 
	C1203.658447,2618.075928 1203.648560,2825.081055 1203.305054,3033.406738 
	C1202.576172,3035.267090 1202.377197,3035.871338 1202.373535,3036.539795 
	C1201.123779,3080.602539 1192.953979,3123.533691 1181.067993,3165.835449 
	C1165.228760,3222.206543 1141.294312,3274.927490 1109.680054,3324.217529 
	C1090.268555,3354.482178 1068.316650,3382.684326 1043.985840,3409.177734 
	C1011.638000,3444.401123 975.422852,3475.016357 935.710205,3501.447021 
	C882.501465,3536.860352 825.149902,3563.555420 763.264771,3579.857422 
	C739.563049,3586.100830 715.478821,3590.991211 691.415710,3595.718262 
	C680.794678,3597.804932 669.787598,3597.904785 658.966858,3599.014893 
	C657.057983,3599.210449 655.203918,3599.940674 653.662231,3601.211914 
	C617.958191,3602.000000 581.916443,3602.000000 545.267822,3601.187256 
	C542.950500,3599.590820 541.303772,3598.355713 539.518066,3598.103027 
	C532.693848,3597.136475 525.794922,3596.689209 518.977051,3595.686279 
	C447.251221,3585.137207 379.394318,3562.971680 315.716980,3528.131348 
	C267.003113,3501.478271 222.700211,3468.775879 183.182877,3429.902344 
	C165.727249,3412.730957 149.625946,3394.051758 134.081512,3375.095947 
	C102.509277,3336.595215 76.966370,3294.199951 56.472496,3248.843750 
	C38.097118,3208.176025 24.200325,3166.025391 15.537139,3122.166504 
	C10.966844,3099.029053 6.997850,3075.844971 5.637506,3052.269775 
	C5.505258,3049.977783 5.725822,3047.278809 2.000000,3048.000000 
	C2.000000,3023.291504 2.000000,2998.583008 2.667468,2972.598633 
	C7.188168,2965.600830 5.855257,2959.565430 4.307531,2953.551270 
	C4.295828,2953.505859 2.801849,2953.842041 1.999988,2954.000000 
	C2.000000,2950.571289 2.000000,2947.142578 2.435205,2943.854004 
	C3.975812,2942.694580 5.859298,2941.506348 6.063304,2940.078125 
	C7.673425,2928.805664 8.963067,2917.487061 10.627228,2905.791992 
	C11.260852,2904.843506 11.417258,2904.234131 11.489470,2902.754639 
	C12.600094,2895.705322 13.336182,2889.420898 14.627426,2883.252686 
	C25.909878,2829.355469 43.493668,2777.703613 68.594017,2728.561523 
	C105.238632,2656.818115 154.430664,2595.050049 215.601883,2542.907471 
	C261.154358,2504.078613 311.726196,2473.134521 366.740662,2449.322754 
	C429.789734,2422.033203 495.809204,2407.530518 564.857239,2401.838135 
	C569.253662,2401.807617 572.779358,2401.678467 577.219849,2401.629150 
	C588.130798,2401.829102 598.126953,2402.053223 608.123108,2402.054443 
	C802.403625,2402.075684 996.684204,2402.073730 1190.964722,2402.050781 
	C1194.617676,2402.050293 1198.270508,2401.741699 1201.953003,2401.762207 
	C1201.982544,2401.947510 1202.097778,2402.304688 1202.243896,2402.658691 
	C1202.617554,2403.493164 1202.969116,2403.852295 1203.444824,2404.090088 
z"/>
<path fill="#1ABCFE" opacity="1.000000" stroke="none" 
	d="
M1203.916748,1753.050049 
	C1203.916626,1753.050049 1204.005493,1752.739990 1204.656250,1751.990967 
	C1206.857910,1725.685059 1210.926514,1700.487305 1216.246826,1675.478760 
	C1229.277100,1614.229492 1251.358398,1556.386108 1282.715454,1502.220337 
	C1323.708008,1431.410522 1376.836548,1371.175781 1442.201050,1321.863525 
	C1489.447754,1286.219727 1540.779541,1258.020630 1596.484253,1237.905640 
	C1621.897095,1228.729126 1647.670044,1221.081787 1674.217896,1215.503174 
	C1693.395142,1211.473389 1712.704224,1208.803589 1732.772705,1205.742676 
	C1739.021851,1205.204712 1744.461548,1204.498535 1750.753662,1203.903809 
	C1755.588501,1203.932861 1759.570679,1203.850342 1764.516113,1203.835938 
	C1784.099121,1203.938721 1802.719116,1204.044067 1821.338013,1203.933105 
	C1824.220215,1203.916016 1827.096680,1202.907837 1829.975708,1202.357910 
	C1829.975708,1202.357910 1830.180664,1202.042725 1831.081543,1201.995483 
	C1835.397949,1202.069458 1838.813477,1202.190674 1842.808105,1202.827393 
	C1847.669922,1203.445190 1851.952515,1203.547485 1857.085449,1203.775635 
	C1867.949463,1205.264648 1877.997559,1206.415527 1887.969238,1208.037109 
	C1906.324951,1211.021973 1924.832642,1213.434082 1942.919189,1217.628174 
	C1970.500610,1224.023926 1997.263306,1233.006104 2023.699951,1243.485474 
	C2048.998291,1253.513794 2073.553223,1264.676880 2097.246826,1277.916626 
	C2155.515137,1310.475830 2206.802246,1351.825928 2251.242676,1401.518311 
	C2282.574707,1436.553223 2309.422119,1474.824585 2331.788086,1516.278687 
	C2363.924561,1575.841431 2385.377930,1638.935303 2396.092773,1705.718628 
	C2396.985352,1711.282959 2397.546875,1716.902832 2398.547852,1722.445312 
	C2398.797119,1723.825806 2399.208984,1727.194946 2402.000000,1724.000000 
	C2402.000000,1733.378540 2402.000000,1742.756958 2401.564209,1752.941650 
	C2401.418945,1754.498535 2401.709473,1755.249268 2402.000000,1756.000000 
	C2402.000000,1796.041748 2402.000000,1836.083618 2402.000000,1877.062744 
	C2398.755371,1879.206909 2398.780762,1879.211182 2398.314941,1882.018311 
	C2396.203613,1894.738159 2394.390625,1907.516968 2391.901611,1920.162842 
	C2379.806396,1981.615723 2358.295410,2039.611084 2327.625488,2094.228027 
	C2304.262207,2135.833252 2276.427002,2174.104248 2243.989014,2209.154785 
	C2197.452637,2259.438965 2143.949219,2300.423340 2083.458740,2332.543701 
	C2039.966431,2355.638428 1994.382080,2373.072510 1946.563110,2384.560547 
	C1926.254150,2389.439697 1905.784180,2393.528564 1884.994385,2396.333252 
	C1866.333252,2398.850586 1847.694458,2400.813477 1828.933350,2400.893311 
	C1801.034790,2401.011719 1773.088135,2401.170898 1745.249146,2399.681885 
	C1728.726807,2398.798096 1712.425537,2394.357178 1695.928467,2392.281738 
	C1674.225586,2389.551270 1653.255249,2383.463379 1632.429077,2377.529297 
	C1609.642456,2371.036377 1587.296997,2362.652344 1565.491821,2353.056396 
	C1511.295166,2329.206055 1461.361328,2298.563721 1416.135254,2260.292480 
	C1362.306030,2214.740967 1317.915527,2161.368896 1282.526733,2100.365234 
	C1263.105957,2066.887451 1247.299194,2031.779907 1234.820923,1995.271973 
	C1221.599487,1956.589722 1212.243530,1916.876831 1207.712646,1876.146240 
	C1206.832153,1868.231323 1206.167358,1860.292236 1205.033936,1851.207520 
	C1204.664795,1850.050781 1203.958130,1850.094116 1203.958130,1850.094116 
	C1203.958130,1850.094116 1204.022949,1849.997192 1204.142334,1849.092529 
	C1204.013916,1844.056396 1203.766113,1839.925049 1203.518311,1835.793579 
	C1203.582520,1813.375732 1203.646729,1790.957886 1203.938721,1766.677612 
	C1204.083008,1760.893433 1203.999878,1756.971802 1203.916748,1753.050049 
z"/>
<path fill="#000000" opacity="1.000000" stroke="none" 
	d="
M563.986572,2401.739746 
	C495.809204,2407.530518 429.789734,2422.033203 366.740662,2449.322754 
	C311.726196,2473.134521 261.154358,2504.078613 215.601883,2542.907471 
	C154.430664,2595.050049 105.238632,2656.818115 68.594017,2728.561523 
	C43.493668,2777.703613 25.909878,2829.355469 14.627426,2883.252686 
	C13.336182,2889.420898 12.600094,2895.705322 11.056664,2903.056396 
	C10.454937,2904.845459 10.403131,2905.514160 10.351322,2906.182861 
	C8.963067,2917.487061 7.673425,2928.805664 6.063304,2940.078125 
	C5.859298,2941.506348 3.975812,2942.694580 2.435205,2942.997070 
	C2.000000,2577.958252 2.000000,2213.916504 2.000000,1848.937256 
	C5.966258,1846.821899 5.393884,1849.882690 5.632021,1852.000244 
	C7.002917,1864.189453 8.022206,1876.425537 9.694954,1888.572266 
	C17.357580,1944.215454 33.173405,1997.512085 56.230553,2048.695068 
	C81.542992,2104.884521 114.790695,2156.005615 155.899033,2201.810547 
	C203.875290,2255.268311 259.595917,2299.018311 323.295349,2332.542480 
	C359.603912,2351.651367 397.383148,2366.834961 436.732941,2378.414062 
	C459.846252,2385.215332 483.278534,2390.206543 506.996277,2394.211182 
	C525.159424,2397.277588 543.275024,2400.432129 562.820435,2400.511475 
	C563.853333,2400.940918 563.986572,2401.739746 563.986572,2401.739746 
z"/>
<path fill="#010000" opacity="1.000000" stroke="none" 
	d="
M549.825562,1203.819946 
	C534.953552,1205.750244 520.057495,1207.273560 505.199890,1209.588257 
	C471.934601,1214.770386 439.546936,1222.985474 407.843048,1233.939087 
	C333.486725,1259.629395 266.746490,1298.479370 207.601257,1350.458618 
	C156.910538,1395.007446 114.824799,1446.480713 81.482826,1505.124390 
	C46.508797,1566.638550 22.863440,1632.186523 11.702698,1702.124146 
	C9.564767,1715.521118 8.087993,1729.023804 5.888328,1744.010376 
	C5.205144,1749.090820 4.939842,1752.638428 4.674543,1756.186157 
	C4.211462,1756.404175 3.748378,1756.622070 2.642647,1756.419922 
	C2.000000,1387.291504 2.000000,1018.583069 2.000000,648.937317 
	C6.533696,647.561340 5.307208,651.073425 5.639472,653.409912 
	C9.002762,677.059998 11.104957,700.965393 15.877728,724.325806 
	C36.198956,823.788391 79.524323,912.335754 145.143127,989.755127 
	C214.176086,1071.202637 298.918976,1130.345947 399.360138,1166.862427 
	C442.981049,1182.721313 487.778046,1193.460327 533.958557,1198.302856 
	C541.216370,1199.063843 548.495117,1199.625610 556.701599,1200.639893 
	C557.639038,1201.000000 557.705200,1201.729370 557.007080,1201.773438 
	C554.147888,1202.484985 551.986694,1203.152466 549.825562,1203.819946 
z"/>
<path fill="#000000" opacity="1.000000" stroke="none" 
	d="
M2402.000000,1723.062744 
	C2399.208984,1727.194946 2398.797119,1723.825806 2398.547852,1722.445312 
	C2397.546875,1716.902832 2396.985352,1711.282959 2396.092773,1705.718628 
	C2385.377930,1638.935303 2363.924561,1575.841431 2331.788086,1516.278687 
	C2309.422119,1474.824585 2282.574707,1436.553223 2251.242676,1401.518311 
	C2206.802246,1351.825928 2155.515137,1310.475830 2097.246826,1277.916626 
	C2073.553223,1264.676880 2048.998291,1253.513794 2023.699951,1243.485474 
	C1997.263306,1233.006104 1970.500610,1224.023926 1942.919189,1217.628174 
	C1924.832642,1213.434082 1906.324951,1211.021973 1887.969238,1208.037109 
	C1877.997559,1206.415527 1867.949463,1205.264648 1856.616211,1203.270996 
	C1853.033569,1202.397461 1850.770752,1202.154297 1848.595581,1201.483643 
	C1848.683350,1201.056274 1848.902710,1200.211670 1848.902710,1200.211670 
	C1872.852783,1199.887939 1896.381104,1195.861450 1919.746582,1191.250488 
	C2010.641113,1173.313354 2093.065430,1136.213623 2166.772949,1080.108887 
	C2233.019287,1029.683960 2286.611572,968.063538 2327.419189,895.474487 
	C2361.294434,835.216797 2383.707764,770.836548 2395.530029,702.756531 
	C2396.665283,696.218994 2397.260742,689.588562 2398.356201,683.042908 
	C2398.718018,680.879700 2399.863770,678.847656 2401.325684,677.377808 
	C2402.000000,1026.041748 2402.000000,1374.083618 2402.000000,1723.062744 
z"/>
<path fill="#000000" opacity="1.000000" stroke="none" 
	d="
M2.000000,3048.937256 
	C5.725822,3047.278809 5.505258,3049.977783 5.637506,3052.269775 
	C6.997850,3075.844971 10.966844,3099.029053 15.537139,3122.166504 
	C24.200325,3166.025391 38.097118,3208.176025 56.472496,3248.843750 
	C76.966370,3294.199951 102.509277,3336.595215 134.081512,3375.095947 
	C149.625946,3394.051758 165.727249,3412.730957 183.182877,3429.902344 
	C222.700211,3468.775879 267.003113,3501.478271 315.716980,3528.131348 
	C379.394318,3562.971680 447.251221,3585.137207 518.977051,3595.686279 
	C525.794922,3596.689209 532.693848,3597.136475 539.518066,3598.103027 
	C541.303772,3598.355713 542.950500,3599.590820 544.330566,3601.187256 
	C363.477600,3602.000000 182.955200,3602.000000 2.000000,3602.000000 
	C2.000000,3417.958496 2.000000,3233.916504 2.000000,3048.937256 
z"/>
<path fill="#010000" opacity="1.000000" stroke="none" 
	d="
M543.062683,2.000000 
	C542.015015,5.226200 541.997803,5.110887 538.371887,5.651859 
	C520.333435,8.343086 502.170258,10.419259 484.296295,13.952744 
	C409.741699,28.691383 340.721771,57.203823 276.944641,98.492271 
	C240.800186,121.891693 207.366333,148.737183 177.220123,179.404800 
	C135.985611,221.352509 101.150200,268.103210 73.525627,320.243774 
	C40.998833,381.637024 19.401407,446.477264 9.675240,515.251709 
	C8.005400,527.059265 7.036284,538.964722 5.590946,550.806335 
	C5.368066,552.632385 4.319573,554.357666 2.826452,556.064758 
	C2.000000,371.480865 2.000000,186.961716 2.000000,2.000000 
	C182.041550,2.000000 362.083466,2.000000 543.062683,2.000000 
z"/>
<path fill="#010100" opacity="1.000000" stroke="none" 
	d="
M2402.000000,525.062683 
	C2398.465576,527.975769 2398.717529,524.981750 2398.421143,523.125000 
	C2397.007812,514.277100 2395.853027,505.386261 2394.338867,496.556488 
	C2385.582275,445.483856 2369.818848,396.634033 2348.150635,349.584198 
	C2322.467529,293.817230 2288.687012,243.413391 2247.492920,198.075012 
	C2201.917969,147.915421 2149.107178,106.802803 2089.549561,74.314888 
	C2028.202637,40.850868 1962.846191,19.478729 1893.984375,8.462317 
	C1886.124146,7.204828 1878.152344,6.658772 1870.262695,5.563821 
	C1867.740845,5.213854 1865.317139,4.156623 1863.424316,2.711497 
	C2043.185425,2.000000 2222.370850,2.000000 2402.000000,2.000000 
	C2402.000000,176.041534 2402.000000,350.083466 2402.000000,525.062683 
z"/>
<path fill="#057147" opacity="1.000000" stroke="none" 
	d="
M1.999988,2954.899902 
	C2.801849,2953.842041 4.295828,2953.505859 4.307531,2953.551270 
	C5.855257,2959.565430 7.188168,2965.600830 2.667468,2971.661377 
	C2.000000,2966.599854 2.000000,2961.199951 1.999988,2954.899902 
z"/>
<path fill="#084963" opacity="1.000000" stroke="none" 
	d="
M2402.000000,1755.500000 
	C2401.709473,1755.249268 2401.418945,1754.498535 2401.564209,1753.873901 
	C2402.000000,1754.000000 2402.000000,1755.000000 2402.000000,1755.500000 
z"/>
<path fill="#552620" opacity="1.000000" stroke="none" 
	d="
M2402.000000,545.500000 
	C2401.561523,545.193237 2401.122803,544.386597 2401.342285,543.789978 
	C2402.000000,544.000000 2402.000000,545.000000 2402.000000,545.500000 
z"/>
<path fill="#552620" opacity="1.000000" stroke="none" 
	d="
M2402.000000,555.500000 
	C2401.671631,555.201843 2401.343262,554.403687 2401.507568,553.802734 
	C2402.000000,554.000000 2402.000000,555.000000 2402.000000,555.500000 
z"/>
<path fill="#361E55" opacity="1.000000" stroke="none" 
	d="
M1.999989,1832.500000 
	C2.364181,1832.871704 2.728384,1833.743408 2.546294,1834.307617 
	C2.000000,1834.000000 2.000000,1833.000000 1.999989,1832.500000 
z"/>
<path fill="#7041BA" opacity="1.000000" stroke="none" 
	d="
M1.999984,1770.500000 
	C2.302540,1770.519287 2.605112,1771.038574 2.453842,1771.778931 
	C2.000000,1772.000000 2.000000,1771.000000 1.999984,1770.500000 
z"/>
<path fill="#552620" opacity="1.000000" stroke="none" 
	d="
M2400.323242,660.140625 
	C2400.460205,659.298340 2400.597168,658.456055 2401.366943,657.806885 
	C2402.000000,658.000000 2402.000000,659.000000 2401.580078,659.525391 
	C2401.159912,660.050842 2400.323486,660.140625 2400.323242,660.140625 
z"/>
<path fill="#531B0A" opacity="1.000000" stroke="none" 
	d="
M2.000004,570.500000 
	C2.305985,569.905090 2.687686,569.656250 2.896363,569.758972 
	C3.100085,569.859253 3.224123,570.325012 3.204424,570.618347 
	C3.184674,570.912537 2.944194,571.191956 2.400229,571.738892 
	C2.000000,572.000000 2.000000,571.000000 2.000004,570.500000 
z"/>
<path fill="#531B0A" opacity="1.000000" stroke="none" 
	d="
M2.000001,632.500000 
	C2.319423,632.780945 2.638844,633.561951 2.479132,634.171448 
	C2.000000,634.000000 2.000000,633.000000 2.000001,632.500000 
z"/>
<path fill="#552620" opacity="1.000000" stroke="none" 
	d="
M2402.000000,649.500000 
	C2401.687988,649.493286 2401.375977,648.986511 2401.531982,648.239868 
	C2402.000000,648.000000 2402.000000,649.000000 2402.000000,649.500000 
z"/>
<path fill="#000000" opacity="1.000000" stroke="none" 
	d="
M2400.262207,660.785828 
	C2400.323486,660.140625 2401.159912,660.050842 2401.580078,660.025391 
	C2402.000000,660.000000 2402.000000,661.000000 2402.000000,661.500000 
	C2401.400391,661.810364 2400.800781,661.620667 2400.262207,660.785828 
z"/>
<path fill="#7A43BF" opacity="1.000000" stroke="none" 
	d="
M1203.917480,1859.303711 
	C1203.360840,1858.291382 1203.094604,1856.549805 1203.227539,1854.396484 
	C1203.820435,1855.514648 1204.014282,1857.044678 1203.917480,1859.303711 
z"/>
<path fill="#089B62" opacity="1.000000" stroke="none" 
	d="
M1203.614502,2403.518555 
	C1202.969116,2403.852295 1202.617554,2403.493164 1202.619019,2402.472656 
	C1202.848145,2401.932861 1203.672852,2401.760010 1203.672852,2401.760010 
	C1203.709961,2402.155762 1203.747070,2402.551270 1203.614502,2403.518555 
z"/>
<path fill="#7A43BF" opacity="1.000000" stroke="none" 
	d="
M1203.715698,2401.252686 
	C1203.672852,2401.760010 1202.848145,2401.932861 1202.472900,2402.118652 
	C1202.097778,2402.304688 1201.982544,2401.947510 1201.944092,2401.318115 
	C1201.905762,2400.688721 1201.770508,2399.812012 1201.770508,2399.812012 
	C1201.770508,2399.812012 1202.575317,2399.693848 1202.978638,2399.746582 
	C1203.507446,2400.114746 1203.632935,2400.430176 1203.715698,2401.252686 
z"/>
<path fill="#089B62" opacity="1.000000" stroke="none" 
	d="
M1202.839111,3036.257324 
	C1202.377197,3035.871338 1202.576172,3035.267090 1203.260376,3034.340088 
	C1203.468384,3034.626953 1203.386475,3035.301025 1202.839111,3036.257324 
z"/>
<path fill="#7A43BF" opacity="1.000000" stroke="none" 
	d="
M1203.776611,1850.438965 
	C1203.958130,1850.094116 1204.664795,1850.050781 1204.669678,1850.258545 
	C1204.674438,1850.466309 1204.616577,1851.247803 1204.248535,1851.378418 
	C1203.880371,1851.509155 1203.595215,1850.783813 1203.776611,1850.438965 
z"/>
<path fill="#B2270E" opacity="1.000000" stroke="none" 
	d="
M557.705200,1201.729370 
	C557.705200,1201.729370 557.639038,1201.000000 557.584961,1200.637451 
	C563.290955,1200.449585 569.050964,1200.624146 575.524170,1201.226562 
	C572.910522,1201.789185 569.583679,1201.923706 564.572510,1202.054077 
	C561.160522,1201.942993 559.432861,1201.836182 557.705200,1201.729370 
z"/>
<path fill="#7A43BF" opacity="1.000000" stroke="none" 
	d="
M1203.519165,1204.051636 
	C1203.048828,1203.876953 1202.734985,1203.551514 1202.511963,1202.735474 
	C1202.446167,1202.395630 1203.227539,1202.088867 1203.640625,1202.014893 
	C1204.053589,1201.940918 1203.934814,1202.176514 1203.996582,1202.742920 
	C1204.058228,1203.309448 1204.332642,1204.152832 1204.113159,1204.257080 
	C1203.893677,1204.361450 1203.519165,1204.051636 1203.519165,1204.051636 
z"/>
<path fill="#000101" opacity="1.000000" stroke="none" 
	d="
M1731.963013,1205.574463 
	C1712.704224,1208.803589 1693.395142,1211.473389 1674.217896,1215.503174 
	C1647.670044,1221.081787 1621.897095,1228.729126 1596.484253,1237.905640 
	C1540.779541,1258.020630 1489.447754,1286.219727 1442.201050,1321.863525 
	C1376.836548,1371.175781 1323.708008,1431.410522 1282.715454,1502.220337 
	C1251.358398,1556.386108 1229.277100,1614.229492 1216.246826,1675.478760 
	C1210.926514,1700.487305 1206.857910,1725.685059 1204.686523,1751.832642 
	C1204.025635,1752.017822 1203.985107,1751.612549 1204.072632,1749.887695 
	C1204.007568,1747.035767 1203.814575,1745.503418 1203.621582,1743.970947 
	C1203.628540,1564.615234 1203.635498,1385.259644 1203.580811,1204.977783 
	C1203.519165,1204.051636 1203.893677,1204.361450 1205.028320,1204.216431 
	C1378.203735,1204.047729 1550.244507,1204.015503 1722.285400,1204.066162 
	C1725.511353,1204.067139 1728.737183,1205.049805 1731.963013,1205.574463 
z"/>
<path fill="#8C7BDA" opacity="1.000000" stroke="none" 
	d="
M1200.855713,2399.870361 
	C1201.770508,2399.812012 1201.905762,2400.688721 1201.914551,2401.132812 
	C1198.270508,2401.741699 1194.617676,2402.050293 1190.964722,2402.050781 
	C996.684204,2402.073730 802.403625,2402.075684 608.123108,2402.054443 
	C598.126953,2402.053223 588.130798,2401.829102 577.117676,2401.262207 
	C576.100769,2400.815430 575.911194,2400.077393 575.911194,2400.077393 
	C584.894958,2400.050293 593.878662,2399.999512 602.862427,2399.999512 
	C799.891968,2399.996582 996.921509,2399.999512 1193.951050,2399.997803 
	C1195.947754,2399.997803 1197.944336,2399.952637 1200.855713,2399.870361 
z"/>
<path fill="#7A43BF" opacity="1.000000" stroke="none" 
	d="
M1203.132324,1836.440430 
	C1203.766113,1839.925049 1204.013916,1844.056396 1204.096191,1849.056885 
	C1203.536011,1845.646240 1203.141235,1841.366821 1203.132324,1836.440430 
z"/>
<path fill="#272A7A" opacity="1.000000" stroke="none" 
	d="
M557.007080,1201.773438 
	C559.432861,1201.836182 561.160522,1201.942993 563.751282,1202.128418 
	C560.255737,1202.805176 555.897095,1203.403198 550.682007,1203.910645 
	C551.986694,1203.152466 554.147888,1202.484985 557.007080,1201.773438 
z"/>
<path fill="#7041BA" opacity="1.000000" stroke="none" 
	d="
M5.214427,1755.627686 
	C4.939842,1752.638428 5.205144,1749.090820 5.806349,1744.877441 
	C6.012938,1747.830933 5.883626,1751.449951 5.214427,1755.627686 
z"/>
<path fill="#7A43BF" opacity="1.000000" stroke="none" 
	d="
M1203.450073,1753.703613 
	C1203.999878,1756.971802 1204.083008,1760.893433 1203.928223,1765.788330 
	C1203.454712,1762.626709 1203.218994,1758.491943 1203.450073,1753.703613 
z"/>
<path fill="#762A7A" opacity="1.000000" stroke="none" 
	d="
M575.036377,2400.064453 
	C575.911194,2400.077393 576.100769,2400.815430 576.202942,2401.182617 
	C572.779358,2401.678467 569.253662,2401.807617 564.857239,2401.838135 
	C563.986572,2401.739746 563.853333,2400.940918 563.718384,2400.557373 
	C567.109497,2400.133057 570.635498,2400.092285 575.036377,2400.064453 
z"/>
<path fill="#7A43BF" opacity="1.000000" stroke="none" 
	d="
M1203.223267,1744.384766 
	C1203.814575,1745.503418 1204.007568,1747.035767 1203.911133,1749.298462 
	C1203.355957,1748.285400 1203.090332,1746.541992 1203.223267,1744.384766 
z"/>
<path fill="#3F0000" opacity="1.000000" stroke="none" 
	d="
M1732.772705,1205.742676 
	C1728.737183,1205.049805 1725.511353,1204.067139 1722.285400,1204.066162 
	C1550.244507,1204.015503 1378.203735,1204.047729 1205.247803,1204.112061 
	C1204.332642,1204.152832 1204.058228,1203.309448 1203.977295,1202.873535 
	C1206.215820,1202.292114 1208.535522,1202.019409 1210.855103,1202.019409 
	C1390.037964,1202.019409 1569.220947,1202.040771 1749.261353,1202.563721 
	C1750.118896,1203.067017 1749.901123,1203.792480 1749.901123,1203.792480 
	C1744.461548,1204.498535 1739.021851,1205.204712 1732.772705,1205.742676 
z"/>
<path fill="#49BCFE" opacity="1.000000" stroke="none" 
	d="
M1829.053101,1202.221680 
	C1827.096680,1202.907837 1824.220215,1203.916016 1821.338013,1203.933105 
	C1802.719116,1204.044067 1784.099121,1203.938721 1764.558105,1203.481323 
	C1763.636719,1203.058472 1763.677612,1202.344604 1763.677612,1202.344727 
	C1785.161865,1202.258301 1806.646240,1202.171997 1829.053101,1202.221680 
z"/>
<path fill="#C13931" opacity="1.000000" stroke="none" 
	d="
M1847.965576,1200.144043 
	C1848.902710,1200.211670 1848.683350,1201.056274 1847.805908,1201.529541 
	C1845.361816,1202.105957 1843.795410,1202.208984 1842.228882,1202.311768 
	C1838.813477,1202.190674 1835.397949,1202.069458 1831.151611,1201.821045 
	C1835.890015,1201.154785 1841.459229,1200.615723 1847.965576,1200.144043 
z"/>
<path fill="#465E7F" opacity="1.000000" stroke="none" 
	d="
M1762.851807,1202.212280 
	C1763.677612,1202.344604 1763.636719,1203.058472 1763.594727,1203.413086 
	C1759.570679,1203.850342 1755.588501,1203.932861 1750.753662,1203.903931 
	C1749.901123,1203.792480 1750.118896,1203.067017 1750.208984,1202.698975 
	C1754.208130,1202.247192 1758.117065,1202.163574 1762.851807,1202.212280 
z"/>
<path fill="#057147" opacity="1.000000" stroke="none" 
	d="
M10.627231,2905.791992 
	C10.403131,2905.514160 10.454937,2904.845459 10.939549,2903.875000 
	C11.417258,2904.234131 11.260852,2904.843506 10.627231,2905.791992 
z"/>
<path fill="#066183" opacity="1.000000" stroke="none" 
	d="
M1842.808105,1202.827393 
	C1843.795410,1202.208984 1845.361816,1202.105957 1847.718018,1201.957031 
	C1850.770752,1202.154297 1853.033569,1202.397461 1855.765747,1203.145020 
	C1851.952515,1203.547485 1847.669922,1203.445190 1842.808105,1202.827393 
z"/>
</svg>